<?xml version="1.0" encoding="utf-8"?>
<!-- Generator: Adobe Illustrator 16.0.0, SVG Export Plug-In . SVG Version: 6.00 Build 0)  -->
<!DOCTYPE svg PUBLIC "-//W3C//DTD SVG 1.1//EN" "http://www.w3.org/Graphics/SVG/1.1/DTD/svg11.dtd">
<svg version="1.1" id="Layer_1" xmlns="http://www.w3.org/2000/svg" xmlns:xlink="http://www.w3.org/1999/xlink" x="0px" y="0px"
	 width="216.826px" height="215.599px" viewBox="0 0 216.826 215.599" enable-background="new 0 0 216.826 215.599"
	 xml:space="preserve">
<path d="M171.435,115.998c43.828-39.791,49.148-93.773,43.574-110.754l0,0V4.99c0,0,0-0.253-0.254-0.253c0-0.253,0-0.507,0-0.507
	c0-0.253-0.252-0.253-0.252-0.507s-0.254-0.253-0.254-0.507l-0.254-0.253c0,0-0.254-0.253-0.506-0.253l-0.254-0.253
	c-0.254,0-0.254-0.253-0.506-0.253c-0.254-0.253-0.508-0.253-0.508-0.253s-0.252,0-0.252-0.254h-0.254l0,0
	c-16.975-5.322-70.938,0-110.711,43.592C92.898,33.375,72.884,8.539,47.549,10.312c-1.52,0-2.787,0.76-3.547,2.028
	c-1.013,1.267-20.774,27.371-1.773,64.88c-9.627,3.041-27.361,10.898-41.041,26.358c-1.267,1.521-1.521,3.802-0.76,5.575
	c0.76,1.521,18.494,36.496,55.736,44.1l-19.761,19.768c-2.027,2.027-2.027,5.068,0,7.096c1.013,1.268,2.279,1.775,3.546,1.775
	c1.268,0,2.534-0.508,3.547-1.521l19.762-19.768c7.854,37.256,42.562,54.996,44.081,55.756c0.761,0.254,1.521,0.508,2.28,0.508
	c1.266,0,2.279-0.508,3.293-1.268c15.707-13.686,23.561-31.68,26.855-40.805c37.494,19.01,63.588-0.76,64.855-1.773
	c1.014-0.76,1.773-2.281,2.025-3.549C208.169,144.128,183.341,124.107,171.435,115.998z M139.513,162.884
	c-1.268-0.762-3.041-1.016-4.561-0.254c-1.52,0.506-2.533,2.027-3.041,3.547c0,0.254-5.826,22.811-22.8,39.537
	c-8.867-5.322-33.948-23.062-36.734-53.982l0.253-0.254l2.027-2.027l22.04-22.049c27.614,21.543,54.976,23.57,64.349,23.57
	c2.027,0,3.293,0,3.547,0c2.787-0.254,4.814-2.789,4.561-5.576s-2.787-4.814-5.574-4.562c-0.252,0-29.641,2.281-59.788-20.527
	l32.429-32.694c3.547,1.014,7.092,1.267,10.893,1.267c14.441,0,27.867-5.829,28.629-6.336c2.533-1.267,3.799-4.055,2.533-6.589
	c-1.268-2.534-4.055-3.802-6.588-2.534c-0.252,0-13.426,6.083-26.348,5.322l53.203-53.222c2.025-2.028,2.025-5.069,0-7.096
	c-2.027-2.027-5.068-2.027-7.094,0l-53.203,53.222c-0.506-12.672,5.32-26.104,5.32-26.358c1.268-2.534,0-5.576-2.533-6.589
	c-2.533-1.267-5.574,0-6.588,2.535c-0.506,1.014-9.625,21.542-5.066,39.283l-32.934,32.693
	C73.897,83.303,75.924,53.904,75.924,53.397c0.253-2.788-1.773-5.322-4.561-5.576s-5.32,1.774-5.573,4.562
	c0,1.521-2.533,34.468,23.308,67.922l-22.041,22.049l-1.773,1.773l-0.254,0.254c-30.654-3.041-48.642-28.133-53.962-36.748
	c16.721-16.981,39.269-22.81,39.521-22.81c1.521-0.507,2.787-1.521,3.547-3.042c0.507-1.521,0.507-3.294-0.253-4.562
	c-17.48-29.146-7.347-50.688-3.294-57.024c24.828,0.507,45.096,35.482,45.349,35.988c0.76,1.521,2.28,2.281,4.054,2.535
	c1.773,0.253,3.293-0.507,4.307-1.774c34.455-42.071,84.109-49.928,101.844-46.38c3.547,17.741-4.053,67.162-46.361,102.137
	c-1.268,1.014-2.027,2.787-1.773,4.309c0.254,1.773,1.014,3.041,2.533,4.055c0.254,0.254,35.467,20.529,35.975,45.365
	C190.181,169.98,168.394,180.371,139.513,162.884z"/>
</svg>
