<?xml version="1.0" encoding="utf-8"?>
<!-- Generator: Adobe Illustrator 16.0.0, SVG Export Plug-In . SVG Version: 6.00 Build 0)  -->
<!DOCTYPE svg PUBLIC "-//W3C//DTD SVG 1.1//EN" "http://www.w3.org/Graphics/SVG/1.1/DTD/svg11.dtd">
<svg version="1.1" id="Layer_1" xmlns="http://www.w3.org/2000/svg" xmlns:xlink="http://www.w3.org/1999/xlink" x="0px" y="0px"
	 width="600px" height="600px" viewBox="0 0 600 600" enable-background="new 0 0 600 600" xml:space="preserve">
<g>
	<g>
		<path fill-rule="evenodd" clip-rule="evenodd" d="M328.201,388.461c-7.841-4.371-16.163-7.675-24.413-11.118
			c-4.767-1.988-9.359-4.335-13.375-7.573c-7.935-6.404-6.426-16.765,2.903-20.876c2.615-1.152,5.377-1.533,8.212-1.691
			c10.801-0.588,21.048,1.395,30.82,6.155c4.858,2.369,6.475,1.632,8.11-3.471c1.729-5.39,3.191-10.869,4.762-16.309
			c1.055-3.653-0.241-6.076-3.687-7.607c-6.246-2.773-12.691-4.781-19.44-5.847c-8.821-1.39-8.815-1.43-8.855-10.344
			c-0.051-12.618-0.051-12.618-12.567-12.599c-1.821,0-3.642-0.05-5.462,0.006c-5.853,0.17-6.859,1.189-7.011,7.132
			c-0.068,2.667-0.021,5.338-0.035,8.003c-0.038,7.883-0.079,7.773-7.564,10.516c-18.149,6.647-29.342,19.084-30.547,39.028
			c-1.065,17.646,8.061,29.555,22.446,38.233c8.867,5.348,18.669,8.526,28.054,12.683c3.663,1.624,7.156,3.502,10.234,6.058
			c9.046,7.498,7.369,20.014-3.336,24.723c-5.743,2.528-11.797,3.162-17.998,2.383c-9.602-1.211-18.792-3.749-27.427-8.283
			c-5.062-2.655-6.545-1.96-8.27,3.584c-1.485,4.772-2.806,9.593-4.115,14.418c-1.761,6.483-1.13,8.024,5.008,11.022
			c7.814,3.816,16.188,5.776,24.724,7.139c6.673,1.062,6.894,1.363,6.964,8.339c0.03,3.166,0.047,6.334,0.085,9.501
			c0.044,3.995,1.95,6.312,6.013,6.388c4.631,0.084,9.266,0.087,13.893-0.03c3.785-0.1,5.736-2.163,5.748-6.035
			c0.011-4.33,0.225-8.674,0.034-12.996c-0.188-4.411,1.694-6.635,5.904-7.798c9.667-2.668,17.933-7.899,24.295-15.683
			C359.908,433.981,353.17,402.383,328.201,388.461z M429.687,162.174c14.271,0,25.844-11.569,25.844-25.842
			c0-14.272-11.572-25.841-25.844-25.841c-14.272,0-25.842,11.569-25.842,25.841C403.845,150.605,415.414,162.174,429.687,162.174z
			 M501.473,1.378H99.481c-31.716,0-57.428,25.713-57.428,57.429v482.386c0,31.716,25.711,57.429,57.428,57.429h401.992
			c31.712,0,57.426-25.713,57.426-57.429V58.807C558.898,27.091,533.185,1.378,501.473,1.378z M495.729,535.451H105.224V64.55
			h390.505V535.451z M171.264,162.174h180.897c14.27,0,25.842-11.569,25.842-25.842c0-14.272-11.572-25.841-25.842-25.841H171.264
			c-14.272,0-25.842,11.569-25.842,25.841C145.422,150.605,156.992,162.174,171.264,162.174z M171.264,245.445h180.897
			c14.27,0,25.842-11.572,25.842-25.844c0-14.27-11.572-25.842-25.842-25.842H171.264c-14.272,0-25.842,11.572-25.842,25.842
			C145.422,233.873,156.992,245.445,171.264,245.445z M429.687,245.445c14.271,0,25.844-11.572,25.844-25.844
			c0-14.27-11.572-25.842-25.844-25.842c-14.272,0-25.842,11.572-25.842,25.842C403.845,233.873,415.414,245.445,429.687,245.445z"
			/>
	</g>
</g>
</svg>
