<?xml version="1.0" encoding="utf-8"?>
<!-- Generator: Adobe Illustrator 16.0.0, SVG Export Plug-In . SVG Version: 6.00 Build 0)  -->
<!DOCTYPE svg PUBLIC "-//W3C//DTD SVG 1.1//EN" "http://www.w3.org/Graphics/SVG/1.1/DTD/svg11.dtd">
<svg version="1.1" id="Layer_1" xmlns="http://www.w3.org/2000/svg" xmlns:xlink="http://www.w3.org/1999/xlink" x="0px" y="0px"
	 width="1066px" height="350px" viewBox="0 0 1066 350" enable-background="new 0 0 1066 350" xml:space="preserve">
<path fill-rule="evenodd" clip-rule="evenodd" fill="#FFFFFF" d="M1012.59,156.38c5.819-0.016,11.624-0.005,17.428,0.099
	c0.275,0.005,0.541,0.027,0.813,0.036c6.05,0.207,11.507,1.492,16.239,3.924c4.069,2.091,7.601,5.032,10.541,8.82
	c0.123,0.159,0.256,0.306,0.377,0.468c0.078,0.104,0.148,0.219,0.225,0.324c1.412,1.93,2.684,4.061,3.791,6.414
	c0.253,0.538,0.484,1.093,0.71,1.652c1.903,4.719,2.837,10.131,2.887,15.185c0.323,33.32,0.303,66.646,0.114,99.968
	c-0.149,26.566-15.797,47.142-41.613,53.453c-15.255,3.731-28.953,0.749-40.774-7.603c-3.311-2.339-6.474-5.098-9.482-8.249
	c-10.389-10.876-14.68-24.236-14.49-39.197c0.146-11.613,0.029-23.229,0.029-35.104c11.941,0,23.343,0,35.229,0h0.001
	c0,17.635,0,35.052,0,52.918c12.016,0,23.559,0,35.451,0c0-39.01,0-78.064,0-117.544c-23.366,0-46.632,0-70.287,0c0,0,0,0-0.001,0
	c0-63.137,0-125.851,0-188.915c0.001,0,0.001,0,0.001,0c35.043,0,70.106,0,105.577,0h0.001c0,29.414,0,58.799,0,88.626h-0.001
	c-11.445,0-22.963,0-34.876,0c0,0,0,0-0.001,0c0-17.603,0-35.045,0-52.889c-11.934,0-23.487,0-35.396,0c0,39.011,0,78.058,0,117.67
	C1000.939,156.437,1006.771,156.396,1012.59,156.38z M856.235,38.433c-9.965,0-19.389,0-29.114,0c0-12.027,0-23.592,0-35.456
	c21.365,0,42.593,0,64.16,0c0,114.021,0,227.895,0,342.142c-11.422,0-22.956,0-35.046,0
	C856.235,242.954,856.235,140.928,856.235,38.433z M739.942,346.784c-19.53,4.655-36.496-1.558-50.211-16.026
	c-10.352-10.921-14.416-24.283-14.397-39.234c0.098-78.297,0.072-156.594,0.028-234.892c-0.014-23.311,9.979-40.644,30.798-51.203
	c4.926-2.498,10.695-3.345,16.101-4.872c1.717-0.486,3.507-0.716,5.263-1.063c0.668,0,1.333,0,2,0
	c4.365,0.867,8.847,1.362,13.079,2.663c23.943,7.354,38.994,26.839,39.063,51.9c0.225,79.963,0.232,159.928,0.001,239.89
	C781.592,320.184,765.49,340.692,739.942,346.784z M746.084,38.741c-11.873,0-23.42,0-34.92,0c0,90.528,0,180.678,0,270.894
	c11.865,0,23.287,0,34.92,0C746.084,219.146,746.084,128.968,746.084,38.741z M602.919,191.775
	c-11.145,0.18-22.291,0.03-33.815,0.03c0,39.341,0,78.376,0,117.775c11.648,0,23.193,0,35.178,0c0-17.646,0-35.081,0-52.896
	c11.826,0,23.229,0,35.054,0c0,29.277,0,58.672,0,88.438c-35.028,0-70.231,0-105.957,0c0-1.9,0-3.686,0-5.469
	c0-48.154,0.405-96.312-0.178-144.462c-0.278-23.144,16.647-39.923,39.032-38.853c10.459,0.501,20.961,0.086,31.806,0.086
	c0-39.308,0-78.349,0-117.729c-11.62,0-23.171,0-35.309,0c0,17.729,0,35.296,0,53.106c-12.005,0-23.425,0-35.563,0
	c1.478-18.46-2.925-37.005,3.189-54.751c7.451-21.618,23.004-33.928,45.889-36.664c1.112-0.13,2.186-0.589,3.277-0.896
	c0.667,0,1.333,0,2,0c4.212,0.805,8.535,1.243,12.618,2.476c24.223,7.308,39.311,26.878,39.534,52.106
	c0.299,33.654,0.242,67.316,0.017,100.974C639.542,177.077,624.989,191.419,602.919,191.775z M396.785,189.662
	c-4.3,2.099-5.502,4.451-5.485,8.996c0.081,23.409,0.106,46.82,0.11,70.231c0.005,23.41-0.011,46.821-0.011,70.231
	c0,1.952,0,3.904,0,6.109c0,0.001,0,0.002,0,0.002c-11.962,0-23.403,0-35.682,0c0,0,0-0.001,0-0.002c0-1.882,0-3.791,0-5.701
	c0-23.66-0.011-47.321-0.006-70.981s0.026-47.321,0.09-70.981c0.01-3.835-1.022-5.729-4.668-7.467
	c-19.084-9.107-30.093-24.578-30.421-45.596c-0.004-0.25-0.004-0.501-0.008-0.751c-0.707-46.06-0.284-92.138-0.308-138.208
	c-0.001-0.79,0.202-1.581,0.339-2.58c11.628,0,23.03,0,34.917,0c0,0,0,0,0,0.001c0,51.193,0,102.104,0,153.403
	c12.024,0,23.57,0,35.575,0c0-50.997,0-101.919,0-153.392c12.193,0,23.598,0,35.158,0c0.143,1.073,0.34,1.874,0.34,2.674
	c-0.022,23.242,0.069,46.488,0.072,69.731c0.004,23.244-0.082,46.487-0.459,69.725C426.01,165.521,415.225,180.666,396.785,189.662z
	 M263.003,345.152C263.003,345.153,263.003,345.153,263.003,345.152c-11.93,0.001-23.348,0.001-35.45,0.001c0,0,0,0,0-0.001
	c0-102.011,0-204.148,0-306.642c-12.118,0-23.565,0-35.578,0c0-12.162,0-23.601,0-35.437l0,0c35.247,0,70.461,0,106.078,0l0,0
	c0,11.401,0,22.963,0,35.082c0,0,0,0,0,0.001c-11.392,0-22.966,0-35.05,0C263.003,140.744,263.003,242.778,263.003,345.152z
	 M134.728,2.966c11.634,0,23.036,0,34.712,0c0,114.163,0,228.04,0,342.366c-11.788,0-23.071,0-34.712,0
	C134.728,231.186,134.728,117.197,134.728,2.966z M72.395,91.791c0-8.966,0-17.74,0-26.514c0-8.788,0-17.575,0-26.635
	c-11.96,0-23.396,0-35.257,0c0,90.198,0,180.387,0,270.938c11.606,0,23.152,0,35.139,0c0-17.649,0-35.085,0-52.897
	c11.829,0,23.23,0,34.9,0c0.14,0.431,0.506,1.027,0.504,1.625c-0.044,13.494,0.459,27.022-0.329,40.477
	c-1.594,27.203-25.633,49.502-52.63,49.578c-27.175,0.078-50.89-22.126-53.104-49.753c-0.187-2.322-0.24-4.66-0.24-6.991
	C1.365,213.301,1.396,134.979,1.35,56.658c-0.014-23.315,9.964-40.66,30.793-51.226c4.927-2.5,10.699-3.347,16.104-4.877
	c1.718-0.485,3.508-0.715,5.265-1.062c0.667,0,1.333,0,2,0c4.367,0.868,8.848,1.364,13.082,2.665
	c23.448,7.197,38.125,25.984,39.008,50.428c0.469,12.952,0.083,25.936,0.083,39.205C95.854,91.791,84.433,91.791,72.395,91.791z"/>
</svg>
