<?xml version="1.0" encoding="utf-8"?>
<!-- Generator: Adobe Illustrator 16.0.0, SVG Export Plug-In . SVG Version: 6.00 Build 0)  -->
<!DOCTYPE svg PUBLIC "-//W3C//DTD SVG 1.1//EN" "http://www.w3.org/Graphics/SVG/1.1/DTD/svg11.dtd">
<svg version="1.1" id="Layer_1" xmlns="http://www.w3.org/2000/svg" xmlns:xlink="http://www.w3.org/1999/xlink" x="0px" y="0px"
	 width="1066px" height="350px" viewBox="0 0 1066 350" enable-background="new 0 0 1066 350" xml:space="preserve">
<g>
	<g>
		<path fill="none" d="M56,1c176.667,0,353.333,0,530,0c-1.092,0.307-2.165,0.766-3.277,0.898
			c-22.885,2.736-38.438,15.046-45.888,36.664c-6.114,17.746-1.713,36.291-3.189,54.751c12.139,0,23.558,0,35.562,0
			c0-17.812,0-35.378,0-53.107c12.138,0,23.688,0,35.309,0c0,39.38,0,78.421,0,117.728c-10.845,0-21.347,0.415-31.806-0.086
			c-22.384-1.07-39.311,15.709-39.031,38.853c0.583,48.147,0.177,96.307,0.177,144.461c0,1.784,0,3.567,0,5.469
			c35.725,0,70.928,0,105.955,0c0-29.767,0-59.16,0-88.438c-11.825,0-23.226,0-35.052,0c0,17.814,0,35.249,0,52.896
			c-11.984,0-23.529,0-35.178,0c0-39.399,0-78.436,0-117.774c11.524,0,22.672,0.148,33.815-0.031
			c22.069-0.355,36.622-14.697,36.771-36.727c0.227-33.656,0.282-67.317-0.017-100.973c-0.224-25.229-15.312-44.8-39.533-52.106
			C596.535,2.243,592.212,1.805,588,1c46.667,0,93.333,0,140,0c-1.756,0.348-3.546,0.578-5.263,1.063
			c-5.404,1.527-11.175,2.374-16.1,4.872c-20.82,10.56-30.812,27.893-30.798,51.203c0.044,78.297,0.068,156.594-0.028,234.891
			c-0.019,14.951,4.046,28.313,14.397,39.234c13.715,14.469,30.681,20.683,50.21,16.026c25.548-6.092,41.648-26.6,41.725-52.838
			c0.231-79.962,0.223-159.926-0.001-239.888c-0.07-25.062-15.12-44.547-39.064-51.901C738.846,2.363,734.365,1.867,730,1
			c112.333,0,224.667,0,337,0c0,116.667,0,233.333,0,350c-355.333,0-710.666,0-1066,0C1,234.334,1,117.667,1,1
			c17.667,0,35.333,0,53,0c-1.757,0.348-3.547,0.578-5.265,1.063C43.33,3.593,37.558,4.44,32.632,6.939
			C11.803,17.504,1.825,34.849,1.839,58.164c0.046,78.32,0.015,156.641,0.027,234.96c0,2.331,0.053,4.669,0.24,6.991
			c2.214,27.627,25.928,49.831,53.103,49.753c26.996-0.076,51.035-22.375,52.629-49.578c0.788-13.453,0.285-26.981,0.329-40.477
			c0.002-0.597-0.364-1.194-0.504-1.624c-11.668,0-23.07,0-34.899,0c0,17.812,0,35.248,0,52.897c-11.986,0-23.532,0-35.138,0
			c0-90.552,0-180.739,0-270.937c11.861,0,23.296,0,35.256,0c0,9.059,0,17.846,0,26.634c0,8.773,0,17.548,0,26.514
			c12.038,0,23.458,0,35.292,0c0-13.27,0.385-26.253-0.083-39.205C107.207,29.65,92.53,10.863,69.082,3.665
			C64.848,2.365,60.367,1.868,56,1z M959.856,258.076c0,11.875,0.117,23.491-0.029,35.104c-0.189,14.961,4.102,28.321,14.489,39.197
			c13.755,14.403,30.729,20.627,50.256,15.852c25.816-6.312,41.463-26.887,41.613-53.454c0.188-33.321,0.209-66.646-0.115-99.966
			c-0.056-5.653-1.207-11.76-3.596-16.837c-6.229-13.241-17.406-19.729-31.986-19.987c-11.606-0.207-23.22-0.042-34.936-0.042
			c0-39.612,0-78.659,0-117.669c11.91,0,23.463,0,35.397,0c0,17.843,0,35.286,0,52.888c11.913,0,23.431,0,34.876,0
			c0-29.827,0-59.212,0-88.626c-35.471,0-70.534,0-105.576,0c0,63.065,0,125.778,0,188.915c23.655,0,46.921,0,70.287,0
			c0,39.479,0,78.534,0,117.543c-11.894,0-23.437,0-35.452,0c0-17.866,0-35.283,0-52.918
			C983.198,258.076,971.798,258.076,959.856,258.076z M391.71,4.485c0,51.473,0,102.395,0,153.392c-12.005,0-23.55,0-35.574,0
			c0-51.3,0-102.21,0-153.404c-11.887,0-23.289,0-34.917,0c-0.137,0.999-0.34,1.79-0.339,2.581
			c0.023,46.319-0.407,92.647,0.315,138.957c0.328,21.017,11.337,36.488,30.421,45.594c3.646,1.74,4.678,3.633,4.668,7.468
			c-0.128,47.32-0.084,94.642-0.084,141.962c0,1.91,0,3.82,0,5.703c12.279,0,23.719,0,35.681,0c0-2.206,0-4.159,0-6.111
			c0-46.821,0.062-93.643-0.1-140.463c-0.016-4.544,1.186-6.896,5.486-8.995c18.439-8.996,29.223-24.141,29.554-44.555
			c0.754-46.475,0.341-92.969,0.387-139.455c0-0.799-0.198-1.6-0.341-2.673C415.308,4.485,403.903,4.485,391.71,4.485z
			 M192.461,40.018c12.012,0,23.459,0,35.577,0c0,102.493,0,204.63,0,306.641c12.101,0,23.519,0,35.449,0
			c0-102.374,0-204.408,0-306.995c12.084,0,23.658,0,35.05,0c0-12.119,0-23.681,0-35.082c-35.616,0-70.831,0-106.076,0
			C192.461,16.417,192.461,27.856,192.461,40.018z M856.709,346.624c12.09,0,23.624,0,35.046,0c0-114.247,0-228.119,0-342.14
			c-21.567,0-42.795,0-64.159,0c0,11.864,0,23.428,0,35.456c9.725,0,19.149,0,29.113,0
			C856.709,142.434,856.709,244.46,856.709,346.624z M169.925,346.838c0-114.326,0-228.202,0-342.365c-11.676,0-23.078,0-34.712,0
			c0,114.231,0,228.218,0,342.365C146.854,346.838,158.137,346.838,169.925,346.838z"/>
		<path fill-rule="evenodd" clip-rule="evenodd" d="M730,1c4.365,0.867,8.846,1.363,13.078,2.663
			c23.944,7.354,38.994,26.839,39.064,51.901c0.224,79.962,0.232,159.926,0.001,239.888c-0.076,26.238-16.177,46.746-41.725,52.838
			c-19.529,4.656-36.495-1.558-50.21-16.026c-10.352-10.921-14.416-24.283-14.397-39.234c0.097-78.297,0.072-156.594,0.028-234.891
			c-0.014-23.311,9.978-40.644,30.798-51.203c4.925-2.498,10.695-3.345,16.1-4.872C724.454,1.578,726.244,1.348,728,1
			C728.667,1,729.333,1,730,1z M746.56,311.141c0-90.488,0-180.667,0-270.893c-11.873,0-23.419,0-34.919,0
			c0,90.527,0,180.677,0,270.893C723.506,311.141,734.928,311.141,746.56,311.141z"/>
		<path fill-rule="evenodd" clip-rule="evenodd" d="M588,1c4.212,0.805,8.535,1.243,12.618,2.476
			c24.222,7.307,39.31,26.878,39.533,52.106c0.299,33.655,0.243,67.316,0.017,100.973c-0.148,22.029-14.701,36.371-36.771,36.727
			c-11.144,0.18-22.291,0.031-33.815,0.031c0,39.339,0,78.375,0,117.774c11.648,0,23.193,0,35.178,0c0-17.646,0-35.081,0-52.896
			c11.826,0,23.227,0,35.052,0c0,29.278,0,58.672,0,88.438c-35.027,0-70.23,0-105.955,0c0-1.901,0-3.685,0-5.469
			c0-48.154,0.406-96.313-0.177-144.461c-0.279-23.144,16.647-39.923,39.031-38.853c10.459,0.501,20.961,0.086,31.806,0.086
			c0-39.307,0-78.348,0-117.728c-11.62,0-23.171,0-35.309,0c0,17.729,0,35.296,0,53.107c-12.005,0-23.424,0-35.562,0
			c1.477-18.46-2.925-37.005,3.189-54.751c7.45-21.618,23.003-33.928,45.888-36.664C583.835,1.766,584.908,1.307,586,1
			C586.667,1,587.333,1,588,1z"/>
		<path fill-rule="evenodd" clip-rule="evenodd" d="M56,1c4.367,0.868,8.848,1.365,13.082,2.665
			c23.448,7.198,38.125,25.985,39.008,50.428c0.468,12.952,0.083,25.936,0.083,39.205c-11.833,0-23.254,0-35.292,0
			c0-8.966,0-17.74,0-26.514c0-8.788,0-17.575,0-26.634c-11.96,0-23.396,0-35.256,0c0,90.197,0,180.385,0,270.937
			c11.606,0,23.152,0,35.138,0c0-17.649,0-35.085,0-52.897c11.829,0,23.23,0,34.899,0c0.14,0.43,0.506,1.027,0.504,1.624
			c-0.044,13.495,0.459,27.023-0.329,40.477c-1.594,27.203-25.633,49.502-52.629,49.578c-27.175,0.078-50.889-22.126-53.103-49.753
			c-0.187-2.322-0.24-4.66-0.24-6.991c-0.012-78.319,0.019-156.64-0.027-234.96c-0.014-23.315,9.964-40.66,30.793-51.225
			C37.558,4.44,43.33,3.593,48.735,2.063C50.453,1.578,52.243,1.348,54,1C54.667,1,55.333,1,56,1z"/>
		<path fill-rule="evenodd" clip-rule="evenodd" d="M959.856,258.076c11.941,0,23.342,0,35.229,0c0,17.635,0,35.052,0,52.918
			c12.016,0,23.559,0,35.452,0c0-39.009,0-78.063,0-117.543c-23.366,0-46.632,0-70.287,0c0-63.137,0-125.85,0-188.915
			c35.042,0,70.105,0,105.576,0c0,29.414,0,58.799,0,88.626c-11.445,0-22.963,0-34.876,0c0-17.602,0-35.045,0-52.888
			c-11.935,0-23.487,0-35.397,0c0,39.01,0,78.057,0,117.669c11.716,0,23.329-0.165,34.936,0.042
			c14.58,0.259,25.757,6.746,31.986,19.987c2.389,5.077,3.54,11.184,3.596,16.837c0.324,33.319,0.303,66.645,0.115,99.966
			c-0.15,26.567-15.797,47.142-41.613,53.454c-19.526,4.775-36.501-1.448-50.256-15.852c-10.388-10.876-14.679-24.236-14.489-39.197
			C959.974,281.567,959.856,269.951,959.856,258.076z"/>
		<path fill-rule="evenodd" clip-rule="evenodd" d="M391.71,4.485c12.193,0,23.598,0,35.157,0c0.143,1.073,0.341,1.874,0.341,2.673
			c-0.046,46.486,0.367,92.98-0.387,139.455c-0.331,20.414-11.114,35.559-29.554,44.555c-4.301,2.099-5.502,4.451-5.486,8.995
			c0.162,46.82,0.1,93.642,0.1,140.463c0,1.952,0,3.905,0,6.111c-11.962,0-23.401,0-35.681,0c0-1.883,0-3.793,0-5.703
			c0-47.32-0.044-94.642,0.084-141.962c0.01-3.835-1.021-5.728-4.668-7.468c-19.084-9.105-30.093-24.577-30.421-45.594
			c-0.723-46.31-0.292-92.638-0.315-138.957c-0.001-0.791,0.202-1.582,0.339-2.581c11.628,0,23.03,0,34.917,0
			c0,51.194,0,102.104,0,153.404c12.024,0,23.569,0,35.574,0C391.71,106.88,391.71,55.958,391.71,4.485z"/>
		<path fill-rule="evenodd" clip-rule="evenodd" d="M192.461,40.018c0-12.161,0-23.601,0-35.437c35.246,0,70.46,0,106.076,0
			c0,11.401,0,22.963,0,35.082c-11.392,0-22.966,0-35.05,0c0,102.587,0,204.621,0,306.995c-11.93,0-23.349,0-35.449,0
			c0-102.011,0-204.147,0-306.641C215.92,40.018,204.473,40.018,192.461,40.018z"/>
		<path fill-rule="evenodd" clip-rule="evenodd" d="M856.709,346.624c0-102.164,0-204.19,0-306.684c-9.964,0-19.389,0-29.113,0
			c0-12.028,0-23.592,0-35.456c21.364,0,42.592,0,64.159,0c0,114.021,0,227.893,0,342.14
			C880.333,346.624,868.799,346.624,856.709,346.624z"/>
		<path fill-rule="evenodd" clip-rule="evenodd" d="M169.925,346.838c-11.788,0-23.072,0-34.712,0c0-114.147,0-228.134,0-342.365
			c11.634,0,23.036,0,34.712,0C169.925,118.636,169.925,232.512,169.925,346.838z"/>
		<path fill-rule="evenodd" clip-rule="evenodd" fill="none" d="M746.56,311.141c-11.632,0-23.054,0-34.919,0
			c0-90.216,0-180.365,0-270.893c11.5,0,23.046,0,34.919,0C746.56,130.474,746.56,220.652,746.56,311.141z"/>
	</g>
</g>
</svg>
