<?xml version="1.0" encoding="utf-8"?>
<!-- Generator: Adobe Illustrator 16.0.0, SVG Export Plug-In . SVG Version: 6.00 Build 0)  -->
<!DOCTYPE svg PUBLIC "-//W3C//DTD SVG 1.1//EN" "http://www.w3.org/Graphics/SVG/1.1/DTD/svg11.dtd">
<svg version="1.1" id="Layer_1" xmlns="http://www.w3.org/2000/svg" xmlns:xlink="http://www.w3.org/1999/xlink" x="0px" y="0px"
	 width="431.904px" height="431.856px" viewBox="84.048 24.197 431.904 431.856"
	 enable-background="new 84.048 24.197 431.904 431.856" xml:space="preserve">
<path d="M299.435,24.292c-0.138,0-0.283,0-0.421,0.006c-2.687,0.066-66.312,1.983-111.078,30.707
	c-7.835,5.032-10.119,19.455-5.092,27.298c5.026,7.841,19.442,10.122,27.277,5.098c35.753-22.94,86.176-23.262,89.579-23.382
	c100.029,0.14,173.379,75.642,173.379,175.783c0,100.227-73.493,173.788-173.64,173.788c-49.81,0-91.984-18.085-126.133-53.093
	c-33.058-33.884-48.644-72.744-47.515-120.156c1.063-33.314,14.19-57.035,37.635-66.258c16.745-6.586,29.475-4.338,48.866,10.207
	c-21.953,33.84-16.131,75.678,13.489,105.326l27.017,27.039c3.164,3.161,7.449,4.939,11.919,4.939c4.471,0,8.755-1.778,11.919-4.939
	l11.125-11.133l27.015,27.039c3.295,3.29,7.606,4.938,11.921,4.938c4.312,0,8.624-1.647,11.918-4.938
	c6.582-6.593,6.582-17.271,0-23.857l-27.017-27.04l29.665-29.688l27.016,27.039c3.293,3.291,7.607,4.938,11.92,4.938
	c4.312,0,8.625-1.647,11.919-4.938c6.582-6.592,6.582-17.271,0-23.857L365.1,228.119l11.126-11.131
	c6.582-6.593,6.582-17.271,0-23.857l-27.016-27.043c-16.486-16.495-38.407-25.583-61.715-25.583c-17.969,0-29.109-0.567-43.57,9.458
	c-39.785-31.636-81.292-20.155-98.821-13.262c-36.169,14.228-59.485,55.446-60.994,102.702
	c-1.36,56.707,19.625,110.214,59.079,150.653c40.458,41.468,97.406,65.251,156.24,65.251c118.738,0,215.336-96.676,215.336-215.507
	C514.765,120.969,418.171,24.292,299.435,24.292z"/>
</svg>
