<?xml version="1.0" encoding="utf-8"?>
<!-- Generator: Adobe Illustrator 16.0.0, SVG Export Plug-In . SVG Version: 6.00 Build 0)  -->
<!DOCTYPE svg PUBLIC "-//W3C//DTD SVG 1.1//EN" "http://www.w3.org/Graphics/SVG/1.1/DTD/svg11.dtd">
<svg version="1.1" id="Layer_1" xmlns="http://www.w3.org/2000/svg" xmlns:xlink="http://www.w3.org/1999/xlink" x="0px" y="0px"
	 width="520px" height="520px" viewBox="0 0 520 520" enable-background="new 0 0 520 520" xml:space="preserve">
<polygon fill="#FFFFFF" stroke="#000000" stroke-miterlimit="10" points="200.5,205.1 200.5,173.1 251.5,173.1 251.5,212.1 
	366.5,212.1 447.5,281.1 447.5,507.101 69.5,507.101 69.5,285.1 152.5,211.1 "/>
<path d="M459.416,271.949l-84-72c-0.168-0.144-0.365-0.252-0.545-0.384c-0.271-0.211-0.541-0.408-0.828-0.594
	c-0.343-0.211-0.685-0.391-1.039-0.564c-0.275-0.133-0.545-0.276-0.84-0.391c-0.414-0.168-0.847-0.281-1.277-0.396
	c-0.252-0.065-0.492-0.149-0.75-0.198c-0.715-0.138-1.435-0.216-2.16-0.216H265.399V172.6c0-6.293-5.105-11.4-11.4-11.4h-54
	c-6.299,0-11.4,5.107-11.4,11.4v24.6H152c-2.718,0-5.358,0.972-7.416,2.748l-84,72c-2.526,2.16-3.984,5.321-3.984,8.651v228.001
	C56.6,514.896,61.706,520,68,520h210c1.045,0,2.041-0.188,3-0.448c0.961,0.264,1.957,0.448,3,0.448h168
	c6.301,0,11.399-5.104,11.399-11.399V280.6C463.399,277.27,461.942,274.108,459.416,271.949z M211.399,184h31.2v13.2h-31.2V184
	L211.399,184z M272.6,497.2h-81.33c1.332-1.863,2.13-4.133,2.13-6.6v-66c0-6.294-5.105-11.4-11.4-11.4h-12
	c-6.299,0-11.399,5.106-11.399,11.4v66c0,2.467,0.804,4.733,2.13,6.6H79.399V298h193.2V497.2z M440.6,497.2h-145.2V285.844
	L368,223.613l72.6,62.23V497.2z M344,323.2h-12c-6.299,0-11.4,5.106-11.4,11.399v48c0,6.295,5.107,11.399,11.4,11.399h12
	c6.301,0,11.399-5.104,11.399-11.399v-48C355.399,328.307,350.301,323.2,344,323.2z M398,394h12c6.301,0,11.399-5.105,11.399-11.4
	v-48c0-6.293-5.104-11.398-11.399-11.398h-12c-6.3,0-11.4,5.105-11.4,11.398v48C386.6,388.895,391.7,394,398,394z M344,413.2h-12
	c-6.299,0-11.4,5.106-11.4,11.4v48c0,6.295,5.107,11.399,11.4,11.399h12c6.301,0,11.399-5.104,11.399-11.399v-48
	C355.399,418.307,350.301,413.2,344,413.2z M398,484h12c6.301,0,11.399-5.104,11.399-11.399v-48c0-6.294-5.104-11.4-11.399-11.4h-12
	c-6.3,0-11.4,5.106-11.4,11.4v48C386.6,478.896,391.7,484,398,484z M170,394h12c6.301,0,11.4-5.105,11.4-11.4v-48
	c0-6.293-5.105-11.398-11.4-11.398h-12c-6.299-0.001-11.4,5.105-11.4,11.398v48C158.6,388.895,163.701,394,170,394z M224,394h12
	c6.301,0,11.4-5.105,11.4-11.4v-48c0-6.293-5.105-11.398-11.4-11.398h-12c-6.299-0.001-11.4,5.105-11.4,11.398v48
	C212.6,388.895,217.701,394,224,394z M224,484h12c6.301,0,11.4-5.104,11.4-11.399v-48c0-6.294-5.105-11.4-11.4-11.4h-12
	c-6.299,0-11.399,5.106-11.399,11.4v48C212.6,478.896,217.701,484,224,484z M116,394h12c6.3,0,11.4-5.105,11.4-11.4v-48
	c0-6.293-5.106-11.398-11.4-11.398h-12c-6.3,0-11.4,5.105-11.4,11.398v48C104.6,388.895,109.701,394,116,394z M116,484h12
	c6.3,0,11.4-5.104,11.4-11.399v-48c0-6.294-5.106-11.4-11.4-11.4h-12c-6.3,0-11.4,5.106-11.4,11.4v48
	C104.6,478.896,109.701,484,116,484z"/>
</svg>
