<?xml version="1.0" encoding="utf-8"?>
<!-- Generator: Adobe Illustrator 16.0.0, SVG Export Plug-In . SVG Version: 6.00 Build 0)  -->
<!DOCTYPE svg PUBLIC "-//W3C//DTD SVG 1.1//EN" "http://www.w3.org/Graphics/SVG/1.1/DTD/svg11.dtd">
<svg version="1.1" id="Layer_1" xmlns="http://www.w3.org/2000/svg" xmlns:xlink="http://www.w3.org/1999/xlink" x="0px" y="0px"
	 width="520px" height="520px" viewBox="0 0 520 520" enable-background="new 0 0 520 520" xml:space="preserve">
<polygon fill="#FFFFFF" stroke="#000000" stroke-miterlimit="10" points="176.5,226.101 176.5,177.101 217.5,177.101 222.5,226.101 
	392.5,226.101 476.5,340.602 476.5,505.102 43.5,505.102 43.5,340.602 121.5,225.101 "/>
<path d="M488.18,333.84l-84-114c-0.096-0.126-0.223-0.21-0.315-0.33c-0.445-0.552-0.926-1.056-1.459-1.512
	c-0.047-0.036-0.09-0.072-0.139-0.113c-1.979-1.65-4.486-2.683-7.267-2.683H232.4v-42.6c0-6.293-5.107-11.4-11.4-11.4h-42
	c-6.294,0-11.4,5.106-11.4,11.399v42.601H125c-3.624,0-7.026,1.722-9.18,4.638l-84,114c-0.03,0.049-0.042,0.102-0.078,0.149
	c-0.612,0.853-1.08,1.787-1.44,2.789c-0.072,0.203-0.126,0.407-0.192,0.616c-0.3,1.026-0.51,2.082-0.51,3.205v168
	c0,6.293,5.106,11.4,11.4,11.4h264c1.043,0,2.039-0.188,3-0.451c0.959,0.264,1.955,0.451,3,0.451h168c6.293,0,11.4-5.107,11.4-11.4
	v-168C490.401,338.165,489.619,335.794,488.18,333.84z M318.44,238.001l-67.199,91.2H225.56l67.2-91.2H318.44L318.44,238.001z
	 M238.76,238.001h25.673l-67.199,91.2H171.56L238.76,238.001z M190.4,184.001h19.2v31.2h-19.2V184.001z M184.76,238.001h25.674
	l-67.2,91.2H117.56L184.76,238.001z M130.76,238.001h25.68l-67.2,91.2H63.56L130.76,238.001z M299.6,497.201H188.264
	c1.332-1.863,2.136-4.133,2.136-6.6v-66c0-6.293-5.106-11.4-11.4-11.4h-12c-6.294,0-11.4,5.107-11.4,11.4v66
	c0,2.467,0.804,4.733,2.136,6.6H52.4v-145.2H299.6V497.201z M305.221,329.227c-0.078,0-0.143-0.024-0.221-0.024h-25.441l67.201-91.2
	h25.675L305.221,329.227z M467.601,497.201H322.401v-152.85l72.6-98.531l72.601,98.525L467.601,497.201L467.601,497.201z
	 M377.601,394.602v48c0,6.295,5.104,11.399,11.399,11.399h12c6.293,0,11.4-5.104,11.4-11.399v-48c0-6.293-5.107-11.4-11.4-11.4h-12
	C382.705,383.201,377.601,388.309,377.601,394.602z M221,454.001h36c6.293,0,11.4-5.104,11.4-11.399v-48
	c0-6.293-5.107-11.4-11.4-11.4h-36c-6.295,0-11.4,5.107-11.4,11.4v48C209.6,448.896,214.705,454.001,221,454.001z M89,454.001h36
	c6.294,0,11.4-5.104,11.4-11.399v-48c0-6.293-5.106-11.4-11.4-11.4H89c-6.294,0-11.4,5.107-11.4,11.4v48
	C77.6,448.896,82.706,454.001,89,454.001z"/>
</svg>
