<?xml version="1.0" encoding="utf-8"?>
<!-- Generator: Adobe Illustrator 16.0.0, SVG Export Plug-In . SVG Version: 6.00 Build 0)  -->
<!DOCTYPE svg PUBLIC "-//W3C//DTD SVG 1.1//EN" "http://www.w3.org/Graphics/SVG/1.1/DTD/svg11.dtd">
<svg version="1.1" id="Layer_1" xmlns="http://www.w3.org/2000/svg" xmlns:xlink="http://www.w3.org/1999/xlink" x="0px" y="0px"
	 width="520px" height="520px" viewBox="-56.6 -80.6 520 520" enable-background="new -56.6 -80.6 520 520" xml:space="preserve">
<polygon fill="#FFFFFF" stroke="#000000" stroke-miterlimit="10" points="150.9,12.9 150.9,63.9 92.9,63.9 9.9,179.4 9.9,350.9 
	392.9,344.9 392.9,173.9 306.9,60.9 192.9,65.9 189.9,12.9 "/>
<path d="M404.58,172.638l-84-114c-0.096-0.126-0.221-0.21-0.316-0.33c-0.443-0.552-0.924-1.056-1.457-1.512
	c-0.049-0.036-0.09-0.072-0.141-0.113C316.687,55.033,314.179,54,311.4,54H202.8V11.4C202.8,5.107,197.695,0,191.4,0h-42
	C143.107,0,138,5.107,138,11.4V54H95.4c-3.624,0-7.026,1.722-9.18,4.638l-84,114c-0.03,0.049-0.042,0.102-0.078,0.15
	c-0.612,0.852-1.08,1.787-1.44,2.789c-0.072,0.203-0.126,0.408-0.192,0.617C0.21,177.221,0,178.277,0,179.4v168
	c0,6.293,5.106,11.4,11.4,11.4h210c1.045,0,2.041-0.188,3-0.451c0.961,0.264,1.957,0.451,3,0.451h168c6.295,0,11.4-5.107,11.4-11.4
	v-168C406.8,176.964,406.021,174.593,404.58,172.638z M160.8,22.8H180V54h-19.2V22.8z M216,336h-81.334
	c1.332-1.863,2.136-4.133,2.136-6.6v-66c0-6.293-5.106-11.4-11.399-11.4h-12c-6.294,0-11.4,5.107-11.4,11.4v66
	c0,2.467,0.804,4.734,2.136,6.6H22.8V190.8H216V336z M227.4,138h-12c-6.293,0-11.4,5.106-11.4,11.399c0,6.295,5.107,11.4,11.4,11.4
	h11.545l-5.322,7.225c-0.078,0-0.145-0.024-0.223-0.024H33.96l27.414-37.199H65.4c6.294,0,11.4-5.106,11.4-11.399
	c0-2.479-0.81-4.752-2.148-6.625l8.826-11.98H89.4c6.294,0,11.4-5.105,11.4-11.4c0-3.041-1.212-5.789-3.15-7.836l3.51-4.758h48.24
	h42h97.441l-1.965,2.664c-1.631-0.906-3.479-1.464-5.477-1.464h-12c-6.295,0-11.4,5.106-11.4,11.399c0,6.295,5.105,11.4,11.4,11.4
	h1.752l-6.984,9.479c-1.896-1.416-4.225-2.279-6.768-2.279h-12c-6.295,0-11.4,5.105-11.4,11.4c0,6.293,5.105,11.399,11.4,11.399
	h3.648l-10.939,14.845C236.556,141.206,232.375,138,227.4,138z M384,336H238.8V183.15l72.6-98.531l72.6,98.525V336z M287.4,222h-12
	c-6.293,0-11.4,5.107-11.4,11.4v48c0,6.295,5.107,11.4,11.4,11.4h12c6.295,0,11.4-5.105,11.4-11.4v-48
	C298.8,227.107,293.695,222,287.4,222z M341.4,292.8h12c6.295,0,11.4-5.105,11.4-11.4v-48c0-6.293-5.105-11.4-11.4-11.4h-12
	c-6.293,0-11.4,5.107-11.4,11.4v48C330,287.695,335.107,292.8,341.4,292.8z M167.4,292.8h12c6.295,0,11.4-5.105,11.4-11.4v-48
	c0-6.293-5.105-11.4-11.4-11.4h-12c-6.293,0-11.399,5.107-11.399,11.4v48C156,287.695,161.107,292.8,167.4,292.8z M59.4,292.8h12
	c6.294,0,11.4-5.105,11.4-11.4v-48c0-6.293-5.106-11.4-11.4-11.4h-12c-6.294,0-11.4,5.107-11.4,11.4v48
	C48,287.695,53.106,292.8,59.4,292.8z M244.8,89.4c0-6.293-5.105-11.399-11.4-11.399h-12C215.107,78,210,83.107,210,89.4
	c0,6.295,5.107,11.4,11.4,11.4h12C239.695,100.8,244.8,95.695,244.8,89.4z M173.4,100.8h12c6.295,0,11.4-5.105,11.4-11.4
	c0-6.293-5.105-11.399-11.4-11.399h-12C167.107,78,162,83.107,162,89.4C162,95.695,167.107,100.8,173.4,100.8z M125.4,100.8h12
	c6.295,0,11.4-5.105,11.4-11.4c0-6.293-5.105-11.399-11.4-11.399h-12C119.107,78,114,83.107,114,89.4
	C114,95.695,119.107,100.8,125.4,100.8z M124.8,119.4c0-6.293-5.105-11.399-11.4-11.399h-12C95.106,108,90,113.107,90,119.4
	c0,6.295,5.106,11.4,11.4,11.4h12C119.695,130.8,124.8,125.695,124.8,119.4z M209.4,108h-12C191.107,108,186,113.107,186,119.4
	c0,6.295,5.106,11.4,11.399,11.4h12c6.295,0,11.4-5.105,11.4-11.4C220.8,113.107,215.695,108,209.4,108z M172.8,119.4
	c0-6.293-5.105-11.399-11.4-11.399h-12C143.107,108,138,113.107,138,119.4c0,6.295,5.106,11.4,11.399,11.4h12
	C167.695,130.8,172.8,125.695,172.8,119.4z M83.4,138h-12C65.106,138,60,143.107,60,149.4c0,6.295,5.106,11.4,11.4,11.4h12
	c6.294,0,11.4-5.105,11.4-11.4C94.8,143.107,89.694,138,83.4,138z M179.4,138h-12C161.107,138,156,143.107,156,149.4
	c0,6.295,5.106,11.4,11.399,11.4h12c6.295,0,11.4-5.105,11.4-11.4C190.8,143.107,185.695,138,179.4,138z M131.4,138h-12
	C113.107,138,108,143.107,108,149.4c0,6.295,5.106,11.4,11.399,11.4h12c6.295,0,11.4-5.105,11.4-11.4
	C142.8,143.107,137.695,138,131.4,138z"/>
</svg>
