<?xml version="1.0" encoding="utf-8"?>
<!-- Generator: Adobe Illustrator 16.0.0, SVG Export Plug-In . SVG Version: 6.00 Build 0)  -->
<!DOCTYPE svg PUBLIC "-//W3C//DTD SVG 1.1//EN" "http://www.w3.org/Graphics/SVG/1.1/DTD/svg11.dtd">
<svg version="1.1" id="Layer_1" xmlns="http://www.w3.org/2000/svg" xmlns:xlink="http://www.w3.org/1999/xlink" x="0px" y="0px"
	 width="406.8px" height="358.8px" viewBox="96.6 210.6 406.8 358.8" enable-background="new 96.6 210.6 406.8 358.8"
	 xml:space="preserve">
<polygon fill="#FFFFFF" stroke="#000000" stroke-miterlimit="10" points="239.5,254.5 239.5,222.5 292.5,222.5 292.5,254.5 
	406.5,254.5 490.5,332.5 490.5,555.5 106.5,555.5 106.5,328.5 191.5,255.5 "/>
<path d="M499.416,321.348l-84-72c-0.18-0.15-0.378-0.258-0.564-0.396c-0.264-0.204-0.521-0.396-0.804-0.576
	c-0.342-0.216-0.696-0.396-1.056-0.576c-0.271-0.132-0.534-0.27-0.816-0.384c-0.426-0.168-0.857-0.288-1.29-0.402
	c-0.252-0.066-0.485-0.15-0.744-0.198c-0.714-0.138-1.434-0.216-2.159-0.216H305.4V222c0-6.294-5.106-11.4-11.4-11.4h-54
	c-6.294,0-11.4,5.106-11.4,11.4v24.6H192c-2.724,0-5.352,0.972-7.416,2.748l-84,72c-2.532,2.16-3.984,5.322-3.984,8.652v228
	c0,6.294,5.106,11.4,11.4,11.4h210c1.044,0,2.04-0.187,3-0.45c0.96,0.264,1.956,0.45,3,0.45h168c6.294,0,11.4-5.106,11.4-11.4V330
	C503.4,326.67,501.948,323.508,499.416,321.348z M251.4,233.4h31.2v13.2h-31.2V233.4z M312.6,546.6h-81.335
	c1.332-1.865,2.136-4.134,2.136-6.6v-66c0-6.294-5.106-11.4-11.4-11.4h-12c-6.294,0-11.4,5.106-11.4,11.4v66
	c0,2.466,0.804,4.734,2.136,6.6H119.4V347.4h193.2V546.6z M326.754,312.624l-10.17,8.718c-1.074,0.918-1.902,2.04-2.562,3.252
	H131.814l8.994-7.71c1.02,0.306,2.076,0.517,3.192,0.517h12c6.294,0,11.4-5.106,11.4-11.4c0-3.42-1.536-6.45-3.918-8.538
	l11.736-10.062H180c6.294,0,11.4-5.106,11.4-11.4c0-0.78-0.078-1.542-0.228-2.274l5.046-4.326h10.518
	c-1.332,1.866-2.136,4.134-2.136,6.6c0,6.294,5.106,11.4,11.4,11.4h12c6.294,0,11.4-5.106,11.4-11.4c0-2.466-0.804-4.734-2.136-6.6
	H240h14.736c-1.332,1.866-2.136,4.134-2.136,6.6c0,6.294,5.106,11.4,11.4,11.4h12c6.294,0,11.4-5.106,11.4-11.4
	c0-2.466-0.804-4.734-2.136-6.6H294h8.736c-1.332,1.866-2.137,4.134-2.137,6.6c0,6.294,5.106,11.4,11.4,11.4h12
	c6.294,0,11.4-5.106,11.4-11.4c0-2.466-0.805-4.734-2.137-6.6h17.473c-1.332,1.866-2.137,4.134-2.137,6.6
	c0,5.172,3.469,9.492,8.19,10.884l-9.006,7.716H336c-6.294,0-11.4,5.106-11.4,11.4C324.6,308.479,325.41,310.752,326.754,312.624z
	 M480.6,546.6H335.4V335.244l72.6-62.232l72.6,62.232V546.6z M384,372.6h-12c-6.294,0-11.4,5.106-11.4,11.4v48
	c0,6.294,5.106,11.4,11.4,11.4h12c6.294,0,11.4-5.106,11.4-11.4v-48C395.4,377.706,390.294,372.6,384,372.6z M438,443.4h12
	c6.294,0,11.4-5.106,11.4-11.4v-48c0-6.294-5.106-11.4-11.4-11.4h-12c-6.294,0-11.4,5.106-11.4,11.4v48
	C426.6,438.294,431.706,443.4,438,443.4z M384,462.6h-12c-6.294,0-11.4,5.106-11.4,11.4v48c0,6.294,5.106,11.4,11.4,11.4h12
	c6.294,0,11.4-5.106,11.4-11.4v-48C395.4,467.706,390.294,462.6,384,462.6z M438,533.4h12c6.294,0,11.4-5.106,11.4-11.4v-48
	c0-6.294-5.106-11.4-11.4-11.4h-12c-6.294,0-11.4,5.106-11.4,11.4v48C426.6,528.294,431.706,533.4,438,533.4z M210,443.4h12
	c6.294,0,11.4-5.106,11.4-11.4v-48c0-6.294-5.106-11.4-11.4-11.4h-12c-6.294,0-11.4,5.106-11.4,11.4v48
	C198.6,438.294,203.706,443.4,210,443.4z M264,443.4h12c6.294,0,11.4-5.106,11.4-11.4v-48c0-6.294-5.106-11.4-11.4-11.4h-12
	c-6.294,0-11.4,5.106-11.4,11.4v48C252.6,438.294,257.706,443.4,264,443.4z M264,533.4h12c6.294,0,11.4-5.106,11.4-11.4v-48
	c0-6.294-5.106-11.4-11.4-11.4h-12c-6.294,0-11.4,5.106-11.4,11.4v48C252.6,528.294,257.706,533.4,264,533.4z M156,443.4h12
	c6.294,0,11.4-5.106,11.4-11.4v-48c0-6.294-5.106-11.4-11.4-11.4h-12c-6.294,0-11.4,5.106-11.4,11.4v48
	C144.6,438.294,149.706,443.4,156,443.4z M156,533.4h12c6.294,0,11.4-5.106,11.4-11.4v-48c0-6.294-5.106-11.4-11.4-11.4h-12
	c-6.294,0-11.4,5.106-11.4,11.4v48C144.6,528.294,149.706,533.4,156,533.4z M300,294.6h-12c-6.294,0-11.4,5.106-11.4,11.4
	s5.106,11.4,11.4,11.4h12c6.294,0,11.4-5.106,11.4-11.4S306.294,294.6,300,294.6z M204,294.6h-12c-6.294,0-11.4,5.106-11.4,11.4
	s5.106,11.4,11.4,11.4h12c6.294,0,11.4-5.106,11.4-11.4S210.294,294.6,204,294.6z M252,294.6h-12c-6.294,0-11.4,5.106-11.4,11.4
	s5.106,11.4,11.4,11.4h12c6.294,0,11.4-5.106,11.4-11.4S258.294,294.6,252,294.6z"/>
</svg>
