<?xml version="1.0" encoding="utf-8"?>
<!-- Generator: Adobe Illustrator 16.0.0, SVG Export Plug-In . SVG Version: 6.00 Build 0)  -->
<!DOCTYPE svg PUBLIC "-//W3C//DTD SVG 1.1//EN" "http://www.w3.org/Graphics/SVG/1.1/DTD/svg11.dtd">
<svg version="1.1" id="Layer_1" xmlns="http://www.w3.org/2000/svg" xmlns:xlink="http://www.w3.org/1999/xlink" x="0px" y="0px"
	 width="406.8px" height="358.8px" viewBox="96.6 210.6 406.8 358.8" enable-background="new 96.6 210.6 406.8 358.8"
	 xml:space="preserve">
<polygon fill="#FFFFFF" stroke="#000000" stroke-miterlimit="10" points="240.5,254.5 240.5,222.5 291.5,222.5 291.5,261.5 
	406.5,261.5 487.5,330.5 487.5,556.5 109.5,556.5 109.5,334.5 192.5,260.5 "/>
<path d="M499.416,321.348l-84-72c-0.168-0.144-0.366-0.252-0.546-0.384c-0.271-0.21-0.54-0.408-0.828-0.594
	c-0.342-0.21-0.684-0.39-1.038-0.564c-0.275-0.132-0.546-0.276-0.84-0.39c-0.414-0.168-0.846-0.282-1.278-0.396
	c-0.252-0.066-0.492-0.15-0.75-0.198c-0.714-0.138-1.434-0.216-2.16-0.216H305.4V222c0-6.294-5.106-11.4-11.4-11.4h-54
	c-6.3,0-11.4,5.106-11.4,11.4v24.6H192c-2.718,0-5.358,0.972-7.416,2.748l-84,72c-2.526,2.16-3.984,5.322-3.984,8.652v228
	c0,6.294,5.106,11.4,11.4,11.4h210c1.044,0,2.04-0.187,3-0.45c0.96,0.264,1.956,0.45,3,0.45h168c6.3,0,11.4-5.106,11.4-11.4V330
	C503.4,326.67,501.942,323.508,499.416,321.348z M251.4,233.4h31.2v13.2h-31.2V233.4z M312.6,546.6h-81.33
	c1.332-1.865,2.13-4.134,2.13-6.6v-66c0-6.294-5.106-11.4-11.4-11.4h-12c-6.3,0-11.4,5.106-11.4,11.4v66
	c0,2.466,0.804,4.734,2.13,6.6H119.4V347.4h193.2V546.6z M480.6,546.6H335.4V335.244l72.6-62.232l72.6,62.232V546.6z M384,372.6h-12
	c-6.3,0-11.4,5.106-11.4,11.4v48c0,6.294,5.106,11.4,11.4,11.4h12c6.3,0,11.4-5.106,11.4-11.4v-48
	C395.4,377.706,390.3,372.6,384,372.6z M438,443.4h12c6.3,0,11.4-5.106,11.4-11.4v-48c0-6.294-5.106-11.4-11.4-11.4h-12
	c-6.3,0-11.4,5.106-11.4,11.4v48C426.6,438.294,431.7,443.4,438,443.4z M384,462.6h-12c-6.3,0-11.4,5.106-11.4,11.4v48
	c0,6.294,5.106,11.4,11.4,11.4h12c6.3,0,11.4-5.106,11.4-11.4v-48C395.4,467.706,390.3,462.6,384,462.6z M438,533.4h12
	c6.3,0,11.4-5.106,11.4-11.4v-48c0-6.294-5.106-11.4-11.4-11.4h-12c-6.3,0-11.4,5.106-11.4,11.4v48
	C426.6,528.294,431.7,533.4,438,533.4z M210,443.4h12c6.3,0,11.4-5.106,11.4-11.4v-48c0-6.294-5.106-11.4-11.4-11.4h-12
	c-6.3,0-11.4,5.106-11.4,11.4v48C198.6,438.294,203.7,443.4,210,443.4z M264,443.4h12c6.3,0,11.4-5.106,11.4-11.4v-48
	c0-6.294-5.106-11.4-11.4-11.4h-12c-6.3,0-11.4,5.106-11.4,11.4v48C252.6,438.294,257.7,443.4,264,443.4z M264,533.4h12
	c6.3,0,11.4-5.106,11.4-11.4v-48c0-6.294-5.106-11.4-11.4-11.4h-12c-6.3,0-11.4,5.106-11.4,11.4v48
	C252.6,528.294,257.7,533.4,264,533.4z M156,443.4h12c6.3,0,11.4-5.106,11.4-11.4v-48c0-6.294-5.106-11.4-11.4-11.4h-12
	c-6.3,0-11.4,5.106-11.4,11.4v48C144.6,438.294,149.7,443.4,156,443.4z M156,533.4h12c6.3,0,11.4-5.106,11.4-11.4v-48
	c0-6.294-5.106-11.4-11.4-11.4h-12c-6.3,0-11.4,5.106-11.4,11.4v48C144.6,528.294,149.7,533.4,156,533.4z"/>
</svg>
