<?xml version="1.0" encoding="utf-8"?>
<!-- Generator: Adobe Illustrator 16.0.0, SVG Export Plug-In . SVG Version: 6.00 Build 0)  -->
<!DOCTYPE svg PUBLIC "-//W3C//DTD SVG 1.1//EN" "http://www.w3.org/Graphics/SVG/1.1/DTD/svg11.dtd">
<svg version="1.1" id="Layer_1" xmlns="http://www.w3.org/2000/svg" xmlns:xlink="http://www.w3.org/1999/xlink" x="0px" y="0px"
	 width="406.8px" height="358.8px" viewBox="96.6 210.6 406.8 358.8" enable-background="new 96.6 210.6 406.8 358.8"
	 xml:space="preserve">
<polygon fill="#FFFFFF" stroke="#000000" stroke-miterlimit="10" points="247.5,223.5 247.5,274.5 189.5,274.5 106.5,390 
	106.5,561.5 489.5,555.5 489.5,384.5 403.5,271.5 289.5,276.5 286.5,223.5 "/>
<path d="M501.18,383.238l-84-114c-0.096-0.126-0.222-0.21-0.317-0.33c-0.444-0.552-0.925-1.056-1.458-1.512
	c-0.048-0.036-0.09-0.072-0.139-0.114c-1.979-1.65-4.487-2.682-7.266-2.682H299.4V222c0-6.294-5.106-11.4-11.4-11.4h-42
	c-6.294,0-11.4,5.106-11.4,11.4v42.6H192c-3.624,0-7.026,1.722-9.18,4.638l-84,114c-0.03,0.048-0.042,0.102-0.078,0.15
	c-0.612,0.852-1.08,1.787-1.44,2.789c-0.072,0.204-0.126,0.408-0.192,0.618c-0.3,1.026-0.51,2.082-0.51,3.204v168
	c0,6.294,5.106,11.4,11.4,11.4h210c1.044,0,2.04-0.187,3-0.45c0.96,0.264,1.956,0.45,3,0.45h168c6.294,0,11.4-5.106,11.4-11.4V390
	C503.4,387.564,502.62,385.193,501.18,383.238z M257.4,233.4h19.2v31.2h-19.2V233.4z M312.6,546.6h-81.335
	c1.332-1.865,2.136-4.134,2.136-6.6v-66c0-6.294-5.106-11.4-11.4-11.4h-12c-6.294,0-11.4,5.106-11.4,11.4v66
	c0,2.466,0.804,4.734,2.136,6.6H119.4V401.4h193.2V546.6z M324,348.6h-12c-6.294,0-11.4,5.106-11.4,11.4s5.106,11.4,11.4,11.4
	h11.544l-5.322,7.224c-0.078,0-0.144-0.024-0.222-0.024H130.56l27.414-37.199H162c6.294,0,11.4-5.106,11.4-11.4
	c0-2.479-0.81-4.752-2.148-6.624l8.826-11.981H186c6.294,0,11.4-5.106,11.4-11.4c0-3.042-1.212-5.79-3.15-7.836l3.51-4.758H246h42
	h97.44l-1.963,2.664c-1.632-0.906-3.479-1.464-5.478-1.464h-12c-6.294,0-11.4,5.106-11.4,11.4s5.106,11.4,11.4,11.4h1.752
	l-6.984,9.479c-1.896-1.416-4.224-2.28-6.768-2.28h-12c-6.294,0-11.4,5.106-11.4,11.4s5.106,11.4,11.4,11.4h3.648l-10.938,14.844
	C333.156,351.805,328.974,348.6,324,348.6z M480.6,546.6H335.4V393.75l72.6-98.532l72.6,98.526V546.6z M384,432.6h-12
	c-6.294,0-11.4,5.106-11.4,11.4v48c0,6.294,5.106,11.4,11.4,11.4h12c6.294,0,11.4-5.106,11.4-11.4v-48
	C395.4,437.706,390.294,432.6,384,432.6z M438,503.4h12c6.294,0,11.4-5.106,11.4-11.4v-48c0-6.294-5.106-11.4-11.4-11.4h-12
	c-6.294,0-11.4,5.106-11.4,11.4v48C426.6,498.294,431.706,503.4,438,503.4z M264,503.4h12c6.294,0,11.4-5.106,11.4-11.4v-48
	c0-6.294-5.106-11.4-11.4-11.4h-12c-6.294,0-11.4,5.106-11.4,11.4v48C252.6,498.294,257.706,503.4,264,503.4z M156,503.4h12
	c6.294,0,11.4-5.106,11.4-11.4v-48c0-6.294-5.106-11.4-11.4-11.4h-12c-6.294,0-11.4,5.106-11.4,11.4v48
	C144.6,498.294,149.706,503.4,156,503.4z M341.4,300c0-6.294-5.106-11.4-11.4-11.4h-12c-6.294,0-11.4,5.106-11.4,11.4
	s5.106,11.4,11.4,11.4h12C336.294,311.4,341.4,306.294,341.4,300z M270,311.4h12c6.294,0,11.4-5.106,11.4-11.4
	s-5.106-11.4-11.4-11.4h-12c-6.294,0-11.4,5.106-11.4,11.4S263.706,311.4,270,311.4z M222,311.4h12c6.294,0,11.4-5.106,11.4-11.4
	s-5.106-11.4-11.4-11.4h-12c-6.294,0-11.4,5.106-11.4,11.4S215.706,311.4,222,311.4z M221.4,330c0-6.294-5.106-11.4-11.4-11.4h-12
	c-6.294,0-11.4,5.106-11.4,11.4s5.106,11.4,11.4,11.4h12C216.294,341.4,221.4,336.294,221.4,330z M306,318.6h-12
	c-6.294,0-11.4,5.106-11.4,11.4s5.106,11.4,11.4,11.4h12c6.294,0,11.4-5.106,11.4-11.4S312.294,318.6,306,318.6z M269.4,330
	c0-6.294-5.106-11.4-11.4-11.4h-12c-6.294,0-11.4,5.106-11.4,11.4s5.106,11.4,11.4,11.4h12C264.294,341.4,269.4,336.294,269.4,330z
	 M180,348.6h-12c-6.294,0-11.4,5.106-11.4,11.4s5.106,11.4,11.4,11.4h12c6.294,0,11.4-5.106,11.4-11.4S186.294,348.6,180,348.6z
	 M276,348.6h-12c-6.294,0-11.4,5.106-11.4,11.4s5.106,11.4,11.4,11.4h12c6.294,0,11.4-5.106,11.4-11.4S282.294,348.6,276,348.6z
	 M228,348.6h-12c-6.294,0-11.4,5.106-11.4,11.4s5.106,11.4,11.4,11.4h12c6.294,0,11.4-5.106,11.4-11.4S234.294,348.6,228,348.6z"/>
</svg>
