<?xml version="1.0" encoding="utf-8"?>
<!-- Generator: Adobe Illustrator 16.0.0, SVG Export Plug-In . SVG Version: 6.00 Build 0)  -->
<!DOCTYPE svg PUBLIC "-//W3C//DTD SVG 1.1//EN" "http://www.w3.org/Graphics/SVG/1.1/DTD/svg11.dtd">
<svg version="1.1" id="Layer_1" xmlns="http://www.w3.org/2000/svg" xmlns:xlink="http://www.w3.org/1999/xlink" x="0px" y="0px"
	 width="520px" height="520px" viewBox="-56.6 -80.6 520 520" enable-background="new -56.6 -80.6 520 520" xml:space="preserve">
<polygon fill="#FFFFFF" stroke="#000000" stroke-miterlimit="10" points="142.4,92.5 142.4,124.5 96.4,129.5 10.4,199.5 10.4,430.5 
	390.4,430.5 390.4,196.5 306.4,128.5 194.4,130.5 194.4,92.5 "/>
<path d="M401.316,191.348l-84-72c-0.18-0.149-0.377-0.259-0.564-0.396c-0.264-0.205-0.52-0.396-0.803-0.576
	c-0.342-0.217-0.697-0.396-1.057-0.576c-0.271-0.133-0.533-0.271-0.816-0.385c-0.426-0.168-0.855-0.287-1.289-0.401
	c-0.252-0.065-0.484-0.149-0.744-0.198c-0.715-0.139-1.434-0.216-2.158-0.216H207.3V92c0-6.293-5.105-11.399-11.4-11.399h-54
	C135.607,80.6,130.5,85.707,130.5,92V116.6H93.9c-2.724,0-5.352,0.972-7.416,2.748l-84,72C-0.048,193.507-1.5,196.669-1.5,200v228
	c0,6.295,5.106,11.4,11.4,11.4h210c1.045,0,2.041-0.188,3-0.449c0.961,0.264,1.957,0.449,3,0.449h168c6.295,0,11.4-5.105,11.4-11.4
	V200C405.3,196.669,403.849,193.507,401.316,191.348z M203.316,142.652c1.098-0.941,1.945-2.059,2.592-3.252h19.176l-60.604,51.948
	c-1.099,0.942-1.945,2.06-2.593,3.252H142.71L203.316,142.652z M153.3,103.4h31.2v13.2h-31.2V103.4L153.3,103.4z M152.119,139.4
	h19.974l-64.403,55.2H87.714L152.119,139.4z M98.118,139.4h18.972l-60.606,51.948c-1.098,0.942-1.944,2.06-2.592,3.252H33.714
	L98.118,139.4z M214.5,416.599h-81.334c1.332-1.863,2.136-4.133,2.136-6.6v-66c0-6.293-5.106-11.4-11.399-11.4h-12
	c-6.294,0-11.4,5.107-11.4,11.4v66c0,2.467,0.804,4.734,2.136,6.6H21.3V217.4H214.5V416.599z M218.484,191.348
	c-1.074,0.918-1.902,2.041-2.561,3.252h-20.209l64.404-55.2h18.973L218.484,191.348z M382.5,416.599H237.3V205.244l72.6-62.231
	l72.6,62.231V416.599z M285.9,242.6h-12c-6.293,0-11.4,5.106-11.4,11.399v48c0,6.295,5.107,11.4,11.4,11.4h12
	c6.295,0,11.4-5.105,11.4-11.4v-48C297.3,247.707,292.195,242.6,285.9,242.6z M339.9,313.4h12c6.295,0,11.4-5.105,11.4-11.4v-48
	c0-6.293-5.105-11.399-11.4-11.399h-12c-6.293,0-11.4,5.106-11.4,11.399v48C328.5,308.294,333.607,313.4,339.9,313.4z
	 M285.9,332.599h-12c-6.293,0-11.4,5.107-11.4,11.4v48c0,6.295,5.107,11.4,11.4,11.4h12c6.295,0,11.4-5.105,11.4-11.4v-48
	C297.3,337.707,292.195,332.599,285.9,332.599z M339.9,403.4h12c6.295,0,11.4-5.105,11.4-11.4v-48c0-6.293-5.105-11.4-11.4-11.4h-12
	c-6.293,0-11.4,5.107-11.4,11.4v48C328.5,398.294,333.607,403.4,339.9,403.4z M111.9,313.4h12c6.295,0,11.4-5.105,11.4-11.4v-48
	c0-6.293-5.105-11.399-11.4-11.399h-12c-6.293,0-11.399,5.106-11.399,11.399v48C100.5,308.294,105.606,313.4,111.9,313.4z
	 M165.9,313.4h12c6.295,0,11.4-5.105,11.4-11.4v-48c0-6.293-5.105-11.399-11.4-11.399h-12c-6.293,0-11.399,5.106-11.399,11.399v48
	C154.5,308.294,159.607,313.4,165.9,313.4z M165.9,403.4h12c6.295,0,11.4-5.105,11.4-11.4v-48c0-6.293-5.105-11.4-11.4-11.4h-12
	c-6.293,0-11.399,5.107-11.399,11.4v48C154.5,398.294,159.607,403.4,165.9,403.4z M57.9,313.4h12c6.294,0,11.4-5.105,11.4-11.4v-48
	c0-6.293-5.106-11.399-11.4-11.399h-12c-6.294,0-11.4,5.106-11.4,11.399v48C46.5,308.294,51.606,313.4,57.9,313.4z M57.9,403.4h12
	c6.294,0,11.4-5.105,11.4-11.4v-48c0-6.293-5.106-11.4-11.4-11.4h-12c-6.294,0-11.4,5.107-11.4,11.4v48
	C46.5,398.294,51.606,403.4,57.9,403.4z"/>
</svg>
