<?xml version="1.0" encoding="utf-8"?>
<!-- Generator: Adobe Illustrator 16.0.0, SVG Export Plug-In . SVG Version: 6.00 Build 0)  -->
<!DOCTYPE svg PUBLIC "-//W3C//DTD SVG 1.1//EN" "http://www.w3.org/Graphics/SVG/1.1/DTD/svg11.dtd">
<svg version="1.1" id="Layer_1" xmlns="http://www.w3.org/2000/svg" xmlns:xlink="http://www.w3.org/1999/xlink" x="0px" y="0px"
	 width="520px" height="520px" viewBox="-56.6 -80.6 520 520" enable-background="new -56.6 -80.6 520 520" xml:space="preserve">
<polygon fill="#FFFFFF" stroke="#000000" stroke-miterlimit="10" points="143.9,43.9 143.9,11.9 194.9,11.9 194.9,50.9 309.9,50.9 
	390.9,119.9 390.9,345.9 12.9,345.9 12.9,123.9 95.9,49.9 "/>
<path d="M402.816,110.749l-84-72c-0.168-0.144-0.365-0.252-0.545-0.384c-0.271-0.211-0.541-0.408-0.828-0.594
	c-0.342-0.211-0.684-0.391-1.039-0.564c-0.275-0.133-0.545-0.276-0.84-0.391c-0.414-0.168-0.846-0.281-1.277-0.396
	c-0.252-0.065-0.492-0.149-0.75-0.198c-0.715-0.138-1.434-0.216-2.16-0.216H208.8V11.4C208.8,5.107,203.695,0,197.4,0h-54
	C137.101,0,132,5.107,132,11.4V36H95.4c-2.718,0-5.358,0.972-7.416,2.748l-84,72C1.458,112.908,0,116.07,0,119.4v228
	c0,6.295,5.106,11.4,11.4,11.4h210c1.045,0,2.041-0.188,3-0.449c0.961,0.264,1.957,0.449,3,0.449h168c6.301,0,11.4-5.105,11.4-11.4
	v-228C406.8,116.07,405.343,112.908,402.816,110.749z M154.8,22.8H186V36h-31.2V22.8L154.8,22.8z M216,336H134.67
	c1.332-1.863,2.13-4.133,2.13-6.6v-66c0-6.293-5.105-11.4-11.4-11.4h-12c-6.299,0-11.399,5.107-11.399,11.4v66
	c0,2.467,0.804,4.734,2.13,6.6H22.8V136.8H216V336z M384,336H238.8V124.644l72.6-62.231l72.6,62.231V336z M287.4,162h-12
	c-6.299,0-11.4,5.106-11.4,11.399v48c0,6.295,5.107,11.4,11.4,11.4h12c6.301,0,11.4-5.105,11.4-11.4v-48
	C298.8,167.107,293.701,162,287.4,162z M341.4,232.8h12c6.301,0,11.4-5.105,11.4-11.4v-48c0-6.293-5.105-11.399-11.4-11.399h-12
	c-6.299,0-11.4,5.106-11.4,11.399v48C330,227.695,335.101,232.8,341.4,232.8z M287.4,252h-12c-6.299,0-11.4,5.107-11.4,11.4v48
	c0,6.295,5.107,11.4,11.4,11.4h12c6.301,0,11.4-5.105,11.4-11.4v-48C298.8,257.107,293.701,252,287.4,252z M341.4,322.8h12
	c6.301,0,11.4-5.105,11.4-11.4v-48c0-6.293-5.105-11.4-11.4-11.4h-12c-6.299,0-11.4,5.107-11.4,11.4v48
	C330,317.695,335.101,322.8,341.4,322.8z M113.4,232.8h12c6.301,0,11.4-5.105,11.4-11.4v-48c0-6.293-5.105-11.399-11.4-11.399h-12
	C107.101,162,102,167.107,102,173.4v48C102,227.695,107.101,232.8,113.4,232.8z M167.4,232.8h12c6.301,0,11.4-5.105,11.4-11.4v-48
	c0-6.293-5.105-11.399-11.4-11.399h-12C161.101,162,156,167.107,156,173.4v48C156,227.695,161.101,232.8,167.4,232.8z M167.4,322.8
	h12c6.301,0,11.4-5.105,11.4-11.4v-48c0-6.293-5.105-11.4-11.4-11.4h-12c-6.299,0-11.399,5.107-11.399,11.4v48
	C156,317.695,161.101,322.8,167.4,322.8z M59.4,232.8h12c6.3,0,11.4-5.105,11.4-11.4v-48c0-6.293-5.106-11.399-11.4-11.399h-12
	c-6.3,0-11.4,5.106-11.4,11.399v48C48,227.695,53.101,232.8,59.4,232.8z M59.4,322.8h12c6.3,0,11.4-5.105,11.4-11.4v-48
	c0-6.293-5.106-11.4-11.4-11.4h-12c-6.3,0-11.4,5.107-11.4,11.4v48C48,317.695,53.101,322.8,59.4,322.8z"/>
</svg>
