<?xml version="1.0" encoding="utf-8"?>
<!-- Generator: Adobe Illustrator 16.0.0, SVG Export Plug-In . SVG Version: 6.00 Build 0)  -->
<!DOCTYPE svg PUBLIC "-//W3C//DTD SVG 1.1//EN" "http://www.w3.org/Graphics/SVG/1.1/DTD/svg11.dtd">
<svg version="1.1" id="Layer_1" xmlns="http://www.w3.org/2000/svg" xmlns:xlink="http://www.w3.org/1999/xlink" x="0px" y="0px"
	 width="520px" height="520px" viewBox="-56.951 -92.6 520 520" enable-background="new -56.951 -92.6 520 520"
	 xml:space="preserve">
<polygon fill="#FFFFFF" stroke="#000000" stroke-miterlimit="10" points="148.549,65.4 148.549,12.9 190.549,12.9 190.549,65.4 
	307.549,65.4 393.549,178.9 393.549,318.9 10.549,318.9 10.549,181.9 92.549,65.4 "/>
<path d="M404.229,172.638l-84-114c-0.096-0.126-0.223-0.21-0.316-0.33c-0.445-0.552-0.926-1.056-1.459-1.512
	c-0.047-0.036-0.09-0.072-0.139-0.113c-1.979-1.65-4.486-2.683-7.266-2.683h-108.6V11.4c0-6.293-5.107-11.399-11.4-11.399h-42
	c-6.295,0-11.4,5.106-11.4,11.399V54h-42.6c-3.624,0-7.026,1.722-9.18,4.638l-84,114c-0.03,0.049-0.042,0.102-0.078,0.15
	c-0.612,0.852-1.08,1.787-1.44,2.789c-0.072,0.203-0.126,0.408-0.192,0.617c-0.3,1.026-0.51,2.082-0.51,3.205v144
	c0,6.293,5.106,11.4,11.4,11.4h210c1.043,0,2.039-0.188,3-0.451c0.959,0.264,1.955,0.451,3,0.451h168c6.293,0,11.4-5.107,11.4-11.4
	v-144C406.45,176.964,405.668,174.593,404.229,172.638z M160.449,22.8h19.2V54h-19.2V22.8z M215.649,312h-193.2V190.8h193.2V312z
	 M227.049,138h-12c-6.295,0-11.4,5.106-11.4,11.399c0,6.295,5.105,11.4,11.4,11.4h11.543l-5.322,7.225
	c-0.078,0-0.143-0.024-0.221-0.024H33.609l27.414-37.199h4.026c6.294,0,11.4-5.106,11.4-11.399c0-2.479-0.81-4.752-2.148-6.625
	l8.826-11.98h5.922c6.294,0,11.4-5.105,11.4-11.4c0-3.041-1.212-5.789-3.15-7.836l3.51-4.758h48.241h42h97.439l-1.963,2.664
	c-1.633-0.906-3.479-1.465-5.479-1.465h-12c-6.293,0-11.4,5.105-11.4,11.4c0,6.293,5.107,11.399,11.4,11.399h1.752l-6.984,9.479
	c-1.895-1.416-4.223-2.28-6.768-2.28h-12c-6.293,0-11.4,5.106-11.4,11.399c0,6.295,5.107,11.4,11.4,11.4h3.648l-10.938,14.844
	C236.206,141.206,232.022,138,227.049,138z M383.649,312h-55.26c0.012-0.203,0.061-0.395,0.061-0.6v-66
	c0-6.293-5.105-11.4-11.4-11.4h-12c-6.293,0-11.4,5.107-11.4,11.4v66c0,0.205,0.051,0.396,0.062,0.6H238.45V183.15l72.6-98.531
	l72.6,98.525V312z M173.049,100.8h12c6.293,0,11.399-5.105,11.399-11.4c0-6.293-5.106-11.399-11.399-11.399h-12
	c-6.295,0-11.4,5.106-11.4,11.399C161.649,95.695,166.754,100.8,173.049,100.8z M244.45,89.4c0-6.293-5.107-11.399-11.4-11.399h-12
	c-6.295,0-11.4,5.106-11.4,11.399c0,6.295,5.105,11.4,11.4,11.4h12C239.342,100.8,244.45,95.695,244.45,89.4z M125.049,100.8h12
	c6.293,0,11.399-5.105,11.399-11.4c0-6.293-5.106-11.399-11.399-11.399h-12c-6.295,0-11.4,5.106-11.4,11.399
	C113.649,95.695,118.754,100.8,125.049,100.8z M209.049,108h-12c-6.295,0-11.4,5.106-11.4,11.399c0,6.295,5.105,11.4,11.4,11.4h12
	c6.293,0,11.4-5.105,11.4-11.4C220.45,113.107,215.342,108,209.049,108z M124.449,119.4c0-6.293-5.106-11.399-11.399-11.399h-12
	c-6.294,0-11.4,5.106-11.4,11.399c0,6.295,5.106,11.4,11.4,11.4h12C119.342,130.8,124.449,125.695,124.449,119.4z M172.449,119.4
	c0-6.293-5.106-11.399-11.399-11.399h-12c-6.295,0-11.4,5.106-11.4,11.399c0,6.295,5.105,11.4,11.4,11.4h12
	C167.342,130.8,172.449,125.695,172.449,119.4z M131.049,138h-12c-6.295,0-11.4,5.106-11.4,11.399c0,6.295,5.105,11.4,11.4,11.4h12
	c6.293,0,11.399-5.105,11.399-11.4C142.449,143.107,137.342,138,131.049,138z M83.049,138h-12c-6.294,0-11.4,5.106-11.4,11.399
	c0,6.295,5.106,11.4,11.4,11.4h12c6.294,0,11.4-5.105,11.4-11.4C94.449,143.107,89.343,138,83.049,138z M179.049,138h-12
	c-6.295,0-11.4,5.106-11.4,11.399c0,6.295,5.105,11.4,11.4,11.4h12c6.293,0,11.399-5.105,11.399-11.4
	C190.449,143.107,185.342,138,179.049,138z M53.049,286.8h48c6.293,0,11.4-5.105,11.4-11.4v-48c0-6.293-5.106-11.4-11.4-11.4h-48
	c-6.294,0-11.4,5.107-11.4,11.4v48C41.649,281.695,46.755,286.8,53.049,286.8z M137.049,286.8h48c6.293,0,11.399-5.105,11.399-11.4
	v-48c0-6.293-5.106-11.4-11.399-11.4h-48c-6.295,0-11.4,5.107-11.4,11.4v48C125.649,281.695,130.754,286.8,137.049,286.8z"/>
</svg>
