<?xml version="1.0" encoding="utf-8"?>
<!-- Generator: Adobe Illustrator 16.0.0, SVG Export Plug-In . SVG Version: 6.00 Build 0)  -->
<!DOCTYPE svg PUBLIC "-//W3C//DTD SVG 1.1//EN" "http://www.w3.org/Graphics/SVG/1.1/DTD/svg11.dtd">
<svg version="1.1" id="Layer_1" xmlns="http://www.w3.org/2000/svg" xmlns:xlink="http://www.w3.org/1999/xlink" x="0px" y="0px"
	 width="520px" height="520px" viewBox="0 0 520 520" enable-background="new 0 0 520 520" xml:space="preserve">
<polygon fill="#FFFFFF" stroke="#000000" stroke-miterlimit="10" points="204.5,250.6 204.5,198.1 248.5,198.1 248.5,250.6 
	367.5,250.6 450.5,361.1 450.5,504.101 68.5,504.101 68.5,362.1 153.5,250.6 "/>
<path d="M461.18,357.838l-84-114c-0.096-0.126-0.221-0.21-0.316-0.33c-0.442-0.552-0.924-1.056-1.457-1.512
	c-0.049-0.036-0.09-0.072-0.141-0.113c-1.979-1.65-4.487-2.683-7.266-2.683H259.399v-42.6c0-6.293-5.105-11.4-11.4-11.4h-42
	c-6.293,0-11.4,5.107-11.4,11.4v42.6H152c-3.624,0-7.026,1.722-9.18,4.638l-84,114c-0.03,0.049-0.042,0.103-0.078,0.15
	c-0.612,0.852-1.08,1.787-1.44,2.789c-0.072,0.203-0.126,0.408-0.192,0.617c-0.3,1.027-0.51,2.082-0.51,3.205v144.001
	C56.6,514.894,61.706,520,68,520h210c1.045,0,2.041-0.188,3-0.45c0.961,0.264,1.957,0.45,3,0.45h168
	c6.295,0,11.399-5.106,11.399-11.399V364.6C463.399,362.164,462.621,359.793,461.18,357.838z M265.76,262h25.674l-67.2,91.2H198.56
	L265.76,262z M217.399,208h19.2v31.2h-19.2V208z M211.76,262h25.675l-67.201,91.2H144.56L211.76,262z M157.76,262h25.68
	l-67.199,91.2H90.56L157.76,262z M272.6,497.2h-193.2V376h193.2V497.2z M278.223,353.225c-0.078,0-0.145-0.023-0.223-0.023h-25.44
	l67.199-91.199h25.674L278.223,353.225z M440.6,497.2h-55.26c0.012-0.203,0.062-0.395,0.062-0.6V430.6
	c0-6.293-5.106-11.399-11.399-11.399h-12c-6.295,0-11.4,5.106-11.4,11.399v66.001c0,0.205,0.049,0.396,0.061,0.6h-55.263V368.35
	L368,269.819l72.6,98.524V497.2z M110,472h36c6.294,0,11.4-5.104,11.4-11.399V412.6c0-6.293-5.106-11.399-11.4-11.399h-36
	c-6.294,0-11.4,5.106-11.4,11.399v48.001C98.6,466.896,103.706,472,110,472z M206,472h36c6.295,0,11.4-5.104,11.4-11.399V412.6
	c0-6.293-5.105-11.399-11.4-11.399h-36c-6.293,0-11.399,5.106-11.399,11.399v48.001C194.6,466.896,199.707,472,206,472z"/>
</svg>
