<?xml version="1.0" encoding="utf-8"?>
<!-- Generator: Adobe Illustrator 16.0.0, SVG Export Plug-In . SVG Version: 6.00 Build 0)  -->
<!DOCTYPE svg PUBLIC "-//W3C//DTD SVG 1.1//EN" "http://www.w3.org/Graphics/SVG/1.1/DTD/svg11.dtd">
<svg version="1.1" id="Layer_1" xmlns="http://www.w3.org/2000/svg" xmlns:xlink="http://www.w3.org/1999/xlink" x="0px" y="0px"
	 width="406.099px" height="334.8px" viewBox="97.302 234.6 406.099 334.8" enable-background="new 97.302 234.6 406.099 334.8"
	 xml:space="preserve">
<polygon fill="#FFFFFF" stroke="#000000" stroke-miterlimit="10" points="245.5,300 245.5,247.5 287.5,247.5 287.5,300 404.5,300 
	490.5,413.5 490.5,553.5 107.5,553.5 107.5,416.5 189.5,300 "/>
<path d="M501.18,407.238l-84-114c-0.096-0.126-0.222-0.21-0.317-0.33c-0.444-0.552-0.925-1.056-1.458-1.512
	c-0.048-0.036-0.09-0.072-0.139-0.114c-1.979-1.65-4.487-2.682-7.266-2.682H299.4V246c0-6.294-5.106-11.4-11.4-11.4h-42
	c-6.294,0-11.4,5.106-11.4,11.4v42.6H192c-3.624,0-7.026,1.722-9.18,4.638l-84,114c-0.03,0.048-0.042,0.102-0.078,0.15
	c-0.612,0.852-1.08,1.787-1.44,2.789c-0.072,0.204-0.126,0.408-0.192,0.618c-0.3,1.026-0.51,2.082-0.51,3.204v144
	c0,6.294,5.106,11.4,11.4,11.4h210c1.044,0,2.04-0.187,3-0.45c0.96,0.264,1.956,0.45,3,0.45h168c6.294,0,11.4-5.106,11.4-11.4V414
	C503.4,411.564,502.62,409.193,501.18,407.238z M257.4,257.4h19.2v31.2h-19.2V257.4z M312.6,546.6H119.4V425.4h193.2V546.6z
	 M324,372.6h-12c-6.294,0-11.4,5.106-11.4,11.4s5.106,11.4,11.4,11.4h11.544l-5.322,7.224c-0.078,0-0.144-0.024-0.222-0.024H130.56
	l27.414-37.199H162c6.294,0,11.4-5.106,11.4-11.4c0-2.479-0.81-4.752-2.148-6.624l8.826-11.981H186c6.294,0,11.4-5.106,11.4-11.4
	c0-3.042-1.212-5.79-3.15-7.836l3.51-4.758H246h42h97.44l-1.963,2.664c-1.632-0.906-3.479-1.465-5.478-1.465h-12
	c-6.294,0-11.4,5.106-11.4,11.4s5.106,11.4,11.4,11.4h1.752l-6.984,9.479c-1.896-1.416-4.224-2.28-6.768-2.28h-12
	c-6.294,0-11.4,5.106-11.4,11.4s5.106,11.4,11.4,11.4h3.648l-10.938,14.844C333.156,375.805,328.974,372.6,324,372.6z M480.6,546.6
	h-55.26c0.012-0.203,0.061-0.396,0.061-0.6v-66c0-6.294-5.106-11.4-11.4-11.4h-12c-6.294,0-11.4,5.106-11.4,11.4v66
	c0,0.204,0.049,0.396,0.061,0.6H335.4V417.75l72.6-98.532l72.6,98.526V546.6z M270,335.4h12c6.294,0,11.4-5.106,11.4-11.4
	s-5.106-11.4-11.4-11.4h-12c-6.294,0-11.4,5.106-11.4,11.4S263.706,335.4,270,335.4z M341.4,324c0-6.294-5.106-11.4-11.4-11.4h-12
	c-6.294,0-11.4,5.106-11.4,11.4s5.106,11.4,11.4,11.4h12C336.294,335.4,341.4,330.294,341.4,324z M222,335.4h12
	c6.294,0,11.4-5.106,11.4-11.4s-5.106-11.4-11.4-11.4h-12c-6.294,0-11.4,5.106-11.4,11.4S215.706,335.4,222,335.4z M306,342.6h-12
	c-6.294,0-11.4,5.106-11.4,11.4s5.106,11.4,11.4,11.4h12c6.294,0,11.4-5.106,11.4-11.4S312.294,342.6,306,342.6z M221.4,354
	c0-6.294-5.106-11.4-11.4-11.4h-12c-6.294,0-11.4,5.106-11.4,11.4s5.106,11.4,11.4,11.4h12C216.294,365.4,221.4,360.294,221.4,354z
	 M269.4,354c0-6.294-5.106-11.4-11.4-11.4h-12c-6.294,0-11.4,5.106-11.4,11.4s5.106,11.4,11.4,11.4h12
	C264.294,365.4,269.4,360.294,269.4,354z M228,372.6h-12c-6.294,0-11.4,5.106-11.4,11.4s5.106,11.4,11.4,11.4h12
	c6.294,0,11.4-5.106,11.4-11.4S234.294,372.6,228,372.6z M180,372.6h-12c-6.294,0-11.4,5.106-11.4,11.4s5.106,11.4,11.4,11.4h12
	c6.294,0,11.4-5.106,11.4-11.4S186.294,372.6,180,372.6z M276,372.6h-12c-6.294,0-11.4,5.106-11.4,11.4s5.106,11.4,11.4,11.4h12
	c6.294,0,11.4-5.106,11.4-11.4S282.294,372.6,276,372.6z M150,521.4h48c6.294,0,11.4-5.106,11.4-11.4v-48
	c0-6.294-5.106-11.4-11.4-11.4h-48c-6.294,0-11.4,5.106-11.4,11.4v48C138.6,516.294,143.706,521.4,150,521.4z M234,521.4h48
	c6.294,0,11.4-5.106,11.4-11.4v-48c0-6.294-5.106-11.4-11.4-11.4h-48c-6.294,0-11.4,5.106-11.4,11.4v48
	C222.6,516.294,227.706,521.4,234,521.4z"/>
</svg>
