<?xml version="1.0" encoding="utf-8"?>
<!-- Generator: Adobe Illustrator 16.0.0, SVG Export Plug-In . SVG Version: 6.00 Build 0)  -->
<!DOCTYPE svg PUBLIC "-//W3C//DTD SVG 1.1//EN" "http://www.w3.org/Graphics/SVG/1.1/DTD/svg11.dtd">
<svg version="1.1" id="Layer_1" xmlns="http://www.w3.org/2000/svg" xmlns:xlink="http://www.w3.org/1999/xlink" x="0px" y="0px"
	 width="406.8px" height="448.8px" viewBox="96.6 120.6 406.8 448.8" enable-background="new 96.6 120.6 406.8 448.8"
	 xml:space="preserve">
<polygon fill="#FFFFFF" stroke="#000000" stroke-miterlimit="10" points="244.5,168.5 244.5,134.5 300,134.5 300,168.5 408.5,168.5 
	490.5,280.5 490.5,555.5 107.5,555.5 107.5,282.5 189.5,169.5 "/>
<path d="M501.174,275.238l-84-114c-0.084-0.114-0.198-0.187-0.282-0.294c-0.456-0.564-0.953-1.086-1.5-1.554
	c-0.042-0.036-0.084-0.066-0.126-0.102c-1.968-1.656-4.487-2.688-7.266-2.688h-96.6V132c0-6.294-5.106-11.4-11.4-11.4h-54
	c-6.3,0-11.4,5.106-11.4,11.4v24.6H192c-3.624,0-7.032,1.722-9.174,4.638l-84,114c-0.03,0.042-0.042,0.09-0.072,0.132
	c-0.618,0.858-1.092,1.806-1.452,2.814c-0.072,0.204-0.126,0.402-0.186,0.606c-0.306,1.026-0.516,2.088-0.516,3.21v276
	c0,6.294,5.106,11.4,11.4,11.4h210c1.044,0,2.04-0.187,3-0.45c0.96,0.264,1.956,0.45,3,0.45h168c6.3,0,11.4-5.106,11.4-11.4V282
	C503.4,279.564,502.626,277.194,501.174,275.238z M257.4,143.4h31.2v13.2h-31.2V143.4z M312.6,546.6h-81.33
	c1.332-1.865,2.13-4.134,2.13-6.6v-66c0-6.294-5.106-11.4-11.4-11.4h-12c-6.3,0-11.4,5.106-11.4,11.4v66
	c0,2.466,0.804,4.734,2.13,6.6H119.4V293.4h193.2V546.6z M480.6,546.6H335.4V285.75l72.6-98.532l72.6,98.526V546.6z M384,324.6h-12
	c-6.3,0-11.4,5.106-11.4,11.4v48c0,6.294,5.106,11.4,11.4,11.4h12c6.3,0,11.4-5.106,11.4-11.4v-48
	C395.4,329.706,390.3,324.6,384,324.6z M438,395.4h12c6.3,0,11.4-5.106,11.4-11.4v-48c0-6.294-5.106-11.4-11.4-11.4h-12
	c-6.3,0-11.4,5.106-11.4,11.4v48C426.6,390.294,431.7,395.4,438,395.4z M384,432.6h-12c-6.3,0-11.4,5.106-11.4,11.4v48
	c0,6.294,5.106,11.4,11.4,11.4h12c6.3,0,11.4-5.106,11.4-11.4v-48C395.4,437.706,390.3,432.6,384,432.6z M438,503.4h12
	c6.3,0,11.4-5.106,11.4-11.4v-48c0-6.294-5.106-11.4-11.4-11.4h-12c-6.3,0-11.4,5.106-11.4,11.4v48
	C426.6,498.294,431.7,503.4,438,503.4z M210,395.4h12c6.3,0,11.4-5.106,11.4-11.4v-48c0-6.294-5.106-11.4-11.4-11.4h-12
	c-6.3,0-11.4,5.106-11.4,11.4v48C198.6,390.294,203.7,395.4,210,395.4z M264,395.4h12c6.3,0,11.4-5.106,11.4-11.4v-48
	c0-6.294-5.106-11.4-11.4-11.4h-12c-6.3,0-11.4,5.106-11.4,11.4v48C252.6,390.294,257.7,395.4,264,395.4z M264,503.4h12
	c6.3,0,11.4-5.106,11.4-11.4v-48c0-6.294-5.106-11.4-11.4-11.4h-12c-6.3,0-11.4,5.106-11.4,11.4v48
	C252.6,498.294,257.7,503.4,264,503.4z M156,395.4h12c6.3,0,11.4-5.106,11.4-11.4v-48c0-6.294-5.106-11.4-11.4-11.4h-12
	c-6.3,0-11.4,5.106-11.4,11.4v48C144.6,390.294,149.7,395.4,156,395.4z M156,503.4h12c6.3,0,11.4-5.106,11.4-11.4v-48
	c0-6.294-5.106-11.4-11.4-11.4h-12c-6.3,0-11.4,5.106-11.4,11.4v48C144.6,498.294,149.7,503.4,156,503.4z"/>
</svg>
