<?xml version="1.0" encoding="utf-8"?>
<!-- Generator: Adobe Illustrator 16.0.0, SVG Export Plug-In . SVG Version: 6.00 Build 0)  -->
<!DOCTYPE svg PUBLIC "-//W3C//DTD SVG 1.1//EN" "http://www.w3.org/Graphics/SVG/1.1/DTD/svg11.dtd">
<svg version="1.1" id="Layer_1" xmlns="http://www.w3.org/2000/svg" xmlns:xlink="http://www.w3.org/1999/xlink" x="0px" y="0px"
	 width="406.8px" height="334.8px" viewBox="96.6 234.6 406.8 334.8" enable-background="new 96.6 234.6 406.8 334.8"
	 xml:space="preserve">
<polygon fill="#FFFFFF" points="244.5,300 244.5,245.5 286.5,245.5 286.5,300 406.5,300 490.5,411.5 490.5,554.5 108.5,554.5 
	108.5,413.5 "/>
<path d="M501.18,407.238l-84-114c-0.096-0.126-0.222-0.21-0.317-0.33c-0.444-0.552-0.925-1.056-1.458-1.512
	c-0.048-0.036-0.09-0.072-0.139-0.114c-1.979-1.65-4.487-2.682-7.266-2.682H299.4V246c0-6.294-5.106-11.4-11.4-11.4h-42
	c-6.294,0-11.4,5.106-11.4,11.4v42.6H192c-3.624,0-7.026,1.722-9.18,4.638l-84,114c-0.03,0.048-0.042,0.102-0.078,0.15
	c-0.612,0.852-1.08,1.787-1.44,2.789c-0.072,0.204-0.126,0.408-0.192,0.618c-0.3,1.026-0.51,2.082-0.51,3.204v144
	c0,6.294,5.106,11.4,11.4,11.4h210c1.044,0,2.04-0.187,3-0.45c0.96,0.264,1.956,0.45,3,0.45h168c6.294,0,11.4-5.106,11.4-11.4V414
	C503.4,411.564,502.62,409.193,501.18,407.238z M257.4,257.4h19.2v31.2h-19.2V257.4z M312.6,546.6H119.4V425.4h193.2V546.6z
	 M480.6,546.6h-55.26c0.012-0.203,0.061-0.396,0.061-0.6v-66c0-6.294-5.106-11.4-11.4-11.4h-12c-6.294,0-11.4,5.106-11.4,11.4v66
	c0,0.204,0.049,0.396,0.061,0.6H335.4V417.75l72.6-98.532l72.6,98.526V546.6z M150,521.4h48c6.294,0,11.4-5.106,11.4-11.4v-48
	c0-6.294-5.106-11.4-11.4-11.4h-48c-6.294,0-11.4,5.106-11.4,11.4v48C138.6,516.294,143.706,521.4,150,521.4z M234,521.4h48
	c6.294,0,11.4-5.106,11.4-11.4v-48c0-6.294-5.106-11.4-11.4-11.4h-48c-6.294,0-11.4,5.106-11.4,11.4v48
	C222.6,516.294,227.706,521.4,234,521.4z"/>
</svg>
