<?xml version="1.0" encoding="utf-8"?>
<!-- Generator: Adobe Illustrator 16.0.0, SVG Export Plug-In . SVG Version: 6.00 Build 0)  -->
<!DOCTYPE svg PUBLIC "-//W3C//DTD SVG 1.1//EN" "http://www.w3.org/Graphics/SVG/1.1/DTD/svg11.dtd">
<svg version="1.1" id="Layer_1" xmlns="http://www.w3.org/2000/svg" xmlns:xlink="http://www.w3.org/1999/xlink" x="0px" y="0px"
	 width="520px" height="520px" viewBox="0 0 520 520" enable-background="new 0 0 520 520" xml:space="preserve">
<polygon fill="#FFFFFF" stroke="#000000" stroke-miterlimit="10" points="198.5,54.8 198.5,21.8 251.5,21.8 251.5,54.8 364.5,54.8 
	450.5,133.8 450.5,504.801 68.5,504.801 68.5,133.8 150.5,59.8 "/>
<path d="M459.416,121.649l-84-72c-0.181-0.15-0.377-0.258-0.564-0.396c-0.264-0.204-0.52-0.396-0.803-0.576
	c-0.342-0.216-0.697-0.396-1.058-0.576c-0.271-0.132-0.532-0.27-0.815-0.384c-0.426-0.168-0.855-0.288-1.289-0.402
	c-0.252-0.066-0.484-0.15-0.744-0.198c-0.715-0.138-1.434-0.216-2.158-0.216H265.399V22.3c0-6.294-5.105-11.4-11.4-11.4h-54
	c-6.293,0-11.4,5.106-11.4,11.4v24.6H152c-2.724,0-5.352,0.972-7.416,2.748l-84,72c-2.532,2.16-3.984,5.322-3.984,8.652v378
	c0,6.295,5.106,11.399,11.4,11.399h210c1.045,0,2.041-0.188,3-0.449c0.961,0.265,1.957,0.449,3,0.449h168
	c6.295,0,11.399-5.104,11.399-11.399v-378C463.399,126.97,461.948,123.809,459.416,121.649z M261.416,72.952
	c1.098-0.942,1.945-2.058,2.592-3.252h19.176l-60.604,51.948c-1.099,0.942-1.945,2.058-2.593,3.252H200.81L261.416,72.952z
	 M211.399,33.7h31.2v13.2h-31.2V33.7L211.399,33.7z M210.219,69.7h19.974l-64.404,55.2h-19.975L210.219,69.7z M156.218,69.7h18.972
	l-60.606,51.948c-1.098,0.942-1.944,2.058-2.592,3.252H91.813L156.218,69.7z M272.6,496.9h-81.334
	c1.332-1.863,2.136-4.133,2.136-6.6v-66c0-6.293-5.106-11.4-11.399-11.4h-12c-6.294,0-11.4,5.107-11.4,11.4v66
	c0,2.467,0.804,4.733,2.136,6.6H79.399V147.7h193.2V496.9z M276.584,121.649c-1.074,0.918-1.902,2.04-2.562,3.252h-20.209
	l64.404-55.2h18.973L276.584,121.649z M440.6,496.9h-145.2V135.545L368,73.313l72.6,62.232V496.9z M344,166.9h-12
	c-6.293,0-11.4,5.106-11.4,11.4v48c0,6.295,5.107,11.4,11.4,11.4h12c6.295,0,11.399-5.105,11.399-11.4v-48
	C355.399,172.006,350.295,166.9,344,166.9z M398,237.7h12c6.295,0,11.399-5.105,11.399-11.4v-48c0-6.294-5.104-11.4-11.399-11.4h-12
	c-6.293,0-11.4,5.106-11.4,11.4v48C386.6,232.595,391.707,237.7,398,237.7z M344,274.9h-12c-6.293,0-11.4,5.105-11.4,11.398v48
	c0,6.295,5.107,11.4,11.4,11.4h12c6.295,0,11.399-5.105,11.399-11.4v-48C355.399,280.008,350.295,274.9,344,274.9z M398,345.7h12
	c6.295,0,11.399-5.104,11.399-11.399v-48c0-6.293-5.104-11.399-11.399-11.399h-12c-6.293,0-11.4,5.106-11.4,11.399v48
	C386.6,340.596,391.707,345.7,398,345.7z M344,382.9h-12c-6.293,0-11.4,5.107-11.4,11.4v48c0,6.295,5.107,11.399,11.4,11.399h12
	c6.295,0,11.399-5.104,11.399-11.399v-48C355.399,388.008,350.295,382.9,344,382.9z M398,453.7h12
	c6.295,0,11.399-5.104,11.399-11.399v-48c0-6.293-5.104-11.4-11.399-11.4h-12c-6.293,0-11.4,5.107-11.4,11.4v48
	C386.6,448.596,391.707,453.7,398,453.7z M170,237.7h12c6.295,0,11.4-5.105,11.4-11.4v-48c0-6.294-5.105-11.4-11.4-11.4h-12
	c-6.293,0-11.399,5.106-11.399,11.4v48C158.6,232.595,163.706,237.7,170,237.7z M224,237.7h12c6.295,0,11.4-5.105,11.4-11.4v-48
	c0-6.294-5.105-11.4-11.4-11.4h-12c-6.293,0-11.399,5.106-11.399,11.4v48C212.6,232.595,217.707,237.7,224,237.7z M170,345.7h12
	c6.295,0,11.4-5.104,11.4-11.399v-48c0-6.293-5.105-11.399-11.4-11.399h-12c-6.294-0.001-11.4,5.106-11.4,11.399v48
	C158.6,340.596,163.706,345.7,170,345.7z M224,345.7h12c6.295,0,11.4-5.104,11.4-11.399v-48c0-6.293-5.105-11.399-11.4-11.399h-12
	c-6.293-0.001-11.4,5.106-11.4,11.399v48C212.6,340.596,217.707,345.7,224,345.7z M224,453.7h12c6.295,0,11.4-5.104,11.4-11.399v-48
	c0-6.293-5.105-11.4-11.4-11.4h-12c-6.293,0-11.399,5.107-11.399,11.4v48C212.6,448.596,217.707,453.7,224,453.7z M116,237.7h12
	c6.294,0,11.4-5.105,11.4-11.4v-48c0-6.294-5.106-11.4-11.4-11.4h-12c-6.294,0-11.4,5.106-11.4,11.4v48
	C104.6,232.595,109.706,237.7,116,237.7z M116,345.7h12c6.294,0,11.4-5.104,11.4-11.399v-48c0-6.293-5.106-11.399-11.4-11.399h-12
	c-6.294-0.001-11.4,5.106-11.4,11.399v48C104.6,340.596,109.706,345.7,116,345.7z M116,453.7h12c6.294,0,11.4-5.104,11.4-11.399v-48
	c0-6.293-5.106-11.4-11.4-11.4h-12c-6.294,0-11.4,5.107-11.4,11.4v48C104.6,448.596,109.706,453.7,116,453.7z"/>
</svg>
