<?xml version="1.0" encoding="utf-8"?>
<!-- Generator: Adobe Illustrator 16.0.0, SVG Export Plug-In . SVG Version: 6.00 Build 0)  -->
<!DOCTYPE svg PUBLIC "-//W3C//DTD SVG 1.1//EN" "http://www.w3.org/Graphics/SVG/1.1/DTD/svg11.dtd">
<svg version="1.1" id="Layer_1" xmlns="http://www.w3.org/2000/svg" xmlns:xlink="http://www.w3.org/1999/xlink" x="0px" y="0px"
	 width="520px" height="520px" viewBox="0 0 520 520" enable-background="new 0 0 520 520" xml:space="preserve">
<polygon fill="#FFFFFF" stroke="#000000" stroke-miterlimit="10" points="207.5,174.1 246.5,174.1 246.5,235.1 367.5,235.1 
	450.5,340.6 450.5,504.101 66.5,504.101 66.5,340.6 203.5,234.1 "/>
<path d="M116,454h12c6.294,0,11.4-5.104,11.4-11.399V394.6c0-6.293-5.106-11.399-11.4-11.399h-12c-6.294,0-11.4,5.106-11.4,11.399
	v48.001C104.6,448.896,109.706,454,116,454z M224,454h12c6.295,0,11.4-5.104,11.4-11.399V394.6c0-6.293-5.105-11.399-11.4-11.399
	h-12c-6.293,0-11.399,5.106-11.399,11.399v48.001C212.6,448.896,217.707,454,224,454z M344,383.2h-12
	c-6.293,0-11.4,5.106-11.4,11.399v48.001c0,6.295,5.107,11.399,11.4,11.399h12c6.295,0,11.399-5.104,11.399-11.399V394.6
	C355.399,388.307,350.295,383.2,344,383.2z M398,454h12c6.295,0,11.399-5.104,11.399-11.399V394.6
	c0-6.293-5.104-11.399-11.399-11.399h-12c-6.293,0-11.4,5.106-11.4,11.399v48.001C386.6,448.896,391.707,454,398,454z
	 M461.18,333.838l-84-114c-0.096-0.126-0.221-0.21-0.316-0.33c-0.442-0.552-0.924-1.056-1.457-1.512
	c-0.049-0.036-0.09-0.072-0.141-0.113c-1.979-1.65-4.487-2.683-7.266-2.683H259.399v-42.6c0-6.293-5.105-11.4-11.4-11.4h-42
	c-6.293,0-11.4,5.107-11.4,11.4v42.6H152c-3.624,0-7.026,1.722-9.18,4.638l-84,114c-0.03,0.049-0.042,0.103-0.078,0.15
	c-0.612,0.852-1.08,1.787-1.44,2.789c-0.072,0.203-0.126,0.408-0.192,0.617c-0.3,1.027-0.51,2.082-0.51,3.205v168.001
	C56.6,514.894,61.706,520,68,520h210c1.045,0,2.041-0.188,3-0.45c0.961,0.264,1.957,0.45,3,0.45h168
	c6.295,0,11.399-5.106,11.399-11.399V340.6C463.399,338.164,462.621,335.793,461.18,333.838z M217.399,184h19.2v31.2h-19.2V184z
	 M272.6,497.2h-81.334c1.332-1.863,2.136-4.133,2.136-6.6v-66c0-6.294-5.106-11.4-11.399-11.4h-12c-6.294,0-11.4,5.106-11.4,11.4v66
	c0,2.467,0.804,4.733,2.136,6.6H79.399V352h193.2V497.2z M440.6,497.2h-145.2V344.35L368,245.819l72.6,98.524V497.2z"/>
</svg>
