<?xml version="1.0" encoding="utf-8"?>
<!-- Generator: Adobe Illustrator 16.0.0, SVG Export Plug-In . SVG Version: 6.00 Build 0)  -->
<!DOCTYPE svg PUBLIC "-//W3C//DTD SVG 1.1//EN" "http://www.w3.org/Graphics/SVG/1.1/DTD/svg11.dtd">
<svg version="1.1" id="Layer_1" xmlns="http://www.w3.org/2000/svg" xmlns:xlink="http://www.w3.org/1999/xlink" x="0px" y="0px"
	 width="520px" height="520px" viewBox="0 0 520 520" enable-background="new 0 0 520 520" xml:space="preserve">
<polygon fill="#FFFFFF" stroke="#000000" stroke-miterlimit="10" points="207.5,174.1 207.5,225.1 149.5,225.1 66.5,340.6 
	66.5,512.101 449.5,506.101 449.5,335.1 363.5,222.1 249.5,227.1 246.5,174.1 "/>
<path d="M461.18,333.838l-84-114c-0.096-0.126-0.221-0.21-0.316-0.33c-0.442-0.552-0.924-1.056-1.457-1.512
	c-0.049-0.036-0.09-0.072-0.141-0.113c-1.979-1.65-4.487-2.683-7.266-2.683H259.399v-42.6c0-6.293-5.105-11.4-11.4-11.4h-42
	c-6.293,0-11.4,5.107-11.4,11.4v42.6H152c-3.624,0-7.026,1.722-9.18,4.638l-84,114c-0.03,0.049-0.042,0.103-0.078,0.15
	c-0.612,0.852-1.08,1.787-1.44,2.789c-0.072,0.203-0.126,0.408-0.192,0.617c-0.3,1.027-0.51,2.082-0.51,3.205v168.001
	C56.6,514.894,61.706,520,68,520h210c1.045,0,2.041-0.188,3-0.45c0.961,0.264,1.957,0.45,3,0.45h168
	c6.295,0,11.399-5.106,11.399-11.399V340.6C463.399,338.164,462.621,335.793,461.18,333.838z M217.399,184h19.2v31.2h-19.2V184z
	 M272.6,497.2h-81.334c1.332-1.863,2.136-4.133,2.136-6.6v-66c0-6.294-5.106-11.4-11.399-11.4h-12c-6.294,0-11.4,5.106-11.4,11.4v66
	c0,2.467,0.804,4.733,2.136,6.6H79.399V352h193.2V497.2z M284,299.2h-12c-6.293,0-11.4,5.106-11.4,11.399
	c0,6.295,5.107,11.399,11.4,11.399h11.545l-5.322,7.226c-0.078,0-0.145-0.024-0.223-0.024H90.56l27.414-37.199H122
	c6.294,0,11.4-5.106,11.4-11.399c0-2.479-0.81-4.752-2.148-6.625l8.826-11.979H146c6.294,0,11.4-5.105,11.4-11.4
	c0-3.041-1.212-5.789-3.15-7.836l3.51-4.758H206h42h97.441l-1.965,2.664c-1.631-0.906-3.479-1.464-5.478-1.464h-12
	c-6.295,0-11.399,5.106-11.399,11.399c0,6.295,5.104,11.4,11.399,11.4h1.752l-6.983,9.479c-1.896-1.416-4.226-2.279-6.769-2.279h-12
	c-6.295,0-11.399,5.104-11.399,11.399c0,6.293,5.104,11.399,11.399,11.399h3.648l-10.939,14.845
	C293.156,302.406,288.975,299.2,284,299.2z M440.6,497.2h-145.2V344.35L368,245.819l72.6,98.524V497.2z M344,383.2h-12
	c-6.293,0-11.4,5.106-11.4,11.399v48.001c0,6.295,5.107,11.399,11.4,11.399h12c6.295,0,11.399-5.104,11.399-11.399V394.6
	C355.399,388.307,350.295,383.2,344,383.2z M398,454h12c6.295,0,11.399-5.104,11.399-11.399V394.6
	c0-6.293-5.104-11.399-11.399-11.399h-12c-6.293,0-11.4,5.106-11.4,11.399v48.001C386.6,448.896,391.707,454,398,454z M224,454h12
	c6.295,0,11.4-5.104,11.4-11.399V394.6c0-6.293-5.105-11.399-11.4-11.399h-12c-6.293,0-11.399,5.106-11.399,11.399v48.001
	C212.6,448.896,217.707,454,224,454z M116,454h12c6.294,0,11.4-5.104,11.4-11.399V394.6c0-6.293-5.106-11.399-11.4-11.399h-12
	c-6.294,0-11.4,5.106-11.4,11.399v48.001C104.6,448.896,109.706,454,116,454z M301.399,250.6c0-6.293-5.104-11.399-11.399-11.399
	h-12c-6.293-0.001-11.4,5.106-11.4,11.399c0,6.295,5.107,11.4,11.4,11.4h12C296.295,262,301.399,256.895,301.399,250.6z M230,262h12
	c6.295,0,11.4-5.105,11.4-11.4c0-6.293-5.105-11.399-11.4-11.399h-12c-6.293-0.001-11.4,5.106-11.4,11.399
	C218.6,256.895,223.707,262,230,262z M182,262h12c6.295,0,11.4-5.105,11.4-11.4c0-6.293-5.105-11.399-11.4-11.399h-12
	c-6.293-0.001-11.4,5.106-11.4,11.399C170.6,256.895,175.707,262,182,262z M181.399,280.6c0-6.293-5.105-11.398-11.4-11.398h-12
	c-6.294-0.001-11.4,5.105-11.4,11.398c0,6.295,5.106,11.4,11.4,11.4h12C176.294,292,181.399,286.895,181.399,280.6z M266,269.2h-12
	c-6.293,0-11.4,5.106-11.4,11.399c0,6.295,5.106,11.4,11.399,11.4h12c6.295,0,11.4-5.105,11.4-11.4
	C277.399,274.307,272.295,269.2,266,269.2z M229.399,280.6c0-6.293-5.105-11.398-11.4-11.398h-12
	c-6.293-0.001-11.4,5.105-11.4,11.398c0,6.295,5.106,11.4,11.399,11.4h12C224.294,292,229.399,286.895,229.399,280.6z M140,299.2
	h-12c-6.294,0-11.4,5.106-11.4,11.399c0,6.295,5.106,11.4,11.4,11.4h12c6.294,0,11.4-5.105,11.4-11.4
	C151.399,304.307,146.293,299.2,140,299.2z M236,299.2h-12c-6.293,0-11.4,5.106-11.4,11.399c0,6.295,5.106,11.4,11.399,11.4h12
	c6.295,0,11.4-5.105,11.4-11.4C247.399,304.307,242.294,299.2,236,299.2z M188,299.2h-12c-6.293,0-11.4,5.106-11.4,11.399
	c0,6.295,5.106,11.4,11.399,11.4h12c6.295,0,11.4-5.105,11.4-11.4C199.399,304.307,194.294,299.2,188,299.2z"/>
</svg>
