<?xml version="1.0" encoding="utf-8"?>
<!-- Generator: Adobe Illustrator 16.0.0, SVG Export Plug-In . SVG Version: 6.00 Build 0)  -->
<!DOCTYPE svg PUBLIC "-//W3C//DTD SVG 1.1//EN" "http://www.w3.org/Graphics/SVG/1.1/DTD/svg11.dtd">
<svg version="1.1" id="Layer_1" xmlns="http://www.w3.org/2000/svg" xmlns:xlink="http://www.w3.org/1999/xlink" x="0px" y="0px"
	 width="520px" height="520px" viewBox="-56.6 -80.6 520 520" enable-background="new -56.6 -80.6 520 520" xml:space="preserve">
<polygon fill="#FFFFFF" stroke="#000000" stroke-miterlimit="10" points="150.9,12.9 189.9,12.9 189.9,73.9 310.9,73.9 393.9,179.4 
	393.9,342.9 9.9,342.9 9.9,179.4 146.9,72.9 "/>
<path d="M59.4,292.8h12c6.294,0,11.4-5.105,11.4-11.4v-48c0-6.293-5.106-11.4-11.4-11.4h-12c-6.294,0-11.4,5.107-11.4,11.4v48
	C48,287.695,53.106,292.8,59.4,292.8z M167.4,292.8h12c6.295,0,11.4-5.105,11.4-11.4v-48c0-6.293-5.105-11.4-11.4-11.4h-12
	c-6.293,0-11.399,5.107-11.399,11.4v48C156,287.695,161.107,292.8,167.4,292.8z M287.4,222h-12c-6.293,0-11.4,5.107-11.4,11.4v48
	c0,6.295,5.107,11.4,11.4,11.4h12c6.295,0,11.4-5.105,11.4-11.4v-48C298.8,227.107,293.695,222,287.4,222z M341.4,292.8h12
	c6.295,0,11.4-5.105,11.4-11.4v-48c0-6.293-5.105-11.4-11.4-11.4h-12c-6.293,0-11.4,5.107-11.4,11.4v48
	C330,287.695,335.107,292.8,341.4,292.8z M404.58,172.638l-84-114c-0.096-0.126-0.221-0.21-0.316-0.33
	c-0.443-0.552-0.924-1.056-1.457-1.512c-0.049-0.036-0.09-0.072-0.141-0.113C316.687,55.033,314.179,54,311.4,54H202.8V11.4
	C202.8,5.107,197.695,0,191.4,0h-42C143.107,0,138,5.107,138,11.4V54H95.4c-3.624,0-7.026,1.722-9.18,4.638l-84,114
	c-0.03,0.049-0.042,0.102-0.078,0.15c-0.612,0.852-1.08,1.787-1.44,2.789c-0.072,0.203-0.126,0.408-0.192,0.617
	C0.21,177.221,0,178.277,0,179.4v168c0,6.293,5.106,11.4,11.4,11.4h210c1.045,0,2.041-0.188,3-0.451
	c0.961,0.264,1.957,0.451,3,0.451h168c6.295,0,11.4-5.107,11.4-11.4v-168C406.8,176.964,406.021,174.593,404.58,172.638z
	 M160.8,22.8H180V54h-19.2V22.8z M216,336h-81.334c1.332-1.863,2.136-4.133,2.136-6.6v-66c0-6.293-5.106-11.4-11.399-11.4h-12
	c-6.294,0-11.4,5.107-11.4,11.4v66c0,2.467,0.804,4.734,2.136,6.6H22.8V190.8H216V336z M384,336H238.8V183.15l72.6-98.531
	l72.6,98.525V336z"/>
</svg>
