<?xml version="1.0" encoding="utf-8"?>
<!-- Generator: Adobe Illustrator 16.0.0, SVG Export Plug-In . SVG Version: 6.00 Build 0)  -->
<!DOCTYPE svg PUBLIC "-//W3C//DTD SVG 1.1//EN" "http://www.w3.org/Graphics/SVG/1.1/DTD/svg11.dtd">
<svg version="1.1" id="Layer_1" xmlns="http://www.w3.org/2000/svg" xmlns:xlink="http://www.w3.org/1999/xlink" x="0px" y="0px"
	 width="520px" height="520px" viewBox="-56.6 -80.6 520 520" enable-background="new -56.6 -80.6 520 520" xml:space="preserve">
<polygon fill="#FFFFFF" stroke="#000000" stroke-miterlimit="10" points="141.9,45.9 141.9,14.9 192.9,14.9 192.9,45.9 309.9,45.9 
	392.9,121.9 392.9,343.9 9.9,343.9 9.9,122.9 92.9,48.9 "/>
<path d="M402.816,110.749l-84-72c-0.18-0.149-0.377-0.259-0.564-0.396c-0.264-0.205-0.52-0.396-0.803-0.576
	c-0.342-0.217-0.697-0.396-1.057-0.576c-0.271-0.133-0.533-0.271-0.816-0.385c-0.426-0.168-0.855-0.287-1.289-0.401
	c-0.252-0.065-0.484-0.149-0.744-0.198c-0.715-0.139-1.434-0.216-2.158-0.216H208.8V11.4C208.8,5.107,203.695,0,197.4,0h-54
	C137.107,0,132,5.107,132,11.4V36H95.4c-2.724,0-5.352,0.972-7.416,2.748l-84,72C1.452,112.908,0,116.07,0,119.4v228
	c0,6.295,5.106,11.4,11.4,11.4h210c1.045,0,2.041-0.188,3-0.449c0.961,0.264,1.957,0.449,3,0.449h168c6.295,0,11.4-5.105,11.4-11.4
	v-228C406.8,116.07,405.349,112.908,402.816,110.749z M154.8,22.8H186V36h-31.2V22.8L154.8,22.8z M216,336h-81.334
	c1.332-1.863,2.136-4.133,2.136-6.6v-66c0-6.293-5.106-11.4-11.399-11.4h-12c-6.294,0-11.4,5.107-11.4,11.4v66
	c0,2.467,0.804,4.734,2.136,6.6H22.8V136.8H216V336z M219.984,110.749c-1.074,0.918-1.902,2.041-2.561,3.252H35.214l11.232-9.623
	c1.926,1.5,4.32,2.424,6.954,2.424h12c6.294,0,11.4-5.106,11.4-11.399c0-4.902-3.114-9.049-7.452-10.656l9.264-7.944H89.4
	c6.294,0,11.4-5.106,11.4-11.399c0-2.244-0.672-4.32-1.788-6.084l0.606-0.517h16.518c-1.332,1.866-2.136,4.134-2.136,6.601
	c0,6.293,5.106,11.399,11.399,11.399h12c6.295,0,11.4-5.106,11.4-11.399c0-2.467-0.804-4.734-2.136-6.601h17.472
	c-1.332,1.866-2.136,4.134-2.136,6.601c0,6.293,5.106,11.399,11.399,11.399h12c6.295,0,11.4-5.106,11.4-11.399
	c0-2.467-0.804-4.734-2.136-6.601h2.735h14.736c-1.332,1.866-2.137,4.134-2.137,6.601c0,6.293,5.105,11.399,11.4,11.399h12
	c6.293,0,11.4-5.106,11.4-11.399c0-2.467-0.807-4.734-2.139-6.601h17.475c-1.332,1.866-2.139,4.134-2.139,6.601
	c0,3.654,1.752,6.875,4.43,8.963L219.984,110.749z M384,336H238.8V124.644l72.6-62.231l72.6,62.231V336z M287.4,162h-12
	c-6.293,0-11.4,5.106-11.4,11.399v48c0,6.295,5.107,11.4,11.4,11.4h12c6.295,0,11.4-5.105,11.4-11.4v-48
	C298.8,167.107,293.695,162,287.4,162z M341.4,232.8h12c6.295,0,11.4-5.105,11.4-11.4v-48c0-6.293-5.105-11.399-11.4-11.399h-12
	c-6.293,0-11.4,5.106-11.4,11.399v48C330,227.695,335.107,232.8,341.4,232.8z M287.4,252h-12c-6.293,0-11.4,5.107-11.4,11.4v48
	c0,6.295,5.107,11.4,11.4,11.4h12c6.295,0,11.4-5.105,11.4-11.4v-48C298.8,257.107,293.695,252,287.4,252z M341.4,322.8h12
	c6.295,0,11.4-5.105,11.4-11.4v-48c0-6.293-5.105-11.4-11.4-11.4h-12c-6.293,0-11.4,5.107-11.4,11.4v48
	C330,317.695,335.107,322.8,341.4,322.8z M113.4,232.8h12c6.295,0,11.4-5.105,11.4-11.4v-48c0-6.293-5.105-11.399-11.4-11.399h-12
	C107.106,162,102,167.107,102,173.4v48C102,227.695,107.106,232.8,113.4,232.8z M167.4,232.8h12c6.295,0,11.4-5.105,11.4-11.4v-48
	c0-6.293-5.105-11.399-11.4-11.399h-12C161.107,162,156,167.107,156,173.4v48C156,227.695,161.107,232.8,167.4,232.8z M167.4,322.8
	h12c6.295,0,11.4-5.105,11.4-11.4v-48c0-6.293-5.105-11.4-11.4-11.4h-12c-6.293,0-11.399,5.107-11.399,11.4v48
	C156,317.695,161.107,322.8,167.4,322.8z M59.4,232.8h12c6.294,0,11.4-5.105,11.4-11.4v-48c0-6.293-5.106-11.399-11.4-11.399h-12
	C53.106,162,48,167.107,48,173.4v48C48,227.695,53.106,232.8,59.4,232.8z M59.4,322.8h12c6.294,0,11.4-5.105,11.4-11.4v-48
	c0-6.293-5.106-11.4-11.4-11.4h-12c-6.294,0-11.4,5.107-11.4,11.4v48C48,317.695,53.106,322.8,59.4,322.8z M113.4,84h-12
	C95.106,84,90,89.107,90,95.4c0,6.295,5.106,11.4,11.4,11.4h12c6.295,0,11.4-5.105,11.4-11.4C124.8,89.107,119.695,84,113.4,84z
	 M161.4,84h-12C143.107,84,138,89.107,138,95.4c0,6.295,5.106,11.4,11.399,11.4h12c6.295,0,11.4-5.105,11.4-11.4
	C172.8,89.107,167.695,84,161.4,84z M209.4,84h-12C191.107,84,186,89.107,186,95.4c0,6.295,5.106,11.4,11.399,11.4h12
	c6.295,0,11.4-5.105,11.4-11.4C220.8,89.107,215.695,84,209.4,84z"/>
</svg>
