<?xml version="1.0" encoding="utf-8"?>
<!-- Generator: Adobe Illustrator 16.0.0, SVG Export Plug-In . SVG Version: 6.00 Build 0)  -->
<!DOCTYPE svg PUBLIC "-//W3C//DTD SVG 1.1//EN" "http://www.w3.org/Graphics/SVG/1.1/DTD/svg11.dtd">
<svg version="1.1" id="Layer_1" xmlns="http://www.w3.org/2000/svg" xmlns:xlink="http://www.w3.org/1999/xlink" x="0px" y="0px"
	 width="520px" height="520px" viewBox="-56.951 -80.6 520 520" enable-background="new -56.951 -80.6 520 520"
	 xml:space="preserve">
<polygon fill="#FFFFFF" stroke="#000000" stroke-miterlimit="10" points="150.549,61.9 150.549,10.9 189.549,10.9 189.549,61.9 
	307.549,61.9 395.549,179.4 395.549,342.9 9.549,342.9 9.549,179.4 94.549,66.9 "/>
<path d="M404.223,172.638l-84-114c-0.084-0.113-0.199-0.186-0.283-0.294c-0.455-0.563-0.951-1.086-1.5-1.554
	c-0.041-0.036-0.084-0.066-0.125-0.102C316.34,55.033,313.829,54,311.049,54h-108.6V11.4c0-6.293-5.107-11.399-11.4-11.399h-42
	c-6.301,0-11.4,5.106-11.4,11.399V54h-42.6c-3.624,0-7.032,1.722-9.174,4.638l-84,114c-0.03,0.041-0.042,0.09-0.072,0.133
	c-0.618,0.857-1.092,1.805-1.452,2.812c-0.072,0.205-0.126,0.402-0.186,0.605c-0.306,1.026-0.516,2.088-0.516,3.211v168
	c0,6.293,5.106,11.4,11.4,11.4h210c1.043,0,2.039-0.188,3-0.451c0.959,0.264,1.955,0.451,3,0.451h168c6.299,0,11.4-5.107,11.4-11.4
	v-168C406.45,176.964,405.674,174.593,404.223,172.638z M208.809,76.8h25.682L167.29,168h-25.68L208.809,76.8z M160.449,22.8h19.2
	V54h-19.2V22.8z M154.809,76.8h25.68L113.29,168H87.609L154.809,76.8z M100.809,76.8h25.68l-67.2,91.2H33.615L100.809,76.8z
	 M215.649,336h-81.33c1.332-1.863,2.13-4.133,2.13-6.6v-66c0-6.293-5.106-11.4-11.399-11.4h-12c-6.301,0-11.4,5.107-11.4,11.4v66
	c0,2.467,0.804,4.734,2.13,6.6h-81.33V190.8h193.2V336z M221.27,168.025c-0.078,0-0.143-0.024-0.221-0.024h-25.44l67.2-91.2h25.682
	L221.27,168.025z M383.649,336H238.45V183.15l72.6-98.531l72.6,98.525V336z M59.049,292.8h12c6.3,0,11.4-5.105,11.4-11.4v-48
	c0-6.293-5.106-11.4-11.4-11.4h-12c-6.3,0-11.4,5.107-11.4,11.4v48C47.649,287.695,52.749,292.8,59.049,292.8z M167.049,292.8h12
	c6.299,0,11.399-5.105,11.399-11.4v-48c0-6.293-5.106-11.4-11.399-11.4h-12c-6.301,0-11.4,5.107-11.4,11.4v48
	C155.649,287.695,160.749,292.8,167.049,292.8z M341.049,292.8h12c6.299,0,11.4-5.105,11.4-11.4v-48c0-6.293-5.107-11.4-11.4-11.4
	h-12c-6.301,0-11.4,5.107-11.4,11.4v48C329.649,287.695,334.749,292.8,341.049,292.8z M287.049,222h-12
	c-6.301,0-11.4,5.107-11.4,11.4v48c0,6.295,5.105,11.4,11.4,11.4h12c6.299,0,11.4-5.105,11.4-11.4v-48
	C298.45,227.107,293.348,222,287.049,222z"/>
</svg>
