<?xml version="1.0" encoding="utf-8"?>
<!-- Generator: Adobe Illustrator 16.0.0, SVG Export Plug-In . SVG Version: 6.00 Build 0)  -->
<!DOCTYPE svg PUBLIC "-//W3C//DTD SVG 1.1//EN" "http://www.w3.org/Graphics/SVG/1.1/DTD/svg11.dtd">
<svg version="1.1" id="Layer_1" xmlns="http://www.w3.org/2000/svg" xmlns:xlink="http://www.w3.org/1999/xlink" x="0px" y="0px"
	 width="520px" height="520px" viewBox="0 0 520 520" enable-background="new 0 0 520 520" xml:space="preserve">
<polygon fill="#FFFFFF" stroke="#000000" stroke-miterlimit="10" points="207.5,223.101 207.5,172.101 246.5,172.101 246.5,223.101 
	364.5,223.101 452.5,340.602 452.5,504.102 66.5,504.102 66.5,340.602 151.5,228.101 "/>
<path d="M461.174,333.84l-84-114c-0.084-0.113-0.198-0.186-0.282-0.294c-0.455-0.562-0.951-1.086-1.5-1.554
	c-0.041-0.036-0.084-0.066-0.125-0.102c-1.976-1.655-4.486-2.688-7.267-2.688H259.4v-42.6c0-6.293-5.107-11.399-11.4-11.399h-42
	c-6.301,0-11.4,5.106-11.4,11.399v42.6H152c-3.624,0-7.032,1.722-9.174,4.638l-84,114c-0.03,0.041-0.042,0.09-0.072,0.133
	c-0.618,0.856-1.092,1.805-1.452,2.812c-0.072,0.205-0.126,0.401-0.186,0.604c-0.306,1.026-0.516,2.088-0.516,3.211v168
	c0,6.293,5.106,11.4,11.4,11.4h210c1.043,0,2.039-0.188,3-0.451c0.959,0.264,1.955,0.451,3,0.451h168c6.299,0,11.4-5.107,11.4-11.4
	v-168C463.401,338.165,462.625,335.794,461.174,333.84z M265.76,238.001h25.683l-67.201,91.2h-25.68L265.76,238.001z M217.4,184.001
	h19.2v31.2h-19.2V184.001z M211.76,238.001h25.68l-67.199,91.2H144.56L211.76,238.001z M157.76,238.001h25.68l-67.2,91.2H90.566
	L157.76,238.001z M272.6,497.201h-81.33c1.332-1.863,2.13-4.133,2.13-6.6v-66c0-6.293-5.106-11.4-11.399-11.4h-12
	c-6.301,0-11.4,5.107-11.4,11.4v66c0,2.467,0.804,4.733,2.13,6.6h-81.33v-145.2h193.2v145.2H272.6z M278.221,329.227
	c-0.078,0-0.143-0.024-0.221-0.024h-25.44l67.2-91.2h25.683L278.221,329.227z M440.601,497.201H295.401v-152.85l72.6-98.531
	l72.601,98.525L440.601,497.201L440.601,497.201z M116,454.001h12c6.3,0,11.4-5.104,11.4-11.399v-48c0-6.293-5.106-11.4-11.4-11.4
	h-12c-6.3,0-11.4,5.107-11.4,11.4v48C104.6,448.896,109.7,454.001,116,454.001z M224,454.001h12c6.299,0,11.399-5.104,11.399-11.399
	v-48c0-6.293-5.106-11.4-11.399-11.4h-12c-6.301,0-11.4,5.107-11.4,11.4v48C212.6,448.896,217.7,454.001,224,454.001z M398,454.001
	h12c6.299,0,11.4-5.104,11.4-11.399v-48c0-6.293-5.107-11.4-11.4-11.4h-12c-6.301,0-11.399,5.107-11.399,11.4v48
	C386.601,448.896,391.7,454.001,398,454.001z M344,383.201h-12c-6.301,0-11.4,5.107-11.4,11.4v48c0,6.295,5.105,11.399,11.4,11.399
	h12c6.299,0,11.4-5.104,11.4-11.399v-48C355.401,388.309,350.299,383.201,344,383.201z"/>
</svg>
