<?xml version="1.0" encoding="utf-8"?>
<!-- Generator: Adobe Illustrator 16.0.0, SVG Export Plug-In . SVG Version: 6.00 Build 0)  -->
<!DOCTYPE svg PUBLIC "-//W3C//DTD SVG 1.1//EN" "http://www.w3.org/Graphics/SVG/1.1/DTD/svg11.dtd">
<svg version="1.1" id="Layer_1" xmlns="http://www.w3.org/2000/svg" xmlns:xlink="http://www.w3.org/1999/xlink" x="0px" y="0px"
	 width="520px" height="520px" viewBox="0 0 520 520" enable-background="new 0 0 520 520" xml:space="preserve">
<polygon fill="#FFFFFF" stroke="#000000" stroke-miterlimit="10" points="199.5,205.1 199.5,173.1 252.5,173.1 252.5,205.1 
	366.5,205.1 450.5,283.1 450.5,506.101 66.5,506.101 66.5,279.1 151.5,206.1 "/>
<path d="M459.416,271.949l-84-72c-0.181-0.149-0.377-0.259-0.564-0.396c-0.264-0.205-0.52-0.396-0.803-0.576
	c-0.342-0.217-0.697-0.396-1.058-0.576c-0.271-0.133-0.532-0.271-0.815-0.385c-0.426-0.168-0.855-0.287-1.289-0.401
	c-0.252-0.065-0.484-0.149-0.744-0.198c-0.715-0.139-1.434-0.216-2.158-0.216H265.399V172.6c0-6.293-5.105-11.4-11.4-11.4h-54
	c-6.293,0-11.4,5.107-11.4,11.4v24.6H152c-2.724,0-5.352,0.972-7.416,2.748l-84,72c-2.532,2.16-3.984,5.321-3.984,8.651v228.001
	C56.6,514.896,61.706,520,68,520h210c1.045,0,2.041-0.188,3-0.448c0.961,0.264,1.957,0.448,3,0.448h168
	c6.295,0,11.399-5.104,11.399-11.399V280.6C463.399,277.27,461.948,274.108,459.416,271.949z M211.399,184h31.2v13.2h-31.2V184
	L211.399,184z M272.6,497.2h-81.334c1.332-1.863,2.136-4.133,2.136-6.6v-66c0-6.294-5.106-11.4-11.399-11.4h-12
	c-6.294,0-11.4,5.106-11.4,11.4v66c0,2.467,0.804,4.733,2.136,6.6H79.399V298h193.2V497.2z M286.754,263.225l-10.17,8.718
	c-1.074,0.918-1.902,2.041-2.562,3.252H91.813l8.994-7.709c1.02,0.306,2.076,0.517,3.192,0.517h12c6.294,0,11.4-5.105,11.4-11.399
	c0-3.42-1.536-6.451-3.918-8.539l11.736-10.062H140c6.294,0,11.4-5.106,11.4-11.399c0-0.78-0.078-1.543-0.228-2.274l5.046-4.326
	h10.518c-1.332,1.866-2.136,4.134-2.136,6.601c0,6.293,5.106,11.399,11.399,11.399h12c6.295,0,11.4-5.105,11.4-11.399
	c0-2.467-0.804-4.734-2.136-6.601h2.735h14.736c-1.332,1.866-2.136,4.134-2.136,6.601c0,6.293,5.106,11.399,11.399,11.399h12
	c6.295,0,11.4-5.105,11.4-11.399c0-2.467-0.804-4.734-2.136-6.601h8.735h8.736c-1.332,1.866-2.137,4.134-2.137,6.601
	c0,6.293,5.104,11.399,11.399,11.399h12c6.293,0,11.4-5.105,11.4-11.399c0-2.467-0.807-4.734-2.139-6.601h17.475
	c-1.332,1.866-2.139,4.134-2.139,6.601c0,5.172,3.471,9.492,8.191,10.884l-9.007,7.716H296c-6.293,0-11.4,5.105-11.4,11.4
	C284.6,259.079,285.41,261.352,286.754,263.225z M440.6,497.2h-145.2V285.844L368,223.613l72.6,62.23V497.2z M344,323.2h-12
	c-6.293,0-11.4,5.106-11.4,11.399v48c0,6.295,5.107,11.399,11.4,11.399h12c6.295,0,11.399-5.104,11.399-11.399v-48
	C355.399,328.307,350.295,323.2,344,323.2z M398,394h12c6.295,0,11.399-5.105,11.399-11.4v-48c0-6.293-5.104-11.398-11.399-11.398
	h-12c-6.293,0-11.4,5.105-11.4,11.398v48C386.6,388.895,391.707,394,398,394z M344,413.2h-12c-6.293,0-11.4,5.106-11.4,11.4v48
	c0,6.295,5.107,11.399,11.4,11.399h12c6.295,0,11.399-5.104,11.399-11.399v-48C355.399,418.307,350.295,413.2,344,413.2z M398,484
	h12c6.295,0,11.399-5.104,11.399-11.399v-48c0-6.294-5.104-11.4-11.399-11.4h-12c-6.293,0-11.4,5.106-11.4,11.4v48
	C386.6,478.896,391.707,484,398,484z M170,394h12c6.295,0,11.4-5.105,11.4-11.4v-48c0-6.293-5.105-11.398-11.4-11.398h-12
	c-6.294-0.001-11.4,5.105-11.4,11.398v48C158.6,388.895,163.706,394,170,394z M224,394h12c6.295,0,11.4-5.105,11.4-11.4v-48
	c0-6.293-5.105-11.398-11.4-11.398h-12c-6.293-0.001-11.4,5.105-11.4,11.398v48C212.6,388.895,217.707,394,224,394z M224,484h12
	c6.295,0,11.4-5.104,11.4-11.399v-48c0-6.294-5.105-11.4-11.4-11.4h-12c-6.293,0-11.399,5.106-11.399,11.4v48
	C212.6,478.896,217.707,484,224,484z M116,394h12c6.294,0,11.4-5.105,11.4-11.4v-48c0-6.293-5.106-11.398-11.4-11.398h-12
	c-6.294-0.001-11.4,5.105-11.4,11.398v48C104.6,388.895,109.706,394,116,394z M116,484h12c6.294,0,11.4-5.104,11.4-11.399v-48
	c0-6.294-5.106-11.4-11.4-11.4h-12c-6.294,0-11.4,5.106-11.4,11.4v48C104.6,478.896,109.706,484,116,484z M260,245.2h-12
	c-6.293,0-11.4,5.107-11.4,11.4c0,6.294,5.106,11.4,11.399,11.4h12c6.294,0,11.4-5.105,11.4-11.4
	C271.399,250.307,266.295,245.2,260,245.2z M164,245.2h-12c-6.294,0-11.4,5.107-11.4,11.4c0,6.294,5.106,11.4,11.4,11.4h12
	c6.295,0,11.4-5.105,11.4-11.4C175.399,250.307,170.294,245.2,164,245.2z M212,245.2h-12c-6.293,0-11.4,5.107-11.4,11.4
	c0,6.294,5.106,11.4,11.399,11.4h12c6.295,0,11.4-5.105,11.4-11.4C223.399,250.307,218.294,245.2,212,245.2z"/>
</svg>
