<?xml version="1.0" encoding="utf-8"?>
<!-- Generator: Adobe Illustrator 16.0.0, SVG Export Plug-In . SVG Version: 6.00 Build 0)  -->
<!DOCTYPE svg PUBLIC "-//W3C//DTD SVG 1.1//EN" "http://www.w3.org/Graphics/SVG/1.1/DTD/svg11.dtd">
<svg version="1.1" id="Layer_1" xmlns="http://www.w3.org/2000/svg" xmlns:xlink="http://www.w3.org/1999/xlink" x="0px" y="0px"
	 width="520px" height="520px" viewBox="0 0 520 520" enable-background="new 0 0 520 520" xml:space="preserve">
<polygon fill="#FFFFFF" stroke="#000000" stroke-miterlimit="10" points="204.5,250.6 204.5,199.1 249.5,199.1 249.5,250.6 
	366.5,250.6 451.5,364.1 451.5,507.101 69.5,507.101 69.5,365.1 150.5,250.6 "/>
<path d="M461.174,357.838l-84-114c-0.084-0.113-0.197-0.186-0.281-0.294c-0.457-0.562-0.953-1.086-1.5-1.554
	c-0.043-0.036-0.084-0.066-0.127-0.102c-1.973-1.655-4.487-2.688-7.266-2.688H259.399v-42.6c0-6.293-5.105-11.4-11.4-11.4h-42
	c-6.299,0-11.4,5.107-11.4,11.4v42.6H152c-3.624,0-7.032,1.722-9.174,4.638l-84,114c-0.03,0.043-0.042,0.09-0.072,0.133
	c-0.618,0.857-1.092,1.806-1.452,2.812c-0.072,0.205-0.126,0.402-0.186,0.605c-0.306,1.026-0.516,2.088-0.516,3.211v144.001
	C56.6,514.894,61.706,520,68,520h210c1.045,0,2.041-0.188,3-0.45c0.961,0.264,1.957,0.45,3,0.45h168
	c6.301,0,11.399-5.106,11.399-11.399V364.6C463.399,362.164,462.627,359.793,461.174,357.838z M265.76,262h25.682l-67.2,91.2
	h-25.681L265.76,262z M217.399,208h19.2v31.2h-19.2V208z M211.76,262h25.681l-67.201,91.2h-25.68L211.76,262z M157.76,262h25.68
	l-67.199,91.2H90.565L157.76,262z M272.6,497.2h-193.2V376h193.2V497.2z M278.223,353.225c-0.078,0-0.145-0.023-0.223-0.023h-25.44
	l67.199-91.199h25.682L278.223,353.225z M440.6,497.2h-55.254c0.014-0.203,0.062-0.395,0.062-0.6V430.6
	c0-6.293-5.106-11.399-11.399-11.399h-12c-6.301,0-11.398,5.106-11.398,11.399v66.001c0,0.205,0.047,0.396,0.059,0.6h-55.269V368.35
	L368,269.819l72.6,98.524V497.2z M110,472h48c6.3,0,11.4-5.104,11.4-11.399V412.6c0-6.293-5.105-11.399-11.4-11.399h-48
	c-6.3,0-11.4,5.106-11.4,11.399v48.001C98.6,466.896,103.701,472,110,472z M194,472h48c6.301,0,11.4-5.104,11.4-11.399V412.6
	c0-6.293-5.105-11.399-11.4-11.399h-48c-6.299,0-11.399,5.106-11.399,11.399v48.001C182.6,466.896,187.701,472,194,472z"/>
</svg>
