<?xml version="1.0" encoding="utf-8"?>
<!-- Generator: Adobe Illustrator 16.0.0, SVG Export Plug-In . SVG Version: 6.00 Build 0)  -->
<!DOCTYPE svg PUBLIC "-//W3C//DTD SVG 1.1//EN" "http://www.w3.org/Graphics/SVG/1.1/DTD/svg11.dtd">
<svg version="1.1" id="Layer_1" xmlns="http://www.w3.org/2000/svg" xmlns:xlink="http://www.w3.org/1999/xlink" x="0px" y="0px"
	 width="520px" height="520px" viewBox="-56.6 -92.6 520 520" enable-background="new -56.6 -92.6 520 520" xml:space="preserve">
<polygon fill="#FFFFFF" stroke="#000000" stroke-miterlimit="10" points="147.9,65.4 147.9,13.9 192.9,13.9 192.9,65.4 309.9,65.4 
	394.9,178.9 394.9,321.9 12.9,321.9 12.9,179.9 93.9,65.4 "/>
<path d="M404.574,172.638l-84-114c-0.084-0.113-0.197-0.186-0.281-0.294c-0.457-0.563-0.953-1.086-1.5-1.554
	c-0.043-0.036-0.084-0.066-0.127-0.102C316.693,55.033,314.179,54,311.4,54H202.8V11.4C202.8,5.107,197.695,0,191.4,0h-42
	C143.101,0,138,5.107,138,11.4V54H95.4c-3.624,0-7.032,1.722-9.174,4.638l-84,114c-0.03,0.042-0.042,0.09-0.072,0.133
	c-0.618,0.857-1.092,1.805-1.452,2.812c-0.072,0.205-0.126,0.402-0.186,0.605C0.21,177.215,0,178.277,0,179.4v144
	c0,6.293,5.106,11.4,11.4,11.4h210c1.045,0,2.041-0.188,3-0.451c0.961,0.264,1.957,0.451,3,0.451h168c6.301,0,11.4-5.107,11.4-11.4
	v-144C406.8,176.964,406.027,174.593,404.574,172.638z M209.16,76.8h25.682L167.642,168h-25.681L209.16,76.8z M160.8,22.8H180V54
	h-19.2V22.8z M155.16,76.8h25.681L113.64,168H87.96L155.16,76.8z M101.16,76.8h25.68L59.641,168H33.966L101.16,76.8z M216,312H22.8
	V190.8H216V312z M221.623,168.025c-0.078,0-0.145-0.024-0.223-0.024H195.96l67.199-91.199h25.682L221.623,168.025z M384,312h-55.254
	c0.014-0.203,0.062-0.395,0.062-0.6v-66c0-6.293-5.107-11.4-11.4-11.4h-12c-6.301,0-11.398,5.107-11.398,11.4v66
	c0,0.205,0.047,0.396,0.059,0.6H238.8V183.15l72.6-98.531l72.6,98.525V312z M53.4,286.8h48c6.3,0,11.4-5.105,11.4-11.4v-48
	c0-6.293-5.105-11.4-11.4-11.4h-48c-6.3,0-11.4,5.107-11.4,11.4v48C42,281.695,47.101,286.8,53.4,286.8z M137.4,286.8h48
	c6.301,0,11.4-5.105,11.4-11.4v-48c0-6.293-5.105-11.4-11.4-11.4h-48c-6.299,0-11.399,5.107-11.399,11.4v48
	C126,281.695,131.101,286.8,137.4,286.8z"/>
</svg>
