<?xml version="1.0" encoding="utf-8"?>
<!-- Generator: Adobe Illustrator 16.0.0, SVG Export Plug-In . SVG Version: 6.00 Build 0)  -->
<!DOCTYPE svg PUBLIC "-//W3C//DTD SVG 1.1//EN" "http://www.w3.org/Graphics/SVG/1.1/DTD/svg11.dtd">
<svg version="1.1" id="Layer_1" xmlns="http://www.w3.org/2000/svg" xmlns:xlink="http://www.w3.org/1999/xlink" x="0px" y="0px"
	 width="460.099px" height="358.8px" viewBox="67.302 210.6 460.099 358.8" enable-background="new 67.302 210.6 460.099 358.8"
	 xml:space="preserve">
<polygon fill="#FFFFFF" stroke="#000000" stroke-miterlimit="10" points="213.5,275.5 213.5,226.5 254.5,226.5 259.5,275.5 
	429.5,275.5 513.5,390 513.5,554.5 80.5,554.5 80.5,390 158.5,274.5 "/>
<path d="M525.18,383.238l-84-114c-0.096-0.126-0.222-0.21-0.317-0.33c-0.444-0.552-0.925-1.056-1.458-1.512
	c-0.048-0.036-0.09-0.072-0.139-0.114c-1.979-1.65-4.487-2.682-7.266-2.682H269.4V222c0-6.294-5.106-11.4-11.4-11.4h-42
	c-6.294,0-11.4,5.106-11.4,11.4v42.6H162c-3.624,0-7.026,1.722-9.18,4.638l-84,114c-0.03,0.048-0.042,0.102-0.078,0.15
	c-0.612,0.852-1.08,1.787-1.44,2.789c-0.072,0.204-0.126,0.408-0.192,0.618c-0.3,1.026-0.51,2.082-0.51,3.204v168
	c0,6.294,5.106,11.4,11.4,11.4h264c1.044,0,2.04-0.187,3-0.45c0.96,0.264,1.956,0.45,3,0.45h168c6.294,0,11.4-5.106,11.4-11.4V390
	C527.4,387.564,526.62,385.193,525.18,383.238z M355.44,287.4l-67.2,91.2h-25.68l67.2-91.2H355.44z M275.76,287.4h25.674l-67.2,91.2
	H208.56L275.76,287.4z M227.4,233.4h19.2v31.2h-19.2V233.4z M221.76,287.4h25.674l-67.2,91.2H154.56L221.76,287.4z M167.76,287.4
	h25.68l-67.2,91.2h-25.68L167.76,287.4z M336.6,546.6H225.264c1.332-1.865,2.136-4.134,2.136-6.6v-66c0-6.294-5.106-11.4-11.4-11.4
	h-12c-6.294,0-11.4,5.106-11.4,11.4v66c0,2.466,0.804,4.734,2.136,6.6H89.4V401.4h247.2V546.6z M342.222,378.624
	c-0.078,0-0.144-0.024-0.222-0.024h-25.44l67.2-91.2h25.674L342.222,378.624z M504.6,546.6H359.4V393.75l72.6-98.532l72.6,98.526
	V546.6z M414.6,444v48c0,6.294,5.106,11.4,11.4,11.4h12c6.294,0,11.4-5.106,11.4-11.4v-48c0-6.294-5.106-11.4-11.4-11.4h-12
	C419.706,432.6,414.6,437.706,414.6,444z M258,503.4h36c6.294,0,11.4-5.106,11.4-11.4v-48c0-6.294-5.106-11.4-11.4-11.4h-36
	c-6.294,0-11.4,5.106-11.4,11.4v48C246.6,498.294,251.706,503.4,258,503.4z M126,503.4h36c6.294,0,11.4-5.106,11.4-11.4v-48
	c0-6.294-5.106-11.4-11.4-11.4h-36c-6.294,0-11.4,5.106-11.4,11.4v48C114.6,498.294,119.706,503.4,126,503.4z"/>
</svg>
