<?xml version="1.0" encoding="utf-8"?>
<!-- Generator: Adobe Illustrator 16.0.0, SVG Export Plug-In . SVG Version: 6.00 Build 0)  -->
<!DOCTYPE svg PUBLIC "-//W3C//DTD SVG 1.1//EN" "http://www.w3.org/Graphics/SVG/1.1/DTD/svg11.dtd">
<svg version="1.1" id="Layer_1" xmlns="http://www.w3.org/2000/svg" xmlns:xlink="http://www.w3.org/1999/xlink" x="0px" y="0px"
	 width="520px" height="520px" viewBox="0 0 520 520" enable-background="new 0 0 520 520" xml:space="preserve">
<polygon fill="#FFFFFF" stroke="#000000" stroke-miterlimit="10" points="190.9,173.1 245.9,173.1 245.9,207.1 415.9,207.1 
	502.9,282.1 502.9,506.101 10.9,506.101 10.9,286.1 94.9,208.1 189.9,208.1 "/>
<path d="M510.816,271.949l-84-72c-0.168-0.144-0.365-0.252-0.545-0.384c-0.271-0.211-0.541-0.408-0.828-0.594
	c-0.343-0.211-0.685-0.391-1.039-0.564c-0.273-0.133-0.545-0.276-0.84-0.391c-0.414-0.168-0.847-0.281-1.277-0.396
	c-0.252-0.065-0.492-0.149-0.75-0.198c-0.715-0.138-1.435-0.216-2.16-0.216H256.8V172.6c0-6.293-5.105-11.4-11.4-11.4h-54
	c-6.299,0-11.4,5.107-11.4,11.4v24.6H95.4c-2.718,0-5.358,0.972-7.416,2.748l-84,72C1.458,274.108,0,277.27,0,280.6v228.001
	C0,514.896,5.106,520,11.4,520h318c1.045,0,2.041-0.188,3-0.448c0.961,0.264,1.957,0.448,3,0.448h168
	c6.301,0,11.399-5.104,11.399-11.399V280.6C514.8,277.27,513.343,274.108,510.816,271.949z M315.408,220h20.178l-64.396,55.2
	h-18.973l60.606-51.948C313.914,222.317,314.767,221.2,315.408,220z M261.613,220h19.973l-64.397,55.2h-19.974L261.613,220z
	 M202.8,184H234v13.2h-31.2V184L202.8,184z M207.612,220h18.972l-60.606,51.948c-1.098,0.942-1.944,2.06-2.592,3.252h-20.178
	L207.612,220z M172.584,220l-60.606,51.948c-1.098,0.942-1.944,2.06-2.592,3.252H89.208l64.398-55.2H172.584z M99.618,220h18.966
	l-60.606,51.948c-1.098,0.942-1.944,2.06-2.592,3.252H35.22L99.618,220z M324,497.2H188.67c1.332-1.863,2.13-4.133,2.13-6.6v-66
	c0-6.294-5.106-11.4-11.4-11.4h-12c-6.3,0-11.4,5.106-11.4,11.4v66c0,2.467,0.804,4.733,2.13,6.6H22.8V298H324V497.2z
	 M327.984,271.949c-1.074,0.918-1.902,2.041-2.562,3.252h-19.207l60.605-51.948c1.098-0.941,1.942-2.059,2.592-3.252h19.178
	L327.984,271.949z M492,497.2H346.8V285.844l72.601-62.23l72.6,62.23V497.2z M402,334.6v48c0,6.295,5.107,11.4,11.4,11.4h12
	c6.301,0,11.399-5.105,11.399-11.4v-48c0-6.293-5.104-11.398-11.399-11.398h-12C407.101,323.2,402,328.307,402,334.6z M425.4,413.2
	h-12c-6.3,0-11.4,5.106-11.4,11.4v48c0,6.295,5.107,11.399,11.4,11.399h12c6.301,0,11.399-5.104,11.399-11.399v-48
	C436.8,418.307,431.701,413.2,425.4,413.2z M167.4,394h12c6.3,0,11.4-5.105,11.4-11.4v-48c0-6.293-5.106-11.398-11.4-11.398h-12
	c-6.3,0-11.4,5.105-11.4,11.398v48C156,388.895,161.101,394,167.4,394z M221.4,394h12c6.301,0,11.4-5.105,11.4-11.4v-48
	c0-6.293-5.105-11.398-11.4-11.398h-12c-6.299-0.001-11.4,5.105-11.4,11.398v48C210,388.895,215.101,394,221.4,394z M221.4,484h12
	c6.301,0,11.4-5.104,11.4-11.399v-48c0-6.294-5.105-11.4-11.4-11.4h-12c-6.299,0-11.399,5.106-11.399,11.4v48
	C210,478.896,215.101,484,221.4,484z M113.4,394h12c6.3,0,11.4-5.105,11.4-11.4v-48c0-6.293-5.106-11.398-11.4-11.398h-12
	c-6.3,0-11.4,5.105-11.4,11.398v48C102,388.895,107.101,394,113.4,394z M113.4,484h12c6.3,0,11.4-5.104,11.4-11.399v-48
	c0-6.294-5.106-11.4-11.4-11.4h-12c-6.3,0-11.4,5.106-11.4,11.4v48C102,478.896,107.101,484,113.4,484z M275.4,394h12
	c6.301,0,11.399-5.105,11.399-11.4v-48c0-6.293-5.104-11.398-11.399-11.398h-12c-6.299,0-11.4,5.105-11.4,11.398v48
	C264,388.895,269.102,394,275.4,394z M275.4,484h12c6.301,0,11.399-5.104,11.399-11.399v-48c0-6.294-5.104-11.4-11.399-11.4h-12
	c-6.299,0-11.4,5.106-11.4,11.4v48C264,478.896,269.102,484,275.4,484z M59.4,394h12c6.3,0,11.4-5.105,11.4-11.4v-48
	c0-6.293-5.106-11.398-11.4-11.398h-12c-6.3,0-11.4,5.105-11.4,11.398v48C48,388.895,53.101,394,59.4,394z M59.4,484h12
	c6.3,0,11.4-5.104,11.4-11.399v-48c0-6.294-5.106-11.4-11.4-11.4h-12c-6.3,0-11.4,5.106-11.4,11.4v48
	C48,478.896,53.101,484,59.4,484z"/>
</svg>
