<?xml version="1.0" encoding="utf-8"?>
<!-- Generator: Adobe Illustrator 16.0.0, SVG Export Plug-In . SVG Version: 6.00 Build 0)  -->
<!DOCTYPE svg PUBLIC "-//W3C//DTD SVG 1.1//EN" "http://www.w3.org/Graphics/SVG/1.1/DTD/svg11.dtd">
<svg version="1.1" id="Layer_1" xmlns="http://www.w3.org/2000/svg" xmlns:xlink="http://www.w3.org/1999/xlink" x="0px" y="0px"
	 width="406.8px" height="358.8px" viewBox="96.6 210.6 406.8 358.8" enable-background="new 96.6 210.6 406.8 358.8"
	 xml:space="preserve">
<polygon fill="#FFFFFF" stroke="#000000" stroke-miterlimit="10" points="238.5,256.5 238.5,225.5 289.5,225.5 289.5,256.5 
	406.5,256.5 489.5,332.5 489.5,554.5 106.5,554.5 106.5,333.5 189.5,259.5 "/>
<path d="M499.416,321.348l-84-72c-0.18-0.15-0.378-0.258-0.564-0.396c-0.264-0.204-0.521-0.396-0.804-0.576
	c-0.342-0.216-0.696-0.396-1.056-0.576c-0.271-0.132-0.534-0.27-0.816-0.384c-0.426-0.168-0.857-0.288-1.29-0.402
	c-0.252-0.066-0.485-0.15-0.744-0.198c-0.714-0.138-1.434-0.216-2.159-0.216H305.4V222c0-6.294-5.106-11.4-11.4-11.4h-54
	c-6.294,0-11.4,5.106-11.4,11.4v24.6H192c-2.724,0-5.352,0.972-7.416,2.748l-84,72c-2.532,2.16-3.984,5.322-3.984,8.652v228
	c0,6.294,5.106,11.4,11.4,11.4h210c1.044,0,2.04-0.187,3-0.45c0.96,0.264,1.956,0.45,3,0.45h168c6.294,0,11.4-5.106,11.4-11.4V330
	C503.4,326.67,501.948,323.508,499.416,321.348z M251.4,233.4h31.2v13.2h-31.2V233.4z M312.6,546.6h-81.335
	c1.332-1.865,2.136-4.134,2.136-6.6v-66c0-6.294-5.106-11.4-11.4-11.4h-12c-6.294,0-11.4,5.106-11.4,11.4v66
	c0,2.466,0.804,4.734,2.136,6.6H119.4V347.4h193.2V546.6z M316.584,321.348c-1.074,0.918-1.902,2.041-2.562,3.252H131.814
	l11.232-9.623c1.926,1.5,4.32,2.424,6.954,2.424h12c6.294,0,11.4-5.106,11.4-11.4c0-4.902-3.114-9.048-7.452-10.656l9.264-7.944H186
	c6.294,0,11.4-5.106,11.4-11.4c0-2.244-0.672-4.32-1.788-6.084l0.606-0.516h16.518c-1.332,1.866-2.136,4.134-2.136,6.6
	c0,6.294,5.106,11.4,11.4,11.4h12c6.294,0,11.4-5.106,11.4-11.4c0-2.466-0.804-4.734-2.136-6.6h17.472
	c-1.332,1.866-2.136,4.134-2.136,6.6c0,6.294,5.106,11.4,11.4,11.4h12c6.294,0,11.4-5.106,11.4-11.4c0-2.466-0.804-4.734-2.136-6.6
	H294h14.736c-1.332,1.866-2.137,4.134-2.137,6.6c0,6.294,5.106,11.4,11.4,11.4h12c6.294,0,11.4-5.106,11.4-11.4
	c0-2.466-0.805-4.734-2.137-6.6h17.473c-1.332,1.866-2.137,4.134-2.137,6.6c0,3.654,1.752,6.876,4.429,8.964L316.584,321.348z
	 M480.6,546.6H335.4V335.244l72.6-62.232l72.6,62.232V546.6z M384,372.6h-12c-6.294,0-11.4,5.106-11.4,11.4v48
	c0,6.294,5.106,11.4,11.4,11.4h12c6.294,0,11.4-5.106,11.4-11.4v-48C395.4,377.706,390.294,372.6,384,372.6z M438,443.4h12
	c6.294,0,11.4-5.106,11.4-11.4v-48c0-6.294-5.106-11.4-11.4-11.4h-12c-6.294,0-11.4,5.106-11.4,11.4v48
	C426.6,438.294,431.706,443.4,438,443.4z M384,462.6h-12c-6.294,0-11.4,5.106-11.4,11.4v48c0,6.294,5.106,11.4,11.4,11.4h12
	c6.294,0,11.4-5.106,11.4-11.4v-48C395.4,467.706,390.294,462.6,384,462.6z M438,533.4h12c6.294,0,11.4-5.106,11.4-11.4v-48
	c0-6.294-5.106-11.4-11.4-11.4h-12c-6.294,0-11.4,5.106-11.4,11.4v48C426.6,528.294,431.706,533.4,438,533.4z M210,443.4h12
	c6.294,0,11.4-5.106,11.4-11.4v-48c0-6.294-5.106-11.4-11.4-11.4h-12c-6.294,0-11.4,5.106-11.4,11.4v48
	C198.6,438.294,203.706,443.4,210,443.4z M264,443.4h12c6.294,0,11.4-5.106,11.4-11.4v-48c0-6.294-5.106-11.4-11.4-11.4h-12
	c-6.294,0-11.4,5.106-11.4,11.4v48C252.6,438.294,257.706,443.4,264,443.4z M264,533.4h12c6.294,0,11.4-5.106,11.4-11.4v-48
	c0-6.294-5.106-11.4-11.4-11.4h-12c-6.294,0-11.4,5.106-11.4,11.4v48C252.6,528.294,257.706,533.4,264,533.4z M156,443.4h12
	c6.294,0,11.4-5.106,11.4-11.4v-48c0-6.294-5.106-11.4-11.4-11.4h-12c-6.294,0-11.4,5.106-11.4,11.4v48
	C144.6,438.294,149.706,443.4,156,443.4z M156,533.4h12c6.294,0,11.4-5.106,11.4-11.4v-48c0-6.294-5.106-11.4-11.4-11.4h-12
	c-6.294,0-11.4,5.106-11.4,11.4v48C144.6,528.294,149.706,533.4,156,533.4z M210,294.6h-12c-6.294,0-11.4,5.106-11.4,11.4
	s5.106,11.4,11.4,11.4h12c6.294,0,11.4-5.106,11.4-11.4S216.294,294.6,210,294.6z M258,294.6h-12c-6.294,0-11.4,5.106-11.4,11.4
	s5.106,11.4,11.4,11.4h12c6.294,0,11.4-5.106,11.4-11.4S264.294,294.6,258,294.6z M306,294.6h-12c-6.294,0-11.4,5.106-11.4,11.4
	s5.106,11.4,11.4,11.4h12c6.294,0,11.4-5.106,11.4-11.4S312.294,294.6,306,294.6z"/>
</svg>
