<?xml version="1.0" encoding="utf-8"?>
<!-- Generator: Adobe Illustrator 16.0.0, SVG Export Plug-In . SVG Version: 6.00 Build 0)  -->
<!DOCTYPE svg PUBLIC "-//W3C//DTD SVG 1.1//EN" "http://www.w3.org/Graphics/SVG/1.1/DTD/svg11.dtd">
<svg version="1.1" id="Layer_1" xmlns="http://www.w3.org/2000/svg" xmlns:xlink="http://www.w3.org/1999/xlink" x="0px" y="0px"
	 width="406.099px" height="358.8px" viewBox="97.302 210.6 406.099 358.8" enable-background="new 97.302 210.6 406.099 358.8"
	 xml:space="preserve">
<polygon fill="#FFFFFF" stroke="#000000" stroke-miterlimit="10" points="247.5,272.5 247.5,221.5 286.5,221.5 286.5,272.5 
	404.5,272.5 492.5,390 492.5,553.5 106.5,553.5 106.5,390 191.5,277.5 "/>
<path d="M501.174,383.238l-84-114c-0.084-0.114-0.198-0.186-0.282-0.294c-0.456-0.564-0.953-1.086-1.5-1.554
	c-0.042-0.036-0.084-0.066-0.126-0.102c-1.974-1.656-4.487-2.688-7.266-2.688H299.4V222c0-6.294-5.106-11.4-11.4-11.4h-42
	c-6.3,0-11.4,5.106-11.4,11.4v42.6H192c-3.624,0-7.032,1.722-9.174,4.638l-84,114c-0.03,0.041-0.042,0.09-0.072,0.132
	c-0.618,0.858-1.092,1.806-1.452,2.813c-0.072,0.205-0.126,0.402-0.186,0.606c-0.306,1.026-0.516,2.088-0.516,3.21v168
	c0,6.294,5.106,11.4,11.4,11.4h210c1.044,0,2.04-0.187,3-0.45c0.96,0.264,1.956,0.45,3,0.45h168c6.3,0,11.4-5.106,11.4-11.4V390
	C503.4,387.564,502.626,385.193,501.174,383.238z M305.76,287.4h25.681l-67.2,91.2h-25.68L305.76,287.4z M257.4,233.4h19.2v31.2
	h-19.2V233.4z M251.76,287.4h25.68l-67.2,91.2h-25.68L251.76,287.4z M197.76,287.4h25.68l-67.2,91.2h-25.674L197.76,287.4z
	 M312.6,546.6h-81.33c1.332-1.865,2.13-4.134,2.13-6.6v-66c0-6.294-5.106-11.4-11.4-11.4h-12c-6.3,0-11.4,5.106-11.4,11.4v66
	c0,2.466,0.804,4.734,2.13,6.6H119.4V401.4h193.2V546.6z M318.222,378.624c-0.078,0-0.144-0.024-0.222-0.024h-25.44l67.2-91.2
	h25.681L318.222,378.624z M480.6,546.6H335.4V393.75l72.6-98.532l72.6,98.526V546.6z M156,503.4h12c6.3,0,11.4-5.106,11.4-11.4v-48
	c0-6.294-5.106-11.4-11.4-11.4h-12c-6.3,0-11.4,5.106-11.4,11.4v48C144.6,498.294,149.7,503.4,156,503.4z M264,503.4h12
	c6.3,0,11.4-5.106,11.4-11.4v-48c0-6.294-5.106-11.4-11.4-11.4h-12c-6.3,0-11.4,5.106-11.4,11.4v48
	C252.6,498.294,257.7,503.4,264,503.4z M438,503.4h12c6.3,0,11.4-5.106,11.4-11.4v-48c0-6.294-5.106-11.4-11.4-11.4h-12
	c-6.3,0-11.4,5.106-11.4,11.4v48C426.6,498.294,431.7,503.4,438,503.4z M384,432.6h-12c-6.3,0-11.4,5.106-11.4,11.4v48
	c0,6.294,5.106,11.4,11.4,11.4h12c6.3,0,11.4-5.106,11.4-11.4v-48C395.4,437.706,390.3,432.6,384,432.6z"/>
</svg>
