<?xml version="1.0" encoding="utf-8"?>
<!-- Generator: Adobe Illustrator 16.0.0, SVG Export Plug-In . SVG Version: 6.00 Build 0)  -->
<!DOCTYPE svg PUBLIC "-//W3C//DTD SVG 1.1//EN" "http://www.w3.org/Graphics/SVG/1.1/DTD/svg11.dtd">
<svg version="1.1" id="Layer_1" xmlns="http://www.w3.org/2000/svg" xmlns:xlink="http://www.w3.org/1999/xlink" x="0px" y="0px"
	 width="520px" height="520px" viewBox="-56.6 -35.6 520 520" enable-background="new -56.6 -35.6 520 520" xml:space="preserve">
<polygon fill="#FFFFFF" stroke="#000000" stroke-miterlimit="10" points="147.9,47.9 147.9,13.9 203.4,13.9 203.4,47.9 311.9,47.9 
	393.9,159.9 393.9,434.9 10.9,434.9 10.9,161.9 92.9,48.9 "/>
<path d="M404.574,154.638l-84-114c-0.084-0.114-0.197-0.188-0.281-0.294c-0.457-0.564-0.953-1.086-1.5-1.554
	c-0.043-0.036-0.084-0.066-0.127-0.102C316.699,37.032,314.179,36,311.4,36h-96.6V11.4c0-6.294-5.105-11.4-11.4-11.4h-54
	C143.101,0,138,5.106,138,11.4V36H95.4c-3.624,0-7.032,1.722-9.174,4.638l-84,114c-0.03,0.042-0.042,0.09-0.072,0.133
	c-0.618,0.857-1.092,1.805-1.452,2.813c-0.072,0.204-0.126,0.401-0.186,0.606C0.21,159.216,0,160.279,0,161.4v276
	c0,6.295,5.106,11.4,11.4,11.4h210c1.045,0,2.041-0.188,3-0.449c0.961,0.264,1.957,0.449,3,0.449h168c6.301,0,11.4-5.105,11.4-11.4
	v-276C406.8,158.964,406.027,156.594,404.574,154.638z M160.8,22.8H192V36h-31.2V22.8z M216,426H134.67
	c1.332-1.863,2.13-4.133,2.13-6.6v-66c0-6.293-5.105-11.4-11.4-11.4h-12c-6.299,0-11.399,5.107-11.399,11.4v66
	c0,2.467,0.804,4.734,2.13,6.6H22.8V172.8H216V426z M384,426H238.8V165.15l72.6-98.532l72.6,98.526V426z M287.4,204h-12
	c-6.299,0-11.4,5.106-11.4,11.399v48c0,6.295,5.107,11.4,11.4,11.4h12c6.301,0,11.4-5.105,11.4-11.4v-48
	C298.8,209.107,293.701,204,287.4,204z M341.4,274.8h12c6.301,0,11.4-5.105,11.4-11.4v-48c0-6.293-5.105-11.399-11.4-11.399h-12
	c-6.299,0-11.4,5.106-11.4,11.399v48C330,269.695,335.101,274.8,341.4,274.8z M287.4,312h-12c-6.299,0-11.4,5.107-11.4,11.4v48
	c0,6.295,5.107,11.4,11.4,11.4h12c6.301,0,11.4-5.105,11.4-11.4v-48C298.8,317.107,293.701,312,287.4,312z M341.4,382.8h12
	c6.301,0,11.4-5.105,11.4-11.4v-48c0-6.293-5.105-11.4-11.4-11.4h-12c-6.299,0-11.4,5.107-11.4,11.4v48
	C330,377.695,335.101,382.8,341.4,382.8z M113.4,274.8h12c6.301,0,11.4-5.105,11.4-11.4v-48c0-6.293-5.105-11.399-11.4-11.399h-12
	C107.101,204,102,209.107,102,215.4v48C102,269.695,107.101,274.8,113.4,274.8z M167.4,274.8h12c6.301,0,11.4-5.105,11.4-11.4v-48
	c0-6.293-5.105-11.399-11.4-11.399h-12C161.101,204,156,209.107,156,215.4v48C156,269.695,161.101,274.8,167.4,274.8z M167.4,382.8
	h12c6.301,0,11.4-5.105,11.4-11.4v-48c0-6.293-5.105-11.4-11.4-11.4h-12c-6.299,0-11.399,5.107-11.399,11.4v48
	C156,377.695,161.101,382.8,167.4,382.8z M59.4,274.8h12c6.3,0,11.4-5.105,11.4-11.4v-48c0-6.293-5.106-11.399-11.4-11.399h-12
	c-6.3,0-11.4,5.106-11.4,11.399v48C48,269.695,53.101,274.8,59.4,274.8z M59.4,382.8h12c6.3,0,11.4-5.105,11.4-11.4v-48
	c0-6.293-5.106-11.4-11.4-11.4h-12c-6.3,0-11.4,5.107-11.4,11.4v48C48,377.695,53.101,382.8,59.4,382.8z"/>
</svg>
