<?xml version="1.0" encoding="utf-8"?>
<!-- Generator: Adobe Illustrator 16.0.0, SVG Export Plug-In . SVG Version: 6.00 Build 0)  -->
<!DOCTYPE svg PUBLIC "-//W3C//DTD SVG 1.1//EN" "http://www.w3.org/Graphics/SVG/1.1/DTD/svg11.dtd">
<svg version="1.1" id="Layer_1" xmlns="http://www.w3.org/2000/svg" xmlns:xlink="http://www.w3.org/1999/xlink" x="0px" y="0px"
	 width="520px" height="520px" viewBox="0 0 520 520" enable-background="new 0 0 520 520" xml:space="preserve">
<polygon fill="#FFFFFF" stroke="#000000" stroke-miterlimit="10" points="198.5,207.1 198.5,176.1 249.5,176.1 249.5,207.1 
	366.5,207.1 449.5,283.1 449.5,505.101 66.5,505.101 66.5,284.1 149.5,210.1 "/>
<path d="M459.416,271.949l-84-72c-0.181-0.149-0.377-0.259-0.564-0.396c-0.264-0.205-0.52-0.396-0.803-0.576
	c-0.342-0.217-0.697-0.396-1.058-0.576c-0.271-0.133-0.532-0.271-0.815-0.385c-0.426-0.168-0.855-0.287-1.289-0.401
	c-0.252-0.065-0.484-0.149-0.744-0.198c-0.715-0.139-1.434-0.216-2.158-0.216H265.399V172.6c0-6.293-5.105-11.4-11.4-11.4h-54
	c-6.293,0-11.4,5.107-11.4,11.4v24.6H152c-2.724,0-5.352,0.972-7.416,2.748l-84,72c-2.532,2.16-3.984,5.321-3.984,8.651v228.001
	C56.6,514.896,61.706,520,68,520h210c1.045,0,2.041-0.188,3-0.448c0.961,0.264,1.957,0.448,3,0.448h168
	c6.295,0,11.399-5.104,11.399-11.399V280.6C463.399,277.27,461.948,274.108,459.416,271.949z M211.399,184h31.2v13.2h-31.2V184
	L211.399,184z M272.6,497.2h-81.334c1.332-1.863,2.136-4.133,2.136-6.6v-66c0-6.294-5.106-11.4-11.399-11.4h-12
	c-6.294,0-11.4,5.106-11.4,11.4v66c0,2.467,0.804,4.733,2.136,6.6H79.399V298h193.2V497.2z M276.584,271.949
	c-1.074,0.918-1.902,2.041-2.562,3.252H91.813l11.232-9.623c1.926,1.5,4.32,2.424,6.954,2.424h12c6.294,0,11.4-5.105,11.4-11.399
	c0-4.902-3.114-9.049-7.452-10.656l9.264-7.944H146c6.294,0,11.4-5.105,11.4-11.399c0-2.244-0.672-4.32-1.788-6.084l0.606-0.517
	h16.518c-1.332,1.866-2.136,4.134-2.136,6.601c0,6.293,5.106,11.399,11.399,11.399h12c6.295,0,11.4-5.105,11.4-11.399
	c0-2.467-0.804-4.734-2.136-6.601h17.472c-1.332,1.866-2.136,4.134-2.136,6.601c0,6.293,5.106,11.399,11.399,11.399h12
	c6.295,0,11.4-5.105,11.4-11.399c0-2.467-0.804-4.734-2.136-6.601h2.735h14.736c-1.332,1.866-2.137,4.134-2.137,6.601
	c0,6.293,5.105,11.399,11.4,11.399h12c6.293,0,11.399-5.105,11.399-11.399c0-2.467-0.808-4.734-2.139-6.601h17.475
	c-1.332,1.866-2.139,4.134-2.139,6.601c0,3.654,1.752,6.875,4.43,8.963L276.584,271.949z M440.6,497.2h-145.2V285.844L368,223.613
	l72.6,62.23V497.2z M344,323.2h-12c-6.293,0-11.4,5.106-11.4,11.399v48c0,6.295,5.107,11.399,11.4,11.399h12
	c6.295,0,11.399-5.104,11.399-11.399v-48C355.399,328.307,350.295,323.2,344,323.2z M398,394h12c6.295,0,11.399-5.105,11.399-11.4
	v-48c0-6.293-5.104-11.398-11.399-11.398h-12c-6.293,0-11.4,5.105-11.4,11.398v48C386.6,388.895,391.707,394,398,394z M344,413.2
	h-12c-6.293,0-11.4,5.106-11.4,11.4v48c0,6.295,5.107,11.399,11.4,11.399h12c6.295,0,11.399-5.104,11.399-11.399v-48
	C355.399,418.307,350.295,413.2,344,413.2z M398,484h12c6.295,0,11.399-5.104,11.399-11.399v-48c0-6.294-5.104-11.4-11.399-11.4h-12
	c-6.293,0-11.4,5.106-11.4,11.4v48C386.6,478.896,391.707,484,398,484z M170,394h12c6.295,0,11.4-5.105,11.4-11.4v-48
	c0-6.293-5.105-11.398-11.4-11.398h-12c-6.294-0.001-11.4,5.105-11.4,11.398v48C158.6,388.895,163.706,394,170,394z M224,394h12
	c6.295,0,11.4-5.105,11.4-11.4v-48c0-6.293-5.105-11.398-11.4-11.398h-12c-6.293-0.001-11.4,5.105-11.4,11.398v48
	C212.6,388.895,217.707,394,224,394z M224,484h12c6.295,0,11.4-5.104,11.4-11.399v-48c0-6.294-5.105-11.4-11.4-11.4h-12
	c-6.293,0-11.399,5.106-11.399,11.4v48C212.6,478.896,217.707,484,224,484z M116,394h12c6.294,0,11.4-5.105,11.4-11.4v-48
	c0-6.293-5.106-11.398-11.4-11.398h-12c-6.294-0.001-11.4,5.105-11.4,11.398v48C104.6,388.895,109.706,394,116,394z M116,484h12
	c6.294,0,11.4-5.104,11.4-11.399v-48c0-6.294-5.106-11.4-11.4-11.4h-12c-6.294,0-11.4,5.106-11.4,11.4v48
	C104.6,478.896,109.706,484,116,484z M170,245.2h-12c-6.294,0-11.4,5.107-11.4,11.4c0,6.294,5.106,11.4,11.4,11.4h12
	c6.295,0,11.4-5.105,11.4-11.4C181.399,250.307,176.294,245.2,170,245.2z M218,245.2h-12c-6.293,0-11.4,5.107-11.4,11.4
	c0,6.294,5.106,11.4,11.399,11.4h12c6.295,0,11.4-5.105,11.4-11.4C229.399,250.307,224.294,245.2,218,245.2z M266,245.2h-12
	c-6.293,0-11.4,5.107-11.4,11.4c0,6.294,5.106,11.4,11.399,11.4h12c6.295,0,11.4-5.105,11.4-11.4
	C277.399,250.307,272.295,245.2,266,245.2z"/>
</svg>
