<?xml version="1.0" encoding="utf-8"?>
<!-- Generator: Adobe Illustrator 16.0.0, SVG Export Plug-In . SVG Version: 6.00 Build 0)  -->
<!DOCTYPE svg PUBLIC "-//W3C//DTD SVG 1.1//EN" "http://www.w3.org/Graphics/SVG/1.1/DTD/svg11.dtd">
<svg version="1.1" id="Layer_1" xmlns="http://www.w3.org/2000/svg" xmlns:xlink="http://www.w3.org/1999/xlink" x="0px" y="0px"
	 width="406.8px" height="358.8px" viewBox="96.6 210.6 406.8 358.8" enable-background="new 96.6 210.6 406.8 358.8"
	 xml:space="preserve">
<polygon fill="#FFFFFF" stroke="#000000" stroke-miterlimit="10" points="240.5,222.5 240.5,254.5 194.5,259.5 108.5,329.5 
	108.5,560.5 488.5,560.5 488.5,326.5 404.5,258.5 292.5,260.5 292.5,222.5 "/>
<path d="M499.416,321.348l-84-72c-0.18-0.15-0.378-0.258-0.564-0.396c-0.264-0.204-0.521-0.396-0.804-0.576
	c-0.342-0.216-0.696-0.396-1.056-0.576c-0.271-0.132-0.534-0.27-0.816-0.384c-0.426-0.168-0.857-0.288-1.29-0.402
	c-0.252-0.066-0.485-0.15-0.744-0.198c-0.714-0.138-1.434-0.216-2.159-0.216H305.4V222c0-6.294-5.106-11.4-11.4-11.4h-54
	c-6.294,0-11.4,5.106-11.4,11.4v24.6H192c-2.724,0-5.352,0.972-7.416,2.748l-84,72c-2.532,2.16-3.984,5.322-3.984,8.652v228
	c0,6.294,5.106,11.4,11.4,11.4h210c1.044,0,2.04-0.187,3-0.45c0.96,0.264,1.956,0.45,3,0.45h168c6.294,0,11.4-5.106,11.4-11.4V330
	C503.4,326.67,501.948,323.508,499.416,321.348z M301.416,272.652c1.098-0.942,1.944-2.058,2.592-3.252h19.176l-60.605,51.948
	c-1.098,0.942-1.944,2.059-2.592,3.252H240.81L301.416,272.652z M251.4,233.4h31.2v13.2h-31.2V233.4z M250.218,269.4h19.974
	l-64.404,55.2h-19.974L250.218,269.4z M196.218,269.4h18.972l-60.606,51.948c-1.098,0.942-1.944,2.059-2.592,3.252h-20.178
	L196.218,269.4z M312.6,546.6h-81.335c1.332-1.865,2.136-4.134,2.136-6.6v-66c0-6.294-5.106-11.4-11.4-11.4h-12
	c-6.294,0-11.4,5.106-11.4,11.4v66c0,2.466,0.804,4.734,2.136,6.6H119.4V347.4h193.2V546.6z M316.584,321.348
	c-1.074,0.918-1.902,2.041-2.562,3.252h-20.208l64.404-55.2h18.973L316.584,321.348z M480.6,546.6H335.4V335.244l72.6-62.232
	l72.6,62.232V546.6z M384,372.6h-12c-6.294,0-11.4,5.106-11.4,11.4v48c0,6.294,5.106,11.4,11.4,11.4h12
	c6.294,0,11.4-5.106,11.4-11.4v-48C395.4,377.706,390.294,372.6,384,372.6z M438,443.4h12c6.294,0,11.4-5.106,11.4-11.4v-48
	c0-6.294-5.106-11.4-11.4-11.4h-12c-6.294,0-11.4,5.106-11.4,11.4v48C426.6,438.294,431.706,443.4,438,443.4z M384,462.6h-12
	c-6.294,0-11.4,5.106-11.4,11.4v48c0,6.294,5.106,11.4,11.4,11.4h12c6.294,0,11.4-5.106,11.4-11.4v-48
	C395.4,467.706,390.294,462.6,384,462.6z M438,533.4h12c6.294,0,11.4-5.106,11.4-11.4v-48c0-6.294-5.106-11.4-11.4-11.4h-12
	c-6.294,0-11.4,5.106-11.4,11.4v48C426.6,528.294,431.706,533.4,438,533.4z M210,443.4h12c6.294,0,11.4-5.106,11.4-11.4v-48
	c0-6.294-5.106-11.4-11.4-11.4h-12c-6.294,0-11.4,5.106-11.4,11.4v48C198.6,438.294,203.706,443.4,210,443.4z M264,443.4h12
	c6.294,0,11.4-5.106,11.4-11.4v-48c0-6.294-5.106-11.4-11.4-11.4h-12c-6.294,0-11.4,5.106-11.4,11.4v48
	C252.6,438.294,257.706,443.4,264,443.4z M264,533.4h12c6.294,0,11.4-5.106,11.4-11.4v-48c0-6.294-5.106-11.4-11.4-11.4h-12
	c-6.294,0-11.4,5.106-11.4,11.4v48C252.6,528.294,257.706,533.4,264,533.4z M156,443.4h12c6.294,0,11.4-5.106,11.4-11.4v-48
	c0-6.294-5.106-11.4-11.4-11.4h-12c-6.294,0-11.4,5.106-11.4,11.4v48C144.6,438.294,149.706,443.4,156,443.4z M156,533.4h12
	c6.294,0,11.4-5.106,11.4-11.4v-48c0-6.294-5.106-11.4-11.4-11.4h-12c-6.294,0-11.4,5.106-11.4,11.4v48
	C144.6,528.294,149.706,533.4,156,533.4z"/>
</svg>
