<?xml version="1.0" encoding="utf-8"?>
<!-- Generator: Adobe Illustrator 16.0.0, SVG Export Plug-In . SVG Version: 6.00 Build 0)  -->
<!DOCTYPE svg PUBLIC "-//W3C//DTD SVG 1.1//EN" "http://www.w3.org/Graphics/SVG/1.1/DTD/svg11.dtd">
<svg version="1.1" id="Layer_1" xmlns="http://www.w3.org/2000/svg" xmlns:xlink="http://www.w3.org/1999/xlink" x="0px" y="0px"
	 width="520px" height="520px" viewBox="-29.951 -80.6 520 520" enable-background="new -29.951 -80.6 520 520"
	 xml:space="preserve">
<polygon fill="#FFFFFF" stroke="#000000" stroke-miterlimit="10" points="146.549,64.9 146.549,15.9 187.549,15.9 192.549,64.9 
	362.549,64.9 446.549,179.4 446.549,343.9 13.549,343.9 13.549,179.4 91.549,63.9 "/>
<path d="M458.229,172.638l-84-114c-0.096-0.126-0.223-0.21-0.316-0.33c-0.445-0.552-0.926-1.056-1.459-1.512
	c-0.047-0.036-0.09-0.072-0.139-0.113c-1.979-1.65-4.486-2.683-7.266-2.683H202.449V11.4C202.449,5.107,197.342,0,191.049,0h-42
	c-6.294,0-11.4,5.106-11.4,11.399V54h-42.6c-3.624,0-7.026,1.722-9.18,4.638l-84,114c-0.03,0.049-0.042,0.102-0.078,0.15
	c-0.612,0.852-1.08,1.787-1.44,2.789c-0.072,0.203-0.126,0.408-0.192,0.617c-0.3,1.026-0.51,2.082-0.51,3.205v168
	c0,6.293,5.106,11.4,11.4,11.4h264c1.043,0,2.039-0.188,3-0.451c0.959,0.264,1.955,0.451,3,0.451h168c6.293,0,11.4-5.107,11.4-11.4
	v-168C460.45,176.964,459.668,174.593,458.229,172.638z M288.489,76.8L221.29,168h-25.681l67.2-91.2H288.489L288.489,76.8z
	 M208.809,76.8h25.674l-67.2,91.2h-25.674L208.809,76.8z M160.449,22.8h19.2V54h-19.2V22.8z M154.809,76.8h25.674l-67.2,91.2H87.609
	L154.809,76.8z M100.809,76.8h25.68l-67.2,91.2h-25.68L100.809,76.8z M269.649,336H158.313c1.332-1.863,2.136-4.133,2.136-6.6v-66
	c0-6.293-5.106-11.4-11.4-11.4h-12c-6.294,0-11.4,5.107-11.4,11.4v66c0,2.467,0.804,4.734,2.136,6.6H22.449V190.8h247.2V336z
	 M275.27,168.025c-0.078,0-0.143-0.024-0.221-0.024h-25.441l67.201-91.2h25.674L275.27,168.025z M437.649,336H292.45V183.15
	l72.6-98.531l72.6,98.525V336z M347.649,233.4v48c0,6.295,5.105,11.4,11.4,11.4h12c6.293,0,11.4-5.105,11.4-11.4v-48
	c0-6.293-5.107-11.4-11.4-11.4h-12C352.754,222,347.649,227.107,347.649,233.4z M191.049,292.8h36c6.293,0,11.4-5.105,11.4-11.4v-48
	c0-6.293-5.107-11.4-11.4-11.4h-36c-6.295,0-11.4,5.107-11.4,11.4v48C179.649,287.695,184.754,292.8,191.049,292.8z M59.049,292.8
	h36c6.294,0,11.4-5.105,11.4-11.4v-48c0-6.293-5.106-11.4-11.4-11.4h-36c-6.294,0-11.4,5.107-11.4,11.4v48
	C47.649,287.695,52.755,292.8,59.049,292.8z"/>
</svg>
