<?xml version="1.0" encoding="utf-8"?>
<!-- Generator: Adobe Illustrator 16.0.0, SVG Export Plug-In . SVG Version: 6.00 Build 0)  -->
<!DOCTYPE svg PUBLIC "-//W3C//DTD SVG 1.1//EN" "http://www.w3.org/Graphics/SVG/1.1/DTD/svg11.dtd">
<svg version="1.1" id="Layer_1" xmlns="http://www.w3.org/2000/svg" xmlns:xlink="http://www.w3.org/1999/xlink" x="0px" y="0px"
	 width="514.8px" height="358.8px" viewBox="42.6 210.6 514.8 358.8" enable-background="new 42.6 210.6 514.8 358.8"
	 xml:space="preserve">
<polygon fill="#FFFFFF" stroke="#000000" stroke-miterlimit="10" points="232.5,250.5 232.5,225.5 285.5,225.5 285.5,254.5 
	461.5,254.5 544.5,333.5 544.5,556.5 55.5,556.5 55.5,332.5 137.5,258.5 "/>
<path d="M553.416,321.348l-84-72c-0.168-0.144-0.366-0.252-0.546-0.384c-0.271-0.21-0.54-0.408-0.828-0.594
	c-0.342-0.21-0.684-0.39-1.038-0.564c-0.275-0.132-0.546-0.276-0.84-0.39c-0.414-0.168-0.846-0.282-1.278-0.396
	c-0.252-0.066-0.492-0.15-0.75-0.198c-0.714-0.138-1.434-0.216-2.16-0.216H299.4V222c0-6.294-5.106-11.4-11.4-11.4h-54
	c-6.3,0-11.4,5.106-11.4,11.4v24.6H138c-2.718,0-5.358,0.972-7.416,2.748l-84,72c-2.526,2.16-3.984,5.322-3.984,8.652v228
	c0,6.294,5.106,11.4,11.4,11.4h318c1.044,0,2.04-0.187,3-0.45c0.96,0.264,1.956,0.45,3,0.45h168c6.3,0,11.4-5.106,11.4-11.4V330
	C557.4,326.67,555.942,323.508,553.416,321.348z M245.4,233.4h31.2v13.2h-31.2V233.4z M366.6,546.6H231.27
	c1.332-1.865,2.13-4.134,2.13-6.6v-66c0-6.294-5.106-11.4-11.4-11.4h-12c-6.3,0-11.4,5.106-11.4,11.4v66
	c0,2.466,0.804,4.734,2.13,6.6H65.4V347.4h301.2V546.6z M534.6,546.6H389.4V335.244l72.6-62.232l72.6,62.232V546.6z M444.6,384v48
	c0,6.294,5.106,11.4,11.4,11.4h12c6.3,0,11.4-5.106,11.4-11.4v-48c0-6.294-5.106-11.4-11.4-11.4h-12
	C449.7,372.6,444.6,377.706,444.6,384z M468,462.6h-12c-6.3,0-11.4,5.106-11.4,11.4v48c0,6.294,5.106,11.4,11.4,11.4h12
	c6.3,0,11.4-5.106,11.4-11.4v-48C479.4,467.706,474.3,462.6,468,462.6z M210,443.4h12c6.3,0,11.4-5.106,11.4-11.4v-48
	c0-6.294-5.106-11.4-11.4-11.4h-12c-6.3,0-11.4,5.106-11.4,11.4v48C198.6,438.294,203.7,443.4,210,443.4z M264,443.4h12
	c6.3,0,11.4-5.106,11.4-11.4v-48c0-6.294-5.106-11.4-11.4-11.4h-12c-6.3,0-11.4,5.106-11.4,11.4v48
	C252.6,438.294,257.7,443.4,264,443.4z M264,533.4h12c6.3,0,11.4-5.106,11.4-11.4v-48c0-6.294-5.106-11.4-11.4-11.4h-12
	c-6.3,0-11.4,5.106-11.4,11.4v48C252.6,528.294,257.7,533.4,264,533.4z M156,443.4h12c6.3,0,11.4-5.106,11.4-11.4v-48
	c0-6.294-5.106-11.4-11.4-11.4h-12c-6.3,0-11.4,5.106-11.4,11.4v48C144.6,438.294,149.7,443.4,156,443.4z M156,533.4h12
	c6.3,0,11.4-5.106,11.4-11.4v-48c0-6.294-5.106-11.4-11.4-11.4h-12c-6.3,0-11.4,5.106-11.4,11.4v48
	C144.6,528.294,149.7,533.4,156,533.4z M318,443.4h12c6.3,0,11.4-5.106,11.4-11.4v-48c0-6.294-5.106-11.4-11.4-11.4h-12
	c-6.3,0-11.4,5.106-11.4,11.4v48C306.6,438.294,311.7,443.4,318,443.4z M318,533.4h12c6.3,0,11.4-5.106,11.4-11.4v-48
	c0-6.294-5.106-11.4-11.4-11.4h-12c-6.3,0-11.4,5.106-11.4,11.4v48C306.6,528.294,311.7,533.4,318,533.4z M102,443.4h12
	c6.3,0,11.4-5.106,11.4-11.4v-48c0-6.294-5.106-11.4-11.4-11.4h-12c-6.3,0-11.4,5.106-11.4,11.4v48
	C90.6,438.294,95.7,443.4,102,443.4z M102,533.4h12c6.3,0,11.4-5.106,11.4-11.4v-48c0-6.294-5.106-11.4-11.4-11.4h-12
	c-6.3,0-11.4,5.106-11.4,11.4v48C90.6,528.294,95.7,533.4,102,533.4z"/>
</svg>
