<?xml version="1.0" encoding="utf-8"?>
<!-- Generator: Adobe Illustrator 16.0.0, SVG Export Plug-In . SVG Version: 6.00 Build 0)  -->
<!DOCTYPE svg PUBLIC "-//W3C//DTD SVG 1.1//EN" "http://www.w3.org/Graphics/SVG/1.1/DTD/svg11.dtd">
<svg version="1.1" id="Layer_1" xmlns="http://www.w3.org/2000/svg" xmlns:xlink="http://www.w3.org/1999/xlink" x="0px" y="0px"
	 width="520px" height="520px" viewBox="0 0 520 520" enable-background="new 0 0 520 520" xml:space="preserve">
<polygon fill="#FFFFFF" stroke="#000000" stroke-miterlimit="10" points="204.5,119.1 204.5,85.1 260,85.1 260,119.1 368.5,119.1 
	450.5,231.1 450.5,506.101 67.5,506.101 67.5,233.1 149.5,120.1 "/>
<path d="M461.174,225.838l-84-114c-0.084-0.114-0.197-0.188-0.281-0.294c-0.457-0.563-0.953-1.086-1.5-1.554
	c-0.043-0.036-0.084-0.066-0.127-0.102c-1.967-1.656-4.487-2.688-7.266-2.688h-96.601V82.6c0-6.294-5.104-11.4-11.4-11.4h-54
	c-6.299,0-11.4,5.106-11.4,11.4v24.6H152c-3.624,0-7.032,1.722-9.174,4.638l-84,114c-0.03,0.042-0.042,0.09-0.072,0.133
	c-0.618,0.857-1.092,1.805-1.452,2.813c-0.072,0.204-0.126,0.401-0.186,0.606c-0.306,1.026-0.516,2.089-0.516,3.21v276
	C56.6,514.896,61.706,520,68,520h210c1.045,0,2.041-0.188,3-0.449c0.961,0.265,1.957,0.449,3,0.449h168
	c6.301,0,11.399-5.104,11.399-11.399v-276C463.399,230.164,462.627,227.794,461.174,225.838z M217.399,94h31.2v13.2h-31.2V94z
	 M272.6,497.2h-81.33c1.332-1.863,2.13-4.133,2.13-6.6v-66c0-6.293-5.105-11.4-11.4-11.4h-12c-6.299,0-11.399,5.107-11.399,11.4v66
	c0,2.467,0.804,4.733,2.13,6.6H79.399V244h193.2V497.2z M440.6,497.2h-145.2V236.35L368,137.818l72.6,98.526V497.2z M344,275.2h-12
	c-6.299,0-11.4,5.106-11.4,11.399v47.999c0,6.295,5.107,11.4,11.4,11.4h12c6.301,0,11.399-5.105,11.399-11.4V286.6
	C355.399,280.307,350.301,275.2,344,275.2z M398,346h12c6.301,0,11.399-5.104,11.399-11.399V286.6
	c0-6.293-5.104-11.398-11.399-11.398h-12c-6.3,0-11.4,5.105-11.4,11.398v48.001C386.6,340.896,391.7,346,398,346z M344,383.2h-12
	c-6.299,0-11.4,5.107-11.4,11.4v48c0,6.295,5.107,11.399,11.4,11.399h12c6.301,0,11.399-5.104,11.399-11.399v-48
	C355.399,388.308,350.301,383.2,344,383.2z M398,454h12c6.301,0,11.399-5.104,11.399-11.399v-48c0-6.293-5.104-11.4-11.399-11.4h-12
	c-6.3,0-11.4,5.107-11.4,11.4v48C386.6,448.896,391.7,454,398,454z M170,346h12c6.301,0,11.4-5.104,11.4-11.399V286.6
	c0-6.293-5.105-11.398-11.4-11.398h-12c-6.299-0.001-11.4,5.105-11.4,11.398v48.001C158.6,340.896,163.701,346,170,346z M224,346h12
	c6.301,0,11.4-5.104,11.4-11.399V286.6c0-6.293-5.105-11.398-11.4-11.398h-12c-6.299-0.001-11.4,5.105-11.4,11.398v48.001
	C212.6,340.896,217.701,346,224,346z M224,454h12c6.301,0,11.4-5.104,11.4-11.399v-48c0-6.293-5.105-11.4-11.4-11.4h-12
	c-6.299,0-11.399,5.107-11.399,11.4v48C212.6,448.896,217.701,454,224,454z M116,346h12c6.3,0,11.4-5.104,11.4-11.399V286.6
	c0-6.293-5.106-11.398-11.4-11.398h-12c-6.3,0-11.4,5.105-11.4,11.398v48.001C104.6,340.896,109.701,346,116,346z M116,454h12
	c6.3,0,11.4-5.104,11.4-11.399v-48c0-6.293-5.106-11.4-11.4-11.4h-12c-6.3,0-11.4,5.107-11.4,11.4v48
	C104.6,448.896,109.701,454,116,454z"/>
</svg>
