<?xml version="1.0" encoding="utf-8"?>
<!-- Generator: Adobe Illustrator 16.0.0, SVG Export Plug-In . SVG Version: 6.00 Build 0)  -->
<!DOCTYPE svg PUBLIC "-//W3C//DTD SVG 1.1//EN" "http://www.w3.org/Graphics/SVG/1.1/DTD/svg11.dtd">
<svg version="1.1" id="Layer_1" xmlns="http://www.w3.org/2000/svg" xmlns:xlink="http://www.w3.org/1999/xlink" x="0px" y="0px"
	 width="520px" height="520px" viewBox="0 0 520 520" enable-background="new 0 0 520 520" xml:space="preserve">
<polygon fill="#FFFFFF" stroke="#000000" stroke-miterlimit="10" points="200.5,82.1 200.5,50.1 251.5,50.1 251.5,82.1 365.5,89.1 
	449.5,165.1 449.5,508.101 68.5,508.101 68.5,160.1 150.5,90.1 "/>
<path d="M459.416,151.949l-84-72c-0.181-0.15-0.377-0.258-0.564-0.396c-0.264-0.204-0.52-0.396-0.803-0.576
	c-0.342-0.216-0.697-0.396-1.058-0.576c-0.271-0.132-0.532-0.27-0.815-0.384c-0.426-0.168-0.855-0.288-1.289-0.402
	c-0.252-0.066-0.484-0.15-0.744-0.198c-0.715-0.138-1.434-0.216-2.158-0.216H265.399V52.6c0-6.294-5.105-11.4-11.4-11.4h-54
	c-6.293,0-11.4,5.106-11.4,11.4v24.6H152c-2.724,0-5.352,0.972-7.416,2.748l-84,72c-2.532,2.16-3.984,5.322-3.984,8.652v348
	C56.6,514.896,61.706,520,68,520h210c1.045,0,2.041-0.188,3-0.449c0.961,0.265,1.957,0.449,3,0.449h168
	c6.295,0,11.399-5.104,11.399-11.399v-348C463.399,157.27,461.948,154.108,459.416,151.949z M211.399,64h31.2v13.2h-31.2V64
	L211.399,64z M272.6,497.2h-81.334c1.332-1.863,2.136-4.133,2.136-6.6v-66c0-6.293-5.106-11.4-11.399-11.4h-12
	c-6.294,0-11.4,5.107-11.4,11.4v66c0,2.467,0.804,4.733,2.136,6.6H79.399V178h193.2V497.2z M276.584,151.949
	c-1.074,0.918-1.902,2.04-2.562,3.252H91.813l11.232-9.624c1.926,1.5,4.32,2.424,6.954,2.424h12c6.294,0,11.4-5.106,11.4-11.4
	c0-4.902-3.114-9.048-7.452-10.656l9.264-7.944H146c6.294,0,11.4-5.106,11.4-11.4c0-2.244-0.672-4.32-1.788-6.084l0.606-0.516
	h16.518c-1.332,1.866-2.136,4.134-2.136,6.6c0,6.294,5.106,11.4,11.399,11.4h12c6.295,0,11.4-5.106,11.4-11.4
	c0-2.466-0.804-4.734-2.136-6.6h17.472c-1.332,1.866-2.136,4.134-2.136,6.6c0,6.294,5.106,11.4,11.399,11.4h12
	c6.295,0,11.4-5.106,11.4-11.4c0-2.466-0.804-4.734-2.136-6.6h2.735h14.736c-1.332,1.866-2.137,4.134-2.137,6.6
	c0,6.294,5.105,11.4,11.4,11.4h12c6.293,0,11.399-5.106,11.399-11.4c0-2.466-0.808-4.734-2.139-6.6h17.475
	c-1.332,1.866-2.139,4.134-2.139,6.6c0,3.654,1.752,6.876,4.43,8.964L276.584,151.949z M440.6,497.2h-145.2V165.845L368,103.613
	l72.6,62.232V497.2z M344,197.2h-12c-6.293,0-11.4,5.106-11.4,11.399v48c0,6.295,5.107,11.4,11.4,11.4h12
	c6.295,0,11.399-5.104,11.399-11.4v-48C355.399,202.307,350.295,197.2,344,197.2z M398,268h12c6.295,0,11.399-5.105,11.399-11.4v-48
	c0-6.293-5.104-11.399-11.399-11.399h-12c-6.293,0-11.4,5.106-11.4,11.399v48C386.6,262.895,391.707,268,398,268z M344,305.2h-12
	c-6.293,0-11.4,5.105-11.4,11.398v48c0,6.295,5.107,11.4,11.4,11.4h12c6.295,0,11.399-5.105,11.399-11.4v-48
	C355.399,310.308,350.295,305.2,344,305.2z M398,376h12c6.295,0,11.399-5.104,11.399-11.399v-48c0-6.293-5.104-11.399-11.399-11.399
	h-12c-6.293,0-11.4,5.106-11.4,11.399v48C386.6,370.896,391.707,376,398,376z M170,268h12c6.295,0,11.4-5.105,11.4-11.4v-48
	c0-6.293-5.105-11.399-11.4-11.399h-12c-6.294-0.001-11.4,5.106-11.4,11.399v48C158.6,262.895,163.706,268,170,268z M224,268h12
	c6.295,0,11.4-5.105,11.4-11.4v-48c0-6.293-5.105-11.399-11.4-11.399h-12c-6.293-0.001-11.4,5.106-11.4,11.399v48
	C212.6,262.895,217.707,268,224,268z M170,376h12c6.295,0,11.4-5.104,11.4-11.399v-48c0-6.293-5.105-11.399-11.4-11.399h-12
	c-6.294-0.001-11.4,5.106-11.4,11.399v48C158.6,370.896,163.706,376,170,376z M224,376h12c6.295,0,11.4-5.104,11.4-11.399v-48
	c0-6.293-5.105-11.399-11.4-11.399h-12c-6.293-0.001-11.4,5.106-11.4,11.399v48C212.6,370.896,217.707,376,224,376z M116,268h12
	c6.294,0,11.4-5.105,11.4-11.4v-48c0-6.293-5.106-11.399-11.4-11.399h-12c-6.294-0.001-11.4,5.106-11.4,11.399v48
	C104.6,262.895,109.706,268,116,268z M116,376h12c6.294,0,11.4-5.104,11.4-11.399v-48c0-6.293-5.106-11.399-11.4-11.399h-12
	c-6.294-0.001-11.4,5.106-11.4,11.399v48C104.6,370.896,109.706,376,116,376z M266,125.2h-12c-6.293,0-11.4,5.106-11.4,11.4
	s5.106,11.4,11.399,11.4h12c6.295,0,11.4-5.106,11.4-11.4S272.295,125.2,266,125.2z M218,125.2h-12c-6.293,0-11.4,5.106-11.4,11.4
	s5.106,11.4,11.399,11.4h12c6.295,0,11.4-5.106,11.4-11.4S224.294,125.2,218,125.2z M170,125.2h-12c-6.294,0-11.4,5.106-11.4,11.4
	S151.706,148,158,148h12c6.295,0,11.4-5.106,11.4-11.4S176.294,125.2,170,125.2z"/>
</svg>
