<?xml version="1.0" encoding="utf-8"?>
<!-- Generator: Adobe Illustrator 16.0.0, SVG Export Plug-In . SVG Version: 6.00 Build 0)  -->
<!DOCTYPE svg PUBLIC "-//W3C//DTD SVG 1.1//EN" "http://www.w3.org/Graphics/SVG/1.1/DTD/svg11.dtd">
<svg version="1.1" id="Layer_1" xmlns="http://www.w3.org/2000/svg" xmlns:xlink="http://www.w3.org/1999/xlink" x="0px" y="0px"
	 width="520px" height="520px" viewBox="-56.6 -92.6 520 520" enable-background="new -56.6 -92.6 520 520" xml:space="preserve">
<polygon fill="#FFFFFF" points="147.9,65.4 147.9,10.9 189.9,10.9 189.9,65.4 309.9,65.4 393.9,176.9 393.9,319.9 11.9,319.9 
	11.9,178.9 "/>
<path d="M404.58,172.638l-84-114c-0.096-0.126-0.221-0.21-0.316-0.33c-0.443-0.552-0.924-1.056-1.457-1.512
	c-0.049-0.036-0.09-0.072-0.141-0.113C316.687,55.033,314.179,54,311.4,54H202.8V11.4C202.8,5.107,197.695,0,191.4,0h-42
	C143.107,0,138,5.107,138,11.4V54H95.4c-3.624,0-7.026,1.722-9.18,4.638l-84,114c-0.03,0.049-0.042,0.102-0.078,0.15
	c-0.612,0.852-1.08,1.787-1.44,2.789c-0.072,0.203-0.126,0.408-0.192,0.617C0.21,177.221,0,178.277,0,179.4v144
	c0,6.293,5.106,11.4,11.4,11.4h210c1.045,0,2.041-0.188,3-0.451c0.961,0.264,1.957,0.451,3,0.451h168c6.295,0,11.4-5.107,11.4-11.4
	v-144C406.8,176.964,406.021,174.593,404.58,172.638z M160.8,22.8H180V54h-19.2V22.8z M216,312H22.8V190.8H216V312z M384,312h-55.26
	c0.012-0.203,0.062-0.395,0.062-0.6v-66c0-6.293-5.107-11.4-11.4-11.4h-12c-6.295,0-11.4,5.107-11.4,11.4v66
	c0,0.205,0.049,0.396,0.061,0.6H238.8V183.15l72.6-98.531l72.6,98.525V312z M53.4,286.8h48c6.294,0,11.4-5.105,11.4-11.4v-48
	c0-6.293-5.105-11.4-11.4-11.4h-48c-6.294,0-11.4,5.107-11.4,11.4v48C42,281.695,47.106,286.8,53.4,286.8z M137.4,286.8h48
	c6.295,0,11.4-5.105,11.4-11.4v-48c0-6.293-5.105-11.4-11.4-11.4h-48c-6.293,0-11.399,5.107-11.399,11.4v48
	C126,281.695,131.107,286.8,137.4,286.8z"/>
</svg>
