<?xml version="1.0" encoding="utf-8"?>
<!-- Generator: Adobe Illustrator 16.0.0, SVG Export Plug-In . SVG Version: 6.00 Build 0)  -->
<!DOCTYPE svg PUBLIC "-//W3C//DTD SVG 1.1//EN" "http://www.w3.org/Graphics/SVG/1.1/DTD/svg11.dtd">
<svg version="1.1" id="Layer_1" xmlns="http://www.w3.org/2000/svg" xmlns:xlink="http://www.w3.org/1999/xlink" x="0px" y="0px"
	 width="520px" height="520px" viewBox="-2.6 -80.6 520 520" enable-background="new -2.6 -80.6 520 520" xml:space="preserve">
<polygon fill="#FFFFFF" stroke="#000000" stroke-miterlimit="10" points="190.9,11.9 245.9,11.9 245.9,45.9 415.9,45.9 502.9,120.9 
	502.9,344.9 10.9,344.9 10.9,124.9 94.9,46.9 189.9,46.9 "/>
<path d="M510.816,110.749l-84-72c-0.168-0.144-0.365-0.252-0.545-0.384c-0.271-0.211-0.541-0.408-0.828-0.594
	c-0.342-0.211-0.684-0.391-1.039-0.564c-0.273-0.133-0.545-0.276-0.84-0.391c-0.414-0.168-0.846-0.281-1.277-0.396
	c-0.252-0.065-0.492-0.149-0.75-0.198c-0.715-0.138-1.434-0.216-2.16-0.216H256.8V11.4C256.8,5.107,251.695,0,245.4,0h-54
	C185.101,0,180,5.107,180,11.4V36H95.4c-2.718,0-5.358,0.972-7.416,2.748l-84,72C1.458,112.908,0,116.07,0,119.4v228
	c0,6.295,5.106,11.4,11.4,11.4h318c1.045,0,2.041-0.188,3-0.449c0.961,0.264,1.957,0.449,3,0.449h168c6.301,0,11.4-5.105,11.4-11.4
	v-228C514.8,116.07,513.343,112.908,510.816,110.749z M315.408,58.8h20.178L271.189,114h-18.972l60.606-51.948
	C313.914,61.117,314.767,60,315.408,58.8z M261.613,58.8h19.973L217.189,114h-19.974L261.613,58.8z M202.8,22.8H234V36h-31.2V22.8
	L202.8,22.8z M207.612,58.8h18.972l-60.606,51.948c-1.098,0.942-1.944,2.06-2.592,3.252h-20.178L207.612,58.8z M172.584,58.8
	l-60.606,51.948c-1.098,0.942-1.944,2.06-2.592,3.252H89.208l64.398-55.2H172.584z M99.618,58.8h18.966l-60.606,51.948
	c-1.098,0.942-1.944,2.06-2.592,3.252H35.22L99.618,58.8z M324,336H188.67c1.332-1.863,2.13-4.133,2.13-6.6v-66
	c0-6.293-5.106-11.4-11.4-11.4h-12c-6.3,0-11.4,5.107-11.4,11.4v66c0,2.467,0.804,4.734,2.13,6.6H22.8V136.8H324V336z
	 M327.984,110.749c-1.074,0.918-1.902,2.041-2.561,3.252h-19.207l60.605-51.948c1.098-0.941,1.943-2.059,2.592-3.252h19.178
	L327.984,110.749z M492,336H346.8V124.644l72.6-62.231l72.6,62.231V336z M402,173.4v48c0,6.295,5.107,11.4,11.4,11.4h12
	c6.301,0,11.4-5.105,11.4-11.4v-48c0-6.293-5.105-11.399-11.4-11.399h-12C407.101,162,402,167.107,402,173.4z M425.4,252h-12
	c-6.299,0-11.4,5.107-11.4,11.4v48c0,6.295,5.107,11.4,11.4,11.4h12c6.301,0,11.4-5.105,11.4-11.4v-48
	C436.8,257.107,431.701,252,425.4,252z M167.4,232.8h12c6.3,0,11.4-5.105,11.4-11.4v-48c0-6.293-5.106-11.399-11.4-11.399h-12
	c-6.3,0-11.4,5.106-11.4,11.399v48C156,227.695,161.101,232.8,167.4,232.8z M221.4,232.8h12c6.301,0,11.4-5.105,11.4-11.4v-48
	c0-6.293-5.105-11.399-11.4-11.399h-12C215.101,162,210,167.107,210,173.4v48C210,227.695,215.101,232.8,221.4,232.8z M221.4,322.8
	h12c6.301,0,11.4-5.105,11.4-11.4v-48c0-6.293-5.105-11.4-11.4-11.4h-12c-6.299,0-11.399,5.107-11.399,11.4v48
	C210,317.695,215.101,322.8,221.4,322.8z M113.4,232.8h12c6.3,0,11.4-5.105,11.4-11.4v-48c0-6.293-5.106-11.399-11.4-11.399h-12
	c-6.3,0-11.4,5.106-11.4,11.399v48C102,227.695,107.101,232.8,113.4,232.8z M113.4,322.8h12c6.3,0,11.4-5.105,11.4-11.4v-48
	c0-6.293-5.106-11.4-11.4-11.4h-12c-6.3,0-11.4,5.107-11.4,11.4v48C102,317.695,107.101,322.8,113.4,322.8z M275.4,232.8h12
	c6.301,0,11.4-5.105,11.4-11.4v-48c0-6.293-5.105-11.399-11.4-11.399h-12c-6.299,0-11.4,5.106-11.4,11.399v48
	C264,227.695,269.101,232.8,275.4,232.8z M275.4,322.8h12c6.301,0,11.4-5.105,11.4-11.4v-48c0-6.293-5.105-11.4-11.4-11.4h-12
	c-6.299,0-11.4,5.107-11.4,11.4v48C264,317.695,269.101,322.8,275.4,322.8z M59.4,232.8h12c6.3,0,11.4-5.105,11.4-11.4v-48
	c0-6.293-5.106-11.399-11.4-11.399h-12c-6.3,0-11.4,5.106-11.4,11.399v48C48,227.695,53.101,232.8,59.4,232.8z M59.4,322.8h12
	c6.3,0,11.4-5.105,11.4-11.4v-48c0-6.293-5.106-11.4-11.4-11.4h-12c-6.3,0-11.4,5.107-11.4,11.4v48
	C48,317.695,53.101,322.8,59.4,322.8z"/>
</svg>
