<?xml version="1.0" encoding="utf-8"?>
<!-- Generator: Adobe Illustrator 16.0.0, SVG Export Plug-In . SVG Version: 6.00 Build 0)  -->
<!DOCTYPE svg PUBLIC "-//W3C//DTD SVG 1.1//EN" "http://www.w3.org/Graphics/SVG/1.1/DTD/svg11.dtd">
<svg version="1.1" id="Layer_1" xmlns="http://www.w3.org/2000/svg" xmlns:xlink="http://www.w3.org/1999/xlink" x="0px" y="0px"
	 width="520px" height="520px" viewBox="0 0 520 520" enable-background="new 0 0 520 520" xml:space="preserve">
<polygon fill="#FFFFFF" points="204.5,250.6 204.5,196.1 246.5,196.1 246.5,250.6 366.5,250.6 450.5,362.1 450.5,505.101 
	68.5,505.101 68.5,364.1 "/>
<path d="M461.18,357.838l-84-114c-0.096-0.126-0.221-0.21-0.316-0.33c-0.441-0.552-0.924-1.056-1.457-1.512
	c-0.049-0.036-0.09-0.072-0.141-0.113c-1.979-1.65-4.486-2.683-7.266-2.683H259.4v-42.6c0-6.293-5.105-11.4-11.4-11.4h-42
	c-6.293,0-11.4,5.107-11.4,11.4v42.6H152c-3.624,0-7.026,1.722-9.18,4.638l-84,114c-0.03,0.049-0.042,0.103-0.078,0.15
	c-0.612,0.852-1.08,1.787-1.44,2.789c-0.072,0.203-0.126,0.408-0.192,0.617c-0.3,1.027-0.51,2.082-0.51,3.205v144.001
	C56.6,514.894,61.706,520,68,520h210c1.045,0,2.041-0.188,3-0.45c0.961,0.264,1.957,0.45,3,0.45h168c6.295,0,11.4-5.106,11.4-11.399
	V364.6C463.4,362.164,462.621,359.793,461.18,357.838z M217.4,208h19.2v31.2h-19.2V208z M272.6,497.2H79.4V376h193.2V497.2z
	 M440.6,497.2h-55.26c0.012-0.203,0.062-0.395,0.062-0.6V430.6c0-6.293-5.107-11.399-11.4-11.399h-12
	c-6.295,0-11.4,5.106-11.4,11.399v66.001c0,0.205,0.049,0.396,0.061,0.6H295.4V368.35l72.6-98.53l72.6,98.524V497.2z M110,472h48
	c6.294,0,11.4-5.104,11.4-11.399V412.6c0-6.293-5.105-11.399-11.4-11.399h-48c-6.294,0-11.4,5.106-11.4,11.399v48.001
	C98.6,466.896,103.706,472,110,472z M194,472h48c6.295,0,11.4-5.104,11.4-11.399V412.6c0-6.293-5.105-11.399-11.4-11.399h-48
	c-6.293,0-11.399,5.106-11.399,11.399v48.001C182.6,466.896,187.707,472,194,472z"/>
</svg>
