<?xml version="1.0" encoding="utf-8"?>
<!-- Generator: Adobe Illustrator 16.0.0, SVG Export Plug-In . SVG Version: 6.00 Build 0)  -->
<!DOCTYPE svg PUBLIC "-//W3C//DTD SVG 1.1//EN" "http://www.w3.org/Graphics/SVG/1.1/DTD/svg11.dtd">
<svg version="1.1" id="Layer_1" xmlns="http://www.w3.org/2000/svg" xmlns:xlink="http://www.w3.org/1999/xlink" x="0px" y="0px"
	 width="520px" height="520px" viewBox="0 0 520 520" enable-background="new 0 0 520 520" xml:space="preserve">
<polygon fill="#FFFFFF" stroke="#000000" stroke-miterlimit="10" points="205.5,250.601 205.5,198.101 247.5,198.101 247.5,250.601 
	364.5,250.601 450.5,364.102 450.5,504.102 67.5,504.102 67.5,367.102 149.5,250.601 "/>
<path d="M461.18,357.84l-84-114c-0.096-0.126-0.223-0.21-0.315-0.33c-0.445-0.552-0.926-1.056-1.459-1.512
	c-0.047-0.036-0.09-0.072-0.139-0.113c-1.979-1.65-4.486-2.683-7.267-2.683H259.4v-42.6c0-6.293-5.107-11.399-11.4-11.399h-42
	c-6.295,0-11.4,5.106-11.4,11.399v42.6H152c-3.624,0-7.026,1.722-9.18,4.638l-84,114c-0.03,0.049-0.042,0.102-0.078,0.149
	c-0.612,0.853-1.08,1.787-1.44,2.789c-0.072,0.203-0.126,0.407-0.192,0.616c-0.3,1.026-0.51,2.082-0.51,3.205v144
	c0,6.293,5.106,11.4,11.4,11.4h210c1.043,0,2.039-0.188,3-0.451c0.959,0.264,1.955,0.451,3,0.451h168c6.293,0,11.4-5.107,11.4-11.4
	v-144C463.401,362.165,462.619,359.794,461.18,357.84z M217.4,208.001h19.2v31.2h-19.2V208.001z M272.6,497.201H79.4v-121.2H272.6
	V497.201z M284,323.201h-12c-6.295,0-11.4,5.105-11.4,11.398c0,6.295,5.105,11.4,11.4,11.4h11.543l-5.322,7.225
	c-0.078,0-0.143-0.023-0.221-0.023H90.56l27.414-37.199H122c6.294,0,11.4-5.105,11.4-11.398c0-2.479-0.81-4.752-2.148-6.625
	l8.826-11.98H146c6.294,0,11.4-5.105,11.4-11.4c0-3.041-1.212-5.789-3.15-7.836l3.51-4.758h48.241h42h97.439l-1.964,2.664
	c-1.633-0.906-3.479-1.465-5.479-1.465h-12c-6.293,0-11.4,5.105-11.4,11.4c0,6.293,5.107,11.398,11.4,11.398h1.752l-6.984,9.479
	c-1.895-1.416-4.223-2.28-6.768-2.28h-12c-6.293,0-11.4,5.105-11.4,11.398c0,6.295,5.107,11.4,11.4,11.4h3.648l-10.938,14.844
	C293.157,326.407,288.973,323.201,284,323.201z M440.601,497.201H385.34c0.013-0.203,0.062-0.395,0.062-0.6v-66
	c0-6.293-5.105-11.4-11.4-11.4h-12c-6.293,0-11.399,5.107-11.399,11.4v66c0,0.205,0.051,0.396,0.062,0.6h-55.262v-128.85
	l72.6-98.531l72.601,98.525L440.601,497.201L440.601,497.201z M230,286.001h12c6.293,0,11.399-5.104,11.399-11.399
	c0-6.293-5.106-11.399-11.399-11.399h-12c-6.295,0-11.4,5.106-11.4,11.399C218.6,280.896,223.705,286.001,230,286.001z
	 M301.401,274.602c0-6.293-5.107-11.399-11.4-11.399h-12c-6.295,0-11.399,5.106-11.399,11.399c0,6.295,5.104,11.399,11.399,11.399
	h12C296.293,286.001,301.401,280.896,301.401,274.602z M182,286.001h12c6.293,0,11.399-5.104,11.399-11.399
	c0-6.293-5.106-11.399-11.399-11.399h-12c-6.295,0-11.4,5.106-11.4,11.399C170.6,280.896,175.705,286.001,182,286.001z M266,293.201
	h-12c-6.295,0-11.4,5.105-11.4,11.398c0,6.295,5.105,11.4,11.4,11.4h12c6.293,0,11.4-5.105,11.4-11.4
	C277.401,298.309,272.293,293.201,266,293.201z M181.4,304.602c0-6.293-5.106-11.399-11.399-11.399h-12
	c-6.294,0-11.4,5.106-11.4,11.399c0,6.295,5.106,11.399,11.4,11.399h12C176.293,316.001,181.4,310.896,181.4,304.602z
	 M229.4,304.602c0-6.293-5.106-11.399-11.399-11.399h-12c-6.295,0-11.4,5.106-11.4,11.399c0,6.295,5.105,11.399,11.4,11.399h12
	C224.293,316.001,229.4,310.896,229.4,304.602z M188,323.201h-12c-6.295,0-11.4,5.105-11.4,11.398c0,6.295,5.105,11.4,11.4,11.4h12
	c6.293,0,11.399-5.105,11.399-11.4C199.4,328.309,194.293,323.201,188,323.201z M140,323.201h-12c-6.294,0-11.4,5.105-11.4,11.398
	c0,6.295,5.106,11.4,11.4,11.4h12c6.294,0,11.4-5.105,11.4-11.4C151.4,328.309,146.294,323.201,140,323.201z M236,323.201h-12
	c-6.295,0-11.4,5.105-11.4,11.398c0,6.295,5.105,11.4,11.4,11.4h12c6.293,0,11.399-5.105,11.399-11.4
	C247.4,328.309,242.293,323.201,236,323.201z M110,472.001h48c6.293,0,11.4-5.104,11.4-11.399v-48c0-6.293-5.106-11.4-11.4-11.4h-48
	c-6.294,0-11.4,5.107-11.4,11.4v48C98.6,466.896,103.706,472.001,110,472.001z M194,472.001h48c6.293,0,11.399-5.104,11.399-11.399
	v-48c0-6.293-5.106-11.4-11.399-11.4h-48c-6.295,0-11.4,5.107-11.4,11.4v48C182.6,466.896,187.705,472.001,194,472.001z"/>
</svg>
