<?xml version="1.0" encoding="utf-8"?>
<!-- Generator: Adobe Illustrator 16.0.0, SVG Export Plug-In . SVG Version: 6.00 Build 0)  -->
<!DOCTYPE svg PUBLIC "-//W3C//DTD SVG 1.1//EN" "http://www.w3.org/Graphics/SVG/1.1/DTD/svg11.dtd">
<svg version="1.1" id="Layer_1" xmlns="http://www.w3.org/2000/svg" xmlns:xlink="http://www.w3.org/1999/xlink" x="0px" y="0px"
	 width="520px" height="520px" viewBox="-56.6 -5.6 520 520" enable-background="new -56.6 -5.6 520 520" xml:space="preserve">
<polygon fill="#FFFFFF" stroke="#000000" stroke-miterlimit="10" points="141.9,43.9 141.9,10.9 194.9,10.9 194.9,43.9 307.9,43.9 
	393.9,122.9 393.9,493.9 11.9,493.9 11.9,122.9 93.9,48.9 "/>
<path d="M402.816,110.749l-84-72c-0.18-0.15-0.377-0.258-0.564-0.396c-0.264-0.204-0.52-0.396-0.803-0.576
	c-0.342-0.216-0.697-0.396-1.057-0.576c-0.271-0.132-0.533-0.27-0.816-0.384c-0.426-0.168-0.855-0.288-1.289-0.402
	c-0.252-0.066-0.484-0.15-0.744-0.198c-0.715-0.138-1.434-0.216-2.158-0.216H208.8V11.4c0-6.294-5.105-11.4-11.4-11.4h-54
	C137.107,0,132,5.106,132,11.4V36H95.4c-2.724,0-5.352,0.972-7.416,2.748l-84,72C1.452,112.908,0,116.07,0,119.4v378
	c0,6.295,5.106,11.4,11.4,11.4h210c1.045,0,2.041-0.188,3-0.449c0.961,0.264,1.957,0.449,3,0.449h168c6.295,0,11.4-5.105,11.4-11.4
	v-378C406.8,116.07,405.349,112.908,402.816,110.749z M204.816,62.052c1.098-0.942,1.945-2.058,2.592-3.252h19.176l-60.604,51.948
	c-1.099,0.942-1.945,2.058-2.593,3.252H144.21L204.816,62.052z M154.8,22.8H186V36h-31.2V22.8L154.8,22.8z M153.619,58.8h19.974
	L109.189,114H89.214L153.619,58.8z M99.618,58.8h18.972l-60.606,51.948c-1.098,0.942-1.944,2.058-2.592,3.252H35.214L99.618,58.8z
	 M216,486h-81.334c1.332-1.863,2.136-4.133,2.136-6.6v-66c0-6.293-5.106-11.4-11.399-11.4h-12c-6.294,0-11.4,5.107-11.4,11.4v66
	c0,2.467,0.804,4.734,2.136,6.6H22.8V136.8H216V486z M219.984,110.749c-1.074,0.918-1.902,2.04-2.561,3.252h-20.209l64.404-55.2
	h18.973L219.984,110.749z M384,486H238.8V124.645l72.6-62.232l72.6,62.232V486z M287.4,156h-12c-6.293,0-11.4,5.106-11.4,11.4v48
	c0,6.295,5.107,11.4,11.4,11.4h12c6.295,0,11.4-5.105,11.4-11.4v-48C298.8,161.106,293.695,156,287.4,156z M341.4,226.8h12
	c6.295,0,11.4-5.105,11.4-11.4v-48c0-6.294-5.105-11.4-11.4-11.4h-12c-6.293,0-11.4,5.106-11.4,11.4v48
	C330,221.695,335.107,226.8,341.4,226.8z M287.4,264h-12c-6.293,0-11.4,5.106-11.4,11.399v48c0,6.295,5.107,11.4,11.4,11.4h12
	c6.295,0,11.4-5.105,11.4-11.4v-48C298.8,269.107,293.695,264,287.4,264z M341.4,334.8h12c6.295,0,11.4-5.105,11.4-11.4v-48
	c0-6.293-5.105-11.399-11.4-11.399h-12c-6.293,0-11.4,5.106-11.4,11.399v48C330,329.695,335.107,334.8,341.4,334.8z M287.4,372h-12
	c-6.293,0-11.4,5.107-11.4,11.4v48c0,6.295,5.107,11.4,11.4,11.4h12c6.295,0,11.4-5.105,11.4-11.4v-48
	C298.8,377.107,293.695,372,287.4,372z M341.4,442.8h12c6.295,0,11.4-5.105,11.4-11.4v-48c0-6.293-5.105-11.4-11.4-11.4h-12
	c-6.293,0-11.4,5.107-11.4,11.4v48C330,437.695,335.107,442.8,341.4,442.8z M113.4,226.8h12c6.295,0,11.4-5.105,11.4-11.4v-48
	c0-6.294-5.105-11.4-11.4-11.4h-12c-6.293,0-11.399,5.106-11.399,11.4v48C102,221.695,107.106,226.8,113.4,226.8z M167.4,226.8h12
	c6.295,0,11.4-5.105,11.4-11.4v-48c0-6.294-5.105-11.4-11.4-11.4h-12c-6.293,0-11.399,5.106-11.399,11.4v48
	C156,221.695,161.107,226.8,167.4,226.8z M113.4,334.8h12c6.295,0,11.4-5.105,11.4-11.4v-48c0-6.293-5.105-11.399-11.4-11.399h-12
	C107.106,264,102,269.107,102,275.4v48C102,329.695,107.106,334.8,113.4,334.8z M167.4,334.8h12c6.295,0,11.4-5.105,11.4-11.4v-48
	c0-6.293-5.105-11.399-11.4-11.399h-12C161.107,264,156,269.107,156,275.4v48C156,329.695,161.107,334.8,167.4,334.8z M167.4,442.8
	h12c6.295,0,11.4-5.105,11.4-11.4v-48c0-6.293-5.105-11.4-11.4-11.4h-12c-6.293,0-11.399,5.107-11.399,11.4v48
	C156,437.695,161.107,442.8,167.4,442.8z M59.4,226.8h12c6.294,0,11.4-5.105,11.4-11.4v-48c0-6.294-5.106-11.4-11.4-11.4h-12
	c-6.294,0-11.4,5.106-11.4,11.4v48C48,221.695,53.106,226.8,59.4,226.8z M59.4,334.8h12c6.294,0,11.4-5.105,11.4-11.4v-48
	c0-6.293-5.106-11.399-11.4-11.399h-12C53.106,264,48,269.107,48,275.4v48C48,329.695,53.106,334.8,59.4,334.8z M59.4,442.8h12
	c6.294,0,11.4-5.105,11.4-11.4v-48c0-6.293-5.106-11.4-11.4-11.4h-12c-6.294,0-11.4,5.107-11.4,11.4v48
	C48,437.695,53.106,442.8,59.4,442.8z"/>
</svg>
