<?xml version="1.0" encoding="utf-8"?>
<!-- Generator: Adobe Illustrator 16.0.0, SVG Export Plug-In . SVG Version: 6.00 Build 0)  -->
<!DOCTYPE svg PUBLIC "-//W3C//DTD SVG 1.1//EN" "http://www.w3.org/Graphics/SVG/1.1/DTD/svg11.dtd">
<svg version="1.1" id="Layer_1" xmlns="http://www.w3.org/2000/svg" xmlns:xlink="http://www.w3.org/1999/xlink" x="0px" y="0px"
	 width="406.8px" height="334.8px" viewBox="96.6 234.6 406.8 334.8" enable-background="new 96.6 234.6 406.8 334.8"
	 xml:space="preserve">
<polygon fill="#FFFFFF" stroke="#000000" stroke-miterlimit="10" points="244.5,300 244.5,248.5 289.5,248.5 289.5,300 406.5,300 
	491.5,413.5 491.5,556.5 109.5,556.5 109.5,414.5 190.5,300 "/>
<path d="M501.174,407.238l-84-114c-0.084-0.114-0.198-0.186-0.282-0.294c-0.456-0.564-0.953-1.086-1.5-1.554
	c-0.042-0.036-0.084-0.066-0.126-0.102c-1.974-1.656-4.487-2.688-7.266-2.688H299.4V246c0-6.294-5.106-11.4-11.4-11.4h-42
	c-6.3,0-11.4,5.106-11.4,11.4v42.6H192c-3.624,0-7.032,1.722-9.174,4.638l-84,114c-0.03,0.042-0.042,0.09-0.072,0.132
	c-0.618,0.858-1.092,1.806-1.452,2.813c-0.072,0.205-0.126,0.402-0.186,0.606c-0.306,1.026-0.516,2.088-0.516,3.21v144
	c0,6.294,5.106,11.4,11.4,11.4h210c1.044,0,2.04-0.187,3-0.45c0.96,0.264,1.956,0.45,3,0.45h168c6.3,0,11.4-5.106,11.4-11.4V414
	C503.4,411.564,502.626,409.193,501.174,407.238z M305.76,311.4h25.681l-67.2,91.199h-25.68L305.76,311.4z M257.4,257.4h19.2v31.2
	h-19.2V257.4z M251.76,311.4h25.68l-67.2,91.199h-25.68L251.76,311.4z M197.76,311.4h25.68l-67.2,91.199h-25.674L197.76,311.4z
	 M312.6,546.6H119.4V425.4h193.2V546.6z M318.222,402.624c-0.078,0-0.144-0.024-0.222-0.024h-25.44l67.2-91.199h25.681
	L318.222,402.624z M480.6,546.6h-55.254c0.013-0.203,0.061-0.396,0.061-0.6v-66c0-6.294-5.106-11.4-11.4-11.4h-12
	c-6.3,0-11.399,5.106-11.399,11.4v66c0,0.204,0.048,0.396,0.06,0.6H335.4V417.75l72.6-98.532l72.6,98.526V546.6z M150,521.4h48
	c6.3,0,11.4-5.106,11.4-11.4v-48c0-6.294-5.106-11.4-11.4-11.4h-48c-6.3,0-11.4,5.106-11.4,11.4v48
	C138.6,516.294,143.7,521.4,150,521.4z M234,521.4h48c6.3,0,11.4-5.106,11.4-11.4v-48c0-6.294-5.106-11.4-11.4-11.4h-48
	c-6.3,0-11.4,5.106-11.4,11.4v48C222.6,516.294,227.7,521.4,234,521.4z"/>
</svg>
