<?xml version="1.0" encoding="utf-8"?>
<!-- Generator: Adobe Illustrator 16.0.0, SVG Export Plug-In . SVG Version: 6.00 Build 0)  -->
<!DOCTYPE svg PUBLIC "-//W3C//DTD SVG 1.1//EN" "http://www.w3.org/Graphics/SVG/1.1/DTD/svg11.dtd">
<svg version="1.1" id="Layer_1" xmlns="http://www.w3.org/2000/svg" xmlns:xlink="http://www.w3.org/1999/xlink" x="0px" y="0px"
	 width="600px" height="600px" viewBox="0 0 600 600" enable-background="new 0 0 600 600" xml:space="preserve">
<g>
	<g>
		<path d="M300.252,0C134.427,0,0,134.427,0,300.249c0,165.825,134.427,300.252,300.252,300.252
			c165.824,0,300.252-134.427,300.252-300.252C600.504,134.427,466.076,0,300.252,0z M300.252,537.291
			c-130.915,0-237.04-106.127-237.04-237.042c0-130.912,106.125-237.039,237.04-237.039c130.914,0,237.039,106.127,237.039,237.039
			C537.291,431.164,431.166,537.291,300.252,537.291z M356.301,281.209c-15.036-8.373-30.995-14.706-46.823-21.302
			c-9.142-3.811-17.949-8.306-25.651-14.512c-15.219-12.27-12.323-32.121,5.564-39.997c5.017-2.208,10.32-2.938,15.758-3.238
			c20.712-1.131,40.367,2.666,59.102,11.793c9.318,4.54,12.419,3.125,15.559-6.653c3.316-10.328,6.119-20.822,9.133-31.243
			c2.023-7.003-0.463-11.645-7.07-14.579c-11.976-5.314-24.341-9.158-37.287-11.198c-16.919-2.668-16.905-2.741-16.978-19.82
			c-0.102-24.181-0.102-24.181-24.105-24.142c-3.496,0-6.983-0.092-10.474,0.014c-11.229,0.326-13.159,2.276-13.448,13.667
			c-0.132,5.106-0.04,10.222-0.067,15.328c-0.07,15.106-0.151,14.899-14.506,20.151c-34.809,12.736-56.273,36.565-58.585,74.778
			c-2.042,33.805,15.457,56.625,43.05,73.249c17.003,10.25,35.805,16.341,53.802,24.301c7.025,3.112,13.726,6.712,19.635,11.605
			c17.349,14.366,14.13,38.347-6.405,47.371c-11.017,4.843-22.621,6.061-34.518,4.562c-18.412-2.32-36.038-7.183-52.601-15.866
			c-9.706-5.087-12.55-3.758-15.861,6.862c-2.845,9.145-5.379,18.384-7.89,27.627c-3.375,12.424-2.166,15.376,9.604,21.122
			c14.989,7.31,31.046,11.066,47.418,13.673c12.8,2.04,13.224,2.615,13.356,15.981c0.059,6.066,0.092,12.136,0.166,18.202
			c0.084,7.654,3.74,12.09,11.532,12.238c8.883,0.157,17.772,0.163,26.647-0.062c7.256-0.185,11.004-4.142,11.023-11.557
			c0.02-8.3,0.43-16.622,0.067-24.907c-0.364-8.446,3.244-12.711,11.319-14.938c18.538-5.106,34.394-15.135,46.593-30.045
			C417.109,368.423,404.188,307.884,356.301,281.209z"/>
	</g>
</g>
</svg>
