<?xml version="1.0" encoding="utf-8"?>
<!-- Generator: Adobe Illustrator 16.0.0, SVG Export Plug-In . SVG Version: 6.00 Build 0)  -->
<!DOCTYPE svg PUBLIC "-//W3C//DTD SVG 1.1//EN" "http://www.w3.org/Graphics/SVG/1.1/DTD/svg11.dtd">
<svg version="1.1" id="Layer_1" xmlns="http://www.w3.org/2000/svg" xmlns:xlink="http://www.w3.org/1999/xlink" x="0px" y="0px"
	 width="141.469px" height="141.469px" viewBox="0 0 141.469 141.469" enable-background="new 0 0 141.469 141.469"
	 xml:space="preserve">
<g>
	<g>
		<path d="M71,142c-39.15,0-71-31.852-71-71C0,31.85,31.85,0,71,0c39.148,0,71,31.85,71,71C142,110.148,110.148,142,71,142z
			 M71,14.869C40.05,14.869,14.869,40.05,14.869,71c0,30.951,25.181,56.131,56.131,56.131s56.131-25.18,56.131-56.131
			C127.131,40.05,101.95,14.869,71,14.869z"/>
	</g>
</g>
<polygon points="44.526,44.747 92.712,68.843 44.526,97.254 "/>
<g>
	<path d="M86.526,76.139v18.82c0,2.838,2.505,5.141,5.601,5.141c3.094,0,5.6-2.301,5.6-5.141v-18.82V65.858V47.041
		c0-2.838-2.506-5.141-5.6-5.141c-3.095,0-5.601,2.301-5.601,5.141v18.817V76.139z"/>
</g>
</svg>
