<?xml version="1.0" encoding="utf-8"?>
<!-- Generator: Adobe Illustrator 16.0.0, SVG Export Plug-In . SVG Version: 6.00 Build 0)  -->
<!DOCTYPE svg PUBLIC "-//W3C//DTD SVG 1.1//EN" "http://www.w3.org/Graphics/SVG/1.1/DTD/svg11.dtd">
<svg version="1.1" id="Layer_1" xmlns="http://www.w3.org/2000/svg" xmlns:xlink="http://www.w3.org/1999/xlink" x="0px" y="0px"
	 width="141.469px" height="141.469px" viewBox="0 0 141.469 141.469" enable-background="new 0 0 141.469 141.469"
	 xml:space="preserve">
<g>
	<path d="M70.734,141.469C31.731,141.469,0,109.738,0,70.734C0,31.731,31.731,0,70.734,0c39.003,0,70.734,31.731,70.734,70.734
		C141.469,109.738,109.739,141.469,70.734,141.469z M70.734,14.813c-30.832,0-55.92,25.086-55.92,55.921
		c0,30.834,25.088,55.918,55.92,55.918c30.837,0,55.925-25.086,55.925-55.918C126.659,39.901,101.571,14.813,70.734,14.813z"/>
</g>
<polygon points="72.666,50.877 109.113,69.105 72.666,90.592 "/>
<polygon points="35.726,50.877 72.174,69.105 35.726,90.592 "/>
</svg>
