<svg xmlns="http://www.w3.org/2000/svg" xmlns:xlink="http://www.w3.org/1999/xlink" version="1.1" x="0px" y="0px" viewBox="0 0 100 125" enable-background="new 0 0 100 100" xml:space="preserve"><path fill="#000000" d="M49.79,22.581l0.666-0.764C53.662,17.425,59.119,14,62.621,14h25.635c3.501,0,5.158,3.424,3.693,7.816  L76.057,69.385c0.664,0.313,1.036,0.749,1.238,1.178c0.336,0.711,0.482,1.848-0.732,3.321L65.836,86.636  c5.887-1.829,10.773-5.725,12.158-10.233l16.779-54.89C96.691,15.253,94.375,10,89.607,10H64.87  c-4.537,0-11.752,4.771-16.523,10.607C49.008,21.036,49.514,21.831,49.79,22.581z"/><polygon fill="#000000" points="43.221,27 39.343,32.367 41.146,34.049 46.204,27 "/><path fill="#000000" d="M15.673,84c-6.062,0-8.385-3.393-5.177-7.783l26.286-35.911l-1.896-1.852L6.191,76.502  C1.454,82.76,4.699,88,13.424,88H56.42l1.576-4H15.673z"/><path fill="#000000" d="M89.258,16h-1.916c-0.289,0-0.639,0.19-0.777,0.532l-3.696,8.983C82.729,25.859,82.875,26,83.195,26h4.824  c0.32,0,0.68-0.187,0.801-0.53l2.135-5.956C91.014,17.839,90.395,16,89.258,16z"/><path fill="#000000" d="M76,25.472C76,25.814,76.152,26,76.473,26h4.823c0.319,0,0.696-0.187,0.838-0.53l3.759-8.984  C86.033,16.143,85.913,16,85.622,16h-4.365c-0.29,0-0.745,0.189-0.905,0.532L76,25.563V25.472z"/><path fill="#000000" d="M69.749,26h4.823c0.32,0,0.715-0.187,0.877-0.53l4.32-8.984C79.934,16.143,79.829,16,79.538,16h-4.366  c-0.29,0-0.673,0.189-0.854,0.532l-4.821,8.983C69.314,25.859,69.428,26,69.749,26z"/><path fill="#000000" d="M63.025,26h4.824c0.319,0,0.73-0.187,0.916-0.53l4.881-8.984C73.831,16.143,73.744,16,73.454,16h-4.366  c-0.291,0-0.691,0.189-0.895,0.532l-5.381,8.983C62.609,25.859,62.706,26,63.025,26z"/><path fill="#000000" d="M56.305,26h4.822c0.32,0,0.748-0.187,0.953-0.53l5.443-8.984C67.729,16.143,67.661,16,67.37,16h-4.366  c-0.291,0-0.709,0.189-0.932,0.532l-5.944,8.983C55.904,25.859,55.982,26,56.305,26z"/><path fill="#000000" d="M49.579,26h4.823c0.322,0,0.767-0.187,0.992-0.53l6.006-8.984C61.625,16.143,61.572,16,61.281,16h-1.914  c-1.821,0-3.859,1.888-5.582,3.563l-3.987,5.542c-0.123,0.34-0.29,0.541-0.501,0.826C49.322,26.045,49.417,26,49.579,26z"/><path fill="#000000" d="M87.718,27h-4.86c-0.323,0-0.698,0.295-0.838,0.638l-3.697,8.93C78.184,36.912,78.357,37,78.711,37h5.318  c0.354,0,0.74-0.08,0.861-0.424l3.194-9.037C88.207,27.195,88.041,27,87.718,27z"/><path fill="#000000" d="M71.298,37h5.319c0.354,0,0.757-0.08,0.898-0.423l3.758-9.038C81.415,27.195,81.268,27,80.943,27h-4.861  C75.76,27,75,27.311,75,27.653c0,0,0,0.001,0,0.002l-4.156,9.121c0,0.001,0.053-0.198,0.053-0.198C70.736,36.92,70.945,37,71.298,37  z"/><path fill="#000000" d="M63.884,37h5.319c0.354,0,0.773-0.08,0.938-0.423l4.319-9.038C74.623,27.195,74.492,27,74.168,27h-4.861  c-0.322,0-0.731,0.295-0.914,0.639l-4.82,8.93C63.391,36.912,63.529,37,63.884,37z"/><path fill="#000000" d="M62.764,36.577l4.883-9.038C67.83,27.195,67.716,27,67.393,27h-4.86c-0.323,0-0.753,0.295-0.953,0.639  l-5.384,8.93C55.993,36.912,56.115,37,56.469,37h5.319C62.143,37,62.58,36.92,62.764,36.577z"/><path fill="#000000" d="M49.055,37h5.319c0.354,0,0.808-0.08,1.013-0.424l5.444-9.037C61.036,27.195,60.939,27,60.617,27h-4.861  c-0.324,0-0.768,0.295-0.99,0.638l-5.948,8.93C48.596,36.912,48.701,37,49.055,37z"/><path fill="#000000" d="M48.014,36.576l6.005-9.037C54.244,27.196,54.165,27,53.841,27H48.98c-0.324,0-0.785,0.295-1.029,0.638  l-5.649,7.928l0.509,0.314c0.378,0.378,0.653,1.12,0.834,1.12h3.315C47.316,37,47.786,36.92,48.014,36.576z"/><path fill="#000000" d="M83.729,38h-5.354c-0.354,0-0.758,0.4-0.896,0.744l-3.697,9.377C73.641,48.465,73.841,49,74.227,49h5.814  c0.387,0,0.799-0.475,0.919-0.818l3.196-9.34C84.277,38.498,84.085,38,83.729,38z"/><path fill="#000000" d="M76.264,38h-5.356c-0.354,0-0.774,0.4-0.937,0.743l0.145,0.062L66,47.986c0,0.002,0,0.002,0,0.002  C66,48.33,65.736,49,66.123,49h5.814c0.385,0,0.814-0.475,0.957-0.818l3.758-9.34C76.794,38.498,76.619,38,76.264,38z"/><path fill="#000000" d="M68.797,38h-5.355c-0.354,0-0.793,0.401-0.975,0.744l-4.82,9.376C57.465,48.465,57.632,49,58.018,49h5.815  c0.386,0,0.833-0.474,0.996-0.818l4.319-9.34C69.311,38.499,69.154,38,68.797,38z"/><path fill="#000000" d="M56.764,48.182l4.881-9.34C61.829,38.498,61.688,38,61.331,38h-5.356c-0.354,0-0.81,0.4-1.013,0.744  l-5.382,9.377C49.377,48.465,49.527,49,49.914,49h5.814C56.115,49,56.58,48.525,56.764,48.182z"/><path fill="#000000" d="M41.811,49h5.813c0.386,0,0.867-0.474,1.072-0.818l5.443-9.34C54.346,38.499,54.221,38,53.865,38h-5.356  c-0.356,0-0.827,0.401-1.051,0.744l-5.942,9.376C41.29,48.465,41.423,49,41.811,49z"/><path fill="#000000" d="M33.703,49h5.816c0.385,0,0.883-0.474,1.11-0.818l6.006-9.34C46.861,38.499,46.755,38,46.398,38H43.84  c0.016,0,0.042,0.402,0.042,0.546c0,0.977-0.38,1.956-1.069,2.645c-0.69,0.692-1.609,1.104-2.588,1.104  c-0.808,0-1.568-0.258-2.201-0.74l-4.577,6.619C33.203,48.519,33.316,49,33.703,49z"/><path fill="#000000" d="M77.031,59.354l3.197-8.541C80.35,50.501,80.13,50,79.74,50h-5.852c-0.39,0-0.818,0.461-0.957,0.771  l-2.851,6.496l3.415-0.512L71.805,60h4.248C76.473,60,76.912,59.664,77.031,59.354z"/><path fill="#000000" d="M71.583,50H65.73c-0.39,0-0.832,0.459-0.994,0.771l-4.207,8.295l0.479-0.039l8.037-1.487l2.986-6.781  C72.174,50.448,71.973,50,71.583,50z"/><path fill="#000000" d="M63.428,50h-5.854c-0.389,0-0.852,0.461-1.032,0.771l-4.821,8.479C51.54,59.563,51.732,60,52.152,60h6.311  c0.419,0,0.893-0.336,1.055-0.646l4.321-8.541C64.001,50.501,63.816,50,63.428,50z"/><path fill="#000000" d="M50.764,59.354l4.883-8.541C55.829,50.501,55.661,50,55.271,50h-5.854c-0.389,0-0.87,0.461-1.07,0.771  l-5.386,8.479c-0.2,0.313-0.023,0.75,0.396,0.75h6.311C50.087,60,50.578,59.664,50.764,59.354z"/><path fill="#000000" d="M34.561,60h6.312c0.42,0,0.928-0.336,1.131-0.646l5.444-8.541C47.65,50.501,47.503,50,47.113,50h-5.852  c-0.39,0-0.888,0.461-1.111,0.771l-5.944,8.479C33.982,59.563,34.141,60,34.561,60z"/><path fill="#000000" d="M25.764,60h6.311c0.423,0,0.947-0.336,1.173-0.646l6.008-8.541C39.48,50.501,39.348,50,38.956,50h-5.853  c-0.39,0-0.904,0.461-1.147,0.771l-6.509,8.479C25.203,59.563,25.346,60,25.764,60z"/><path fill="#000000" d="M75.752,61h-4.365l-4.104,8h6.329l2.688-7.525C76.42,61.131,76.174,61,75.752,61z"/><path fill="#000000" d="M58.057,61H51.71c-0.421,0-0.911,0.111-1.093,0.456l-4.821,9.022C45.613,70.82,45.835,71,46.286,71h6.807  c0.453,0,0.954-0.264,1.115-0.605l4.321-8.945C58.689,61.104,58.479,61,58.057,61z"/><path fill="#000000" d="M36.8,71h6.808c0.453,0,0.97-0.264,1.153-0.605l4.884-8.945C49.826,61.104,49.633,61,49.209,61h-6.346  c-0.424,0-0.93,0.111-1.133,0.456l-5.383,9.022C36.146,70.82,36.35,71,36.8,71z"/><path fill="#000000" d="M40.361,61h-6.348c-0.422,0-0.947,0.111-1.17,0.456L26.9,70.479C26.678,70.82,26.861,71,27.314,71h6.806  c0.452,0,0.987-0.264,1.192-0.605l5.444-8.945C40.962,61.104,40.783,61,40.361,61z"/><path fill="#000000" d="M17.829,71h6.805c0.455,0,1.005-0.264,1.231-0.605l6.007-8.945C32.098,61.104,31.938,61,31.516,61h-6.349  c-0.422,0-0.965,0.111-1.207,0.456l-6.508,9.022C17.208,70.82,17.376,71,17.829,71z"/><path fill="#000000" d="M50,81.623C50,81.965,50.116,82,50.6,82H57.9c0.484,0,0.996-0.328,1.137-0.672L59.563,80h-4.445H55.09  h-0.027c-0.905,0-2.102-0.249-2.74-1.284c-0.176-0.282-0.383-0.661-0.407-1.271L50,81.621C50,81.623,50,81.623,50,81.623z"/><path fill="#000000" d="M52.688,72h-6.843c-0.455,0-0.972,0.219-1.154,0.563l-4.82,8.969C39.688,81.874,39.936,82,40.422,82h7.301  c0.485,0,1.012-0.156,1.174-0.5l4.321-8.998C53.381,72.158,53.143,72,52.688,72z"/><path fill="#000000" d="M43.146,72h-6.842c-0.455,0-0.99,0.219-1.191,0.563l-5.383,8.967C29.527,81.874,29.758,82,30.242,82h7.303  c0.486,0,1.029-0.156,1.215-0.5l4.881-8.998C43.824,72.158,43.604,72,43.146,72z"/><path fill="#000000" d="M33.609,72h-6.842c-0.455,0-1.004,0.219-1.229,0.563l-5.944,8.969C19.37,81.874,19.583,82,20.068,82h7.302  c0.483,0,1.045-0.156,1.25-0.5l5.442-8.998C34.268,72.158,34.066,72,33.609,72z"/><path fill="#000000" d="M24.074,72H17.23c-0.457,0-1.024,0.219-1.271,0.563l-4.343,5.938C11.277,80.177,12.143,82,13.984,82h3.209  c0.485,0,1.063-0.156,1.291-0.5l6.006-8.998C24.717,72.158,24.529,72,24.074,72z"/><path fill="#000000" d="M27,2.86c0-0.916-0.584-1.657-1.499-1.657S24,1.944,24,2.86v7.258c0,0.27-0.062,0.521,0.054,0.747  c0.483-0.055,0.907-0.089,1.405-0.089s0.93,0.034,1.414,0.088C26.987,10.64,27,10.389,27,10.119V2.86z"/><path fill="#000000" d="M24,44.812c0,0.914,0.586,1.657,1.501,1.657S27,45.728,27,44.812v-7.258c0-0.271-0.047-0.522-0.162-0.748  c-0.483,0.054-0.959,0.088-1.458,0.088s-0.85-0.034-1.333-0.089C23.933,37.031,24,37.283,24,37.554V44.812z"/><path fill="#000000" d="M33.522,34.038c0.078,0.244,0.207,0.475,0.4,0.668l5.132,5.133c0.323,0.323,0.748,0.486,1.171,0.486  c0.426,0,0.849-0.163,1.171-0.486c0.647-0.647,0.647-1.695,0-2.343l-5.132-5.133c-0.193-0.193-0.425-0.322-0.668-0.4  C34.984,32.73,34.289,33.426,33.522,34.038z"/><path fill="#000000" d="M46.37,25c0.915,0,1.655-0.584,1.655-1.5c0-0.915-0.742-1.5-1.655-1.5h-7.259  c-0.271,0-0.522,0.16-0.748,0.275c0.054,0.483,0.088,1.017,0.088,1.515s-0.034,0.764-0.088,1.247C38.589,25.152,38.84,25,39.111,25  H46.37z"/><path fill="#000000" d="M41.396,10.174c0.647-0.647,0.647-1.696,0-2.343c-0.324-0.324-0.748-0.485-1.171-0.485  s-0.848,0.162-1.171,0.485l-5.133,5.133c-0.193,0.193-0.322,0.423-0.4,0.667c0.768,0.612,1.464,1.308,2.076,2.076  c0.245-0.078,0.476-0.206,0.669-0.399L41.396,10.174z"/><path fill="#000000" d="M74.161,71h-0.196H65.65c-0.053,0-0.104-0.014-0.152-0.014c-1.555,0-0.568-1.771-0.568-1.771l4.955-10.021  l-8.469,1.752c0,0-6.609,14.078-7.332,15.628S55.117,78,55.117,78h6.4c1.614,0,0.93,1.363,0.93,1.363l-8.363,18.051l20.947-24.861  C76.305,71.01,74.803,71,74.299,71c-0.052,0-0.092,0-0.119,0C74.173,71,74.166,71,74.161,71z"/><path fill="#000000" d="M36.418,24.506c0.014-0.223,0.034-0.444,0.034-0.671c0-0.238-0.021-0.471-0.036-0.705  c-0.007-0.094-0.005-0.191-0.015-0.285c-0.502-5.635-5.244-10.069-11.009-10.069c0,0-0.001,0-0.001,0  c-6.041,0-10.943,4.846-11.05,10.862c-0.001,0.066-0.01,0.131-0.01,0.197l0,0c0,0,0,0,0,0c0,6.108,4.952,11.06,11.06,11.06  c0,0,0.001,0,0.001,0c5.764,0,10.505-4.434,11.009-10.069C36.412,24.721,36.411,24.612,36.418,24.506z M25.393,31.581V16.09  c4.27,0,7.746,3.476,7.746,7.747C33.139,28.107,29.664,31.581,25.393,31.581z"/><text x="0" y="115" fill="#000000" font-size="5px" font-weight="bold" font-family="'Helvetica Neue', Helvetica, Arial-Unicode, Arial, Sans-serif">Created by Maurizio Fusillo</text><text x="0" y="120" fill="#000000" font-size="5px" font-weight="bold" font-family="'Helvetica Neue', Helvetica, Arial-Unicode, Arial, Sans-serif">from the Noun Project</text></svg>