<?xml version="1.0" encoding="utf-8"?>
<!-- Generator: Adobe Illustrator 16.0.0, SVG Export Plug-In . SVG Version: 6.00 Build 0)  -->
<!DOCTYPE svg PUBLIC "-//W3C//DTD SVG 1.1//EN" "http://www.w3.org/Graphics/SVG/1.1/DTD/svg11.dtd">
<svg version="1.1" id="Layer_1" xmlns="http://www.w3.org/2000/svg" xmlns:xlink="http://www.w3.org/1999/xlink" x="0px" y="0px"
	 width="142px" height="142px" viewBox="0 0 142 142" enable-background="new 0 0 142 142" xml:space="preserve">
<g>
	<path d="M54.6,76.141V94.96c0,2.839,2.507,5.141,5.6,5.141c3.094,0,5.6-2.301,5.6-5.141V76.141V65.859V47.042
		c0-2.838-2.505-5.141-5.6-5.141c-3.093,0-5.6,2.301-5.6,5.141v18.818V76.141z"/>
	<path d="M76.2,76.141V94.96c0,2.839,2.505,5.141,5.6,5.141S87.4,97.8,87.4,94.96V76.141V65.859V47.042
		c0-2.838-2.506-5.141-5.601-5.141s-5.6,2.301-5.6,5.141v18.818V76.141z"/>
</g>
<g>
	<g>
		<path d="M71,142c-39.15,0-71-31.852-71-71C0,31.85,31.85,0,71,0c39.148,0,71,31.85,71,71C142,110.148,110.148,142,71,142z
			 M71,14.869C40.05,14.869,14.869,40.05,14.869,71S40.05,127.131,71,127.131S127.131,101.95,127.131,71S101.95,14.869,71,14.869z"
			/>
	</g>
</g>
</svg>
