<?xml version="1.0" encoding="utf-8"?>
<!-- Generator: Adobe Illustrator 16.0.0, SVG Export Plug-In . SVG Version: 6.00 Build 0)  -->
<!DOCTYPE svg PUBLIC "-//W3C//DTD SVG 1.1//EN" "http://www.w3.org/Graphics/SVG/1.1/DTD/svg11.dtd">
<svg version="1.1" id="Layer_1" xmlns="http://www.w3.org/2000/svg" xmlns:xlink="http://www.w3.org/1999/xlink" x="0px" y="0px"
	 width="142px" height="142px" viewBox="0 7.167 142 142" enable-background="new 0 7.167 142 142" xml:space="preserve">
<g>
	<g>
		<path d="M71,149.166c-39.15,0-71-31.852-71-71c0-39.15,31.85-71,71-71c39.148,0,71,31.85,71,71
			C142,117.314,110.148,149.166,71,149.166z M71,22.035c-30.95,0-56.131,25.181-56.131,56.131c0,30.951,25.181,56.13,56.131,56.13
			s56.131-25.18,56.131-56.13C127.131,47.216,101.95,22.035,71,22.035z"/>
	</g>
</g>
<polygon points="51.526,51.914 99.712,76.01 51.526,104.42 "/>
</svg>
