<?xml version="1.0" encoding="utf-8"?>
<!-- Generator: Adobe Illustrator 16.0.0, SVG Export Plug-In . SVG Version: 6.00 Build 0)  -->
<!DOCTYPE svg PUBLIC "-//W3C//DTD SVG 1.1//EN" "http://www.w3.org/Graphics/SVG/1.1/DTD/svg11.dtd">
<svg version="1.1" id="Layer_1" xmlns="http://www.w3.org/2000/svg" xmlns:xlink="http://www.w3.org/1999/xlink" x="0px" y="0px"
	 width="218.262px" height="268.997px" viewBox="0 0 218.262 268.997" enable-background="new 0 0 218.262 268.997"
	 xml:space="preserve">
<g>
	<g>
		<path d="M217.976,261.305l-33.529-106.249c-0.478-2.884-4.789-24.999-4.789-37.018c0-8.654,3.832-22.596,3.832-22.596
			c0.135-0.474,0.199-0.946,0.224-1.414c0.297-0.604,0.558-1.244,0.733-1.952c0-18.269-42.629-23.077-65.141-23.077
			c-0.928,0-66.109,0.451-70.208,21.01c-0.878,1.42-1.186,3.181-0.682,4.951c0,0,3.832,13.942,3.832,22.596
			c0,12.019-4.311,34.134-4.79,37.019L13.93,260.823c-0.479,1.924-0.479,4.328,0.958,5.77c1.437,1.442,3.353,2.404,5.269,2.404
			H211.75c1.916,0,3.832,0,5.27-1.923C218.455,265.151,218.455,263.228,217.976,261.305z M134.076,253.497
			c-0.723-0.305-1.504-0.48-2.316-0.48H32.257l29.655-94.076v-0.48c0-0.961,5.79-26.48,5.79-40.903
			c0-7.775-2.555-18.68-3.731-23.505c0.166-0.474,0.303-0.967,0.378-1.494c3.353-3.846,23.823-9.058,54.478-9.058
			c29.697,0,46.814,5.212,49.21,9.058c0,0.263,0.047,0.509,0.081,0.76c-1.109,3.934-3.913,16.083-3.913,24.721
			c0,13.942,5.79,39.942,5.79,40.903v0.48l29.654,94.076H134.076z M139.424,102.613l-63.549,77.336h36.782l-19.169,55.437
			l63.545-77.335h-36.779L139.424,102.613z M127.782,57.994c2.306,0,4.461-1.16,5.741-3.095c2.571-3.876,3.932-8.388,3.932-13.053
			c0-12.954-10.44-23.493-23.273-23.493c-5.269,0-10.214,1.766-14.192,4.89c-5.92-6.001-14.425-9.283-23.065-8.427
			C72.942,6.013,64.16,0,54.182,0c-8.996,0-17.029,4.82-21.455,12.235c-2.451-0.807-5.014-1.223-7.636-1.223
			C11.254,11.012,0,22.374,0,36.34c0,8.039,3.706,15.431,10.16,20.277c1.189,0.896,2.64,1.376,4.124,1.376H127.782z M25.091,24.961
			c3.142,0,5.512,1.369,6.942,2.518c1.901,1.523,4.454,1.924,6.73,1.065c2.269-0.863,3.928-2.863,4.364-5.275
			c0.979-5.4,5.625-9.32,11.055-9.32c5.614,0,10.385,4.28,11.099,9.948c0.261,2.106,1.461,3.979,3.258,5.083
			c1.8,1.109,4,1.325,5.974,0.591c7.411-2.742,15.585,0.962,18.713,7.944c1.102,2.463,3.516,4.063,6.192,4.104
			c2.611-0.029,5.135-1.483,6.313-3.917c1.607-3.329,4.847-5.399,8.451-5.399c5.215,0,9.455,4.284,9.455,9.544
			c0,0.749-0.088,1.486-0.255,2.202H16.865c-1.956-2.092-3.047-4.809-3.047-7.708C13.818,30.067,18.876,24.961,25.091,24.961z"/>
	</g>
</g>
</svg>
