<?xml version="1.0" encoding="utf-8"?>
<!-- Generator: Adobe Illustrator 16.0.0, SVG Export Plug-In . SVG Version: 6.00 Build 0)  -->
<!DOCTYPE svg PUBLIC "-//W3C//DTD SVG 1.1//EN" "http://www.w3.org/Graphics/SVG/1.1/DTD/svg11.dtd">
<svg version="1.1" id="Layer_1" xmlns="http://www.w3.org/2000/svg" xmlns:xlink="http://www.w3.org/1999/xlink" x="0px" y="0px"
	 width="204.198px" height="250px" viewBox="0 0 204.198 250" enable-background="new 0 0 204.198 250" xml:space="preserve">
<g>
	<g>
		<path d="M203.912,242.308l-33.46-106.25c-0.477-2.884-4.779-25-4.779-37.019c0-8.654,2.824-22.596,2.824-22.596
			c0.135-0.474,0.199-0.946,0.223-1.414c0.297-0.604,0.557-1.244,0.732-1.952c0-10.933-14.878-17.043-31.641-20.189
			c1.793-3.391,2.745-7.16,2.745-11.041c0-12.954-10.419-23.494-23.226-23.494c-5.258,0-10.192,1.766-14.162,4.89
			c-5.908-6.001-14.396-9.283-23.019-8.427C76.177,6.013,67.413,0,57.455,0c-8.978,0-16.994,4.82-21.41,12.235
			c-2.446-0.807-5.004-1.223-7.621-1.223c-13.808,0-25.039,11.362-25.039,25.329c0,8.039,3.698,15.431,10.139,20.277
			c1.187,0.896,7.532,7.048,22.865,0.382c5.981-2.601,17.594-3.46,30.688-3.421c-15.332,2.879-29.833,8.07-31.696,17.432
			c-0.876,1.42-1.183,3.181-0.681,4.951c0,0,3.824,13.942,3.824,22.596c0,12.019-4.302,34.134-4.78,37.019L0.286,241.826
			c-0.478,1.924-0.478,4.328,0.957,5.77C2.677,249.038,4.588,250,6.5,250h191.197c1.912,0,3.824,0,5.26-1.923
			C204.389,246.154,204.389,244.23,203.912,242.308z M29.576,226.02l26.593-86.077v-0.48c0-0.961,3.778-26.481,3.778-40.904
			c0-7.776-1.55-12.681-2.723-17.506c0.165-0.474,0.302-0.967,0.377-1.494C60.948,75.712,74.376,69.5,104.967,69.5
			c29.636,0,38.717,6.212,41.107,10.058c0,0.263,0.047,0.509,0.082,0.76c-1.107,3.934-1.905,10.083-1.905,18.721
			c0,13.942,3.778,39.942,3.778,40.903v0.48l25.593,86.077L29.576,226.02z M121.522,84.614l-63.417,76.337h36.706l-19.13,55.438
			l63.415-77.336h-36.704L121.522,84.614z"/>
	</g>
</g>
</svg>
