<?xml version="1.0" encoding="utf-8"?>
<!-- Generator: Adobe Illustrator 16.0.0, SVG Export Plug-In . SVG Version: 6.00 Build 0)  -->
<!DOCTYPE svg PUBLIC "-//W3C//DTD SVG 1.1//EN" "http://www.w3.org/Graphics/SVG/1.1/DTD/svg11.dtd">
<svg version="1.1" id="Layer_1" xmlns="http://www.w3.org/2000/svg" xmlns:xlink="http://www.w3.org/1999/xlink" x="0px" y="0px"
	 width="612px" height="792px" viewBox="0 0 612 792" enable-background="new 0 0 612 792" xml:space="preserve">
<g>
	<path d="M305.994,37.98c-155.46,0-281.508,126.054-281.508,281.52c0,155.479,126.047,281.52,281.508,281.52
		c155.484,0,281.525-126.041,281.525-281.52C587.52,164.034,461.479,37.98,305.994,37.98z M305.994,539.82
		c-121.666,0-220.308-98.643-220.308-220.32c0-121.684,98.642-220.32,220.308-220.32c121.696,0,220.326,98.636,220.326,220.32
		C526.32,441.178,427.69,539.82,305.994,539.82z"/>
	<circle cx="223.386" cy="251.323" r="40.802"/>
	<circle cx="388.626" cy="251.323" r="40.802"/>
	<path d="M411.074,382.059H200.932c-15.208,0-27.54,12.332-27.54,27.54s12.332,27.54,27.54,27.54h210.143
		c15.208,0,27.54-12.332,27.54-27.54S426.282,382.059,411.074,382.059z"/>
</g>
</svg>
