<?xml version="1.0" encoding="utf-8"?>
<!-- Generator: Adobe Illustrator 16.0.0, SVG Export Plug-In . SVG Version: 6.00 Build 0)  -->
<!DOCTYPE svg PUBLIC "-//W3C//DTD SVG 1.1//EN" "http://www.w3.org/Graphics/SVG/1.1/DTD/svg11.dtd">
<svg version="1.1" id="Layer_1" xmlns="http://www.w3.org/2000/svg" xmlns:xlink="http://www.w3.org/1999/xlink" x="0px" y="0px"
	 width="563.04px" height="563.04px" viewBox="24.48 37.98 563.04 563.04" enable-background="new 24.48 37.98 563.04 563.04"
	 xml:space="preserve">
<g>
	<path d="M305.987,37.98C150.527,37.98,24.48,164.034,24.48,319.5c0,155.479,126.047,281.52,281.507,281.52
		c155.484,0,281.532-126.041,281.532-281.52C587.52,164.034,461.473,37.98,305.987,37.98z M305.987,539.82
		c-121.659,0-220.307-98.644-220.307-220.32c0-121.684,98.648-220.32,220.307-220.32c121.695,0,220.333,98.636,220.333,220.32
		C526.32,441.178,427.684,539.82,305.987,539.82z"/>
	<circle cx="223.38" cy="251.323" r="40.802"/>
	<circle cx="388.62" cy="251.323" r="40.802"/>
	<path d="M433.541,367.744c-12.969-7.938-29.927-3.85-37.864,9.119c-16.586,27.118-51.788,44.633-89.677,44.633
		c-37.889,0-73.091-17.516-89.676-44.633c-7.938-12.968-24.89-17.057-37.865-9.119c-12.974,7.938-17.056,24.89-9.119,37.869
		c26.781,43.771,79.144,70.963,136.66,70.963c57.516,0,109.885-27.191,136.666-70.969
		C450.604,392.634,446.521,375.682,433.541,367.744z"/>
</g>
</svg>
