<?xml version="1.0" encoding="utf-8"?>
<!-- Generator: Adobe Illustrator 16.0.0, SVG Export Plug-In . SVG Version: 6.00 Build 0)  -->
<!DOCTYPE svg PUBLIC "-//W3C//DTD SVG 1.1//EN" "http://www.w3.org/Graphics/SVG/1.1/DTD/svg11.dtd">
<svg version="1.1" id="Layer_1" xmlns="http://www.w3.org/2000/svg" xmlns:xlink="http://www.w3.org/1999/xlink" x="0px" y="0px"
	 width="612px" height="792px" viewBox="0 0 612 792" enable-background="new 0 0 612 792" xml:space="preserve">
<g>
	<path d="M305.987,37.98C150.527,37.98,24.48,164.034,24.48,319.5c0,155.479,126.047,281.52,281.507,281.52
		c155.485,0,281.521-126.041,281.521-281.52C587.508,164.034,461.473,37.98,305.987,37.98z M305.987,539.82
		c-121.671,0-220.307-98.643-220.307-220.32c0-121.684,98.636-220.32,220.307-220.32c121.696,0,220.32,98.636,220.32,220.32
		C526.308,441.178,427.684,539.82,305.987,539.82z"/>
	<circle cx="223.38" cy="251.323" r="40.802"/>
	<circle cx="388.62" cy="251.323" r="40.802"/>
	<path d="M306,339.219c-57.522,0-109.891,27.191-136.672,70.967c-7.938,12.975-3.85,29.934,9.125,37.871
		c12.98,7.938,29.927,3.85,37.864-9.119c16.591-27.117,51.788-44.633,89.683-44.633c37.883,0,73.079,17.516,89.67,44.633
		c5.19,8.489,14.241,13.171,23.52,13.171c4.896,0,9.854-1.31,14.346-4.052c12.974-7.938,17.062-24.89,9.124-37.871
		C415.879,366.41,363.51,339.219,306,339.219z"/>
</g>
</svg>
