<?xml version="1.0" encoding="utf-8"?>
<!-- Generator: Adobe Illustrator 16.0.0, SVG Export Plug-In . SVG Version: 6.00 Build 0)  -->
<!DOCTYPE svg PUBLIC "-//W3C//DTD SVG 1.1//EN" "http://www.w3.org/Graphics/SVG/1.1/DTD/svg11.dtd">
<svg version="1.1" id="Layer_1" xmlns="http://www.w3.org/2000/svg" xmlns:xlink="http://www.w3.org/1999/xlink" x="0px" y="0px"
	 width="375.006px" height="375.006px" viewBox="171.525 93.36 375.006 375.006"
	 enable-background="new 171.525 93.36 375.006 375.006" xml:space="preserve">
<path fill-rule="evenodd" clip-rule="evenodd" d="M506.531,468.366H211.526c-22.092,0-40.001-17.909-40.001-40.001V133.361
	c0-22.092,17.909-40,40.001-40h295.005c22.092,0,40,17.909,40,40v295.004C546.531,450.457,528.623,468.366,506.531,468.366z
	 M516.531,133.361c0-5.523-4.478-10-10-10H211.526c-5.522,0-10,4.477-10,10v295.004c0,5.523,4.478,10.001,10,10.001h295.005
	c5.522,0,10-4.478,10-10.001V133.361z M486.669,423.445h-56.24c-8.652,0-15.863-7.2-15.863-15.84v-56.641
	c0-8.641,7.211-15.841,15.863-15.841h56.24c8.653,0,15.863,7.2,15.863,15.841v56.641
	C502.532,416.245,495.322,423.445,486.669,423.445z M486.669,325.044h-56.24c-8.652,0-15.863-7.2-15.863-15.841v-56.16
	c0-8.641,7.211-15.841,15.863-15.841h56.24c8.653,0,15.863,7.2,15.863,15.841v56.16
	C502.532,317.844,495.322,325.044,486.669,325.044z M486.669,226.643h-56.24c-8.652,0-15.863-7.2-15.863-15.841v-56.16
	c0-8.641,7.211-15.841,15.863-15.841h56.24c8.653,0,15.863,7.2,15.863,15.841v56.16
	C502.532,219.442,495.322,226.643,486.669,226.643z M387.167,423.445h-56.241c-8.652,0-15.863-7.2-15.863-15.84v-56.641
	c0-8.641,7.211-15.841,15.863-15.841h56.241c8.652,0,15.862,7.2,15.862,15.841v56.641
	C403.029,416.245,395.819,423.445,387.167,423.445z M387.167,325.044h-56.241c-8.652,0-15.863-7.2-15.863-15.841v-56.16
	c0-8.641,7.211-15.841,15.863-15.841h56.241c8.652,0,15.862,7.2,15.862,15.841v56.16
	C403.029,317.844,395.819,325.044,387.167,325.044z M387.167,226.643h-56.241c-8.652,0-15.863-7.2-15.863-15.841v-56.16
	c0-8.641,7.211-15.841,15.863-15.841h56.241c8.652,0,15.862,7.2,15.862,15.841v56.16
	C403.029,219.442,395.819,226.643,387.167,226.643z M288.145,423.445h-56.241c-8.652,0-15.862-7.2-15.862-15.84v-56.641
	c0-8.641,7.21-15.841,15.862-15.841h56.241c8.652,0,15.862,7.2,15.862,15.841v56.641
	C304.007,416.245,296.797,423.445,288.145,423.445z M288.145,325.044h-56.241c-8.652,0-15.862-7.2-15.862-15.841v-56.16
	c0-8.641,7.21-15.841,15.862-15.841h56.241c8.652,0,15.862,7.2,15.862,15.841v56.16
	C304.007,317.844,296.797,325.044,288.145,325.044z M288.145,226.643h-56.241c-8.652,0-15.862-7.2-15.862-15.841v-56.16
	c0-8.641,7.21-15.841,15.862-15.841h56.241c8.652,0,15.862,7.2,15.862,15.841v56.16
	C304.007,219.442,296.797,226.643,288.145,226.643z"/>
</svg>
