<?xml version="1.0" encoding="utf-8"?>
<!-- Generator: Adobe Illustrator 16.0.0, SVG Export Plug-In . SVG Version: 6.00 Build 0)  -->
<!DOCTYPE svg PUBLIC "-//W3C//DTD SVG 1.1//EN" "http://www.w3.org/Graphics/SVG/1.1/DTD/svg11.dtd">
<svg version="1.1" id="Layer_1" xmlns="http://www.w3.org/2000/svg" xmlns:xlink="http://www.w3.org/1999/xlink" x="0px" y="0px"
	 width="188.794px" height="216px" viewBox="0 0 188.794 216" enable-background="new 0 0 188.794 216" xml:space="preserve">
<path d="M176.618,97.597c-0.963-1.208-2.168-1.933-3.855-2.175c-1.203,0-26.74-2.658-41.918,11.357
	c-6.986,6.282-10.602,14.981-10.842,25.614l-20.479,14.98V81.648c11.324-7.007,18.069-16.431,19.756-27.546
	c4.096-25.614-20.237-51.227-21.201-52.436c-2.168-2.174-5.541-2.174-7.708-0.241c-0.964,0.966-25.537,23.68-22.887,49.052
	c1.205,12.082,8.432,22.472,21.201,30.929v51.711l-24.333-24.164c1.927-12.565-0.482-22.714-6.986-30.205
	c-13.01-14.74-37.583-13.048-38.788-13.048c-2.65,0.242-4.818,2.416-5.06,5.316c-0.481,15.948,3.614,28.03,12.528,36.004
	c10.601,9.423,24.333,9.908,30.355,9.423l32.283,32.381v15.223h-18.55c-2.891-3.383-8.914-9.182-18.31-10.633
	c-10.118-1.691-20.959,2.416-32.283,12.082c-1.205,0.967-1.927,2.416-1.927,3.867c0,1.449,0.482,2.898,1.446,4.107
	c0.481,0.482,13.491,13.773,28.669,13.773c0.723,0,1.686,0,2.409,0c7.709-0.725,14.455-4.832,19.755-12.082h18.551v35.52
	c0,0-0.188,5.314,5.3,5.314c5.488,0,5.3-5.314,5.3-5.314v-49.535l26.742-19.572c9.637,3.625,18.31,3.383,26.26-0.725
	c18.791-9.666,24.813-37.454,25.056-38.662C177.822,100.254,177.582,98.805,176.618,97.597z M53.992,105.57
	c-5.059,0-13.973-0.966-20.478-6.766c-5.3-4.833-8.191-12.323-8.914-21.989c6.746,0.242,18.068,1.933,24.573,9.424
	C53.269,90.589,54.955,97.355,53.992,105.57z M49.414,175.887c-6.746,0.725-13.25-3.141-17.587-6.283
	c6.505-4.59,12.769-6.523,18.31-5.557c4.818,0.725,8.432,3.383,10.6,5.557C57.124,173.471,53.51,175.645,49.414,175.887z
	 M78.565,49.511c-1.445-14.498,9.396-28.997,15.419-35.762c6.022,7.732,16.864,23.922,14.695,38.904
	c-1.204,7.732-5.782,14.256-14.214,19.572C84.588,65.701,79.288,57.968,78.565,49.511z M147.708,130.944
	c-4.818,2.416-10.359,2.656-16.623,0.725c0.482-7.008,2.891-12.566,7.228-16.674c7.71-7.007,19.515-8.458,26.741-8.699
	C162.404,114.27,156.622,126.11,147.708,130.944z"/>
</svg>
