<?xml version="1.0" encoding="utf-8"?>
<!-- Generator: Adobe Illustrator 16.0.0, SVG Export Plug-In . SVG Version: 6.00 Build 0)  -->
<!DOCTYPE svg PUBLIC "-//W3C//DTD SVG 1.1//EN" "http://www.w3.org/Graphics/SVG/1.1/DTD/svg11.dtd">
<svg version="1.1" id="Layer_1" xmlns="http://www.w3.org/2000/svg" xmlns:xlink="http://www.w3.org/1999/xlink" x="0px" y="0px"
	 width="216.031px" height="215.037px" viewBox="0 0 216.031 215.037" enable-background="new 0 0 216.031 215.037"
	 xml:space="preserve">
<g>
	<g>
		<path d="M108.016,50.19c3.615,0,6.544-2.93,6.544-6.545V6.547c0-3.615-2.93-6.547-6.544-6.547c-3.617,0-6.547,2.932-6.547,6.547
			v37.096C101.469,47.26,104.398,50.19,108.016,50.19z M108.016,165.843c-3.617,0-6.547,2.932-6.547,6.547v37.094
			c0,3.617,2.93,6.547,6.547,6.547c3.615,0,6.544-2.93,6.544-6.545V172.39C114.56,168.775,111.63,165.843,108.016,165.843z
			 M209.486,101.466h-37.098c-3.615,0-6.547,2.932-6.547,6.547c0,3.617,2.932,6.545,6.547,6.545h37.098
			c3.611,0,6.543-2.928,6.545-6.545C216.031,104.398,213.099,101.466,209.486,101.466z M50.189,108.015
			c0-3.615-2.933-6.546-6.547-6.546H6.545C2.93,101.469,0,104.4,0,108.015s2.93,6.543,6.545,6.543h37.098
			C47.257,114.558,50.189,111.63,50.189,108.015z M158.162,148.912c-2.559-2.557-6.703-2.557-9.258,0
			c-2.557,2.555-2.557,6.697,0,9.254l26.23,26.23c1.279,1.279,2.953,1.918,4.629,1.918s3.354-0.639,4.629-1.918
			c2.557-2.555,2.557-6.699,0-9.256L158.162,148.912z M57.873,67.126c1.279,1.279,2.954,1.918,4.628,1.918
			c1.675,0,3.35-0.639,4.631-1.916c2.557-2.557,2.557-6.704,0-9.258L40.9,31.64c-2.558-2.557-6.702-2.557-9.259,0
			s-2.557,6.702,0,9.256L57.873,67.126z M57.871,148.914l-26.229,26.23c-2.557,2.557-2.557,6.701,0,9.256
			c1.278,1.279,2.954,1.918,4.629,1.918c1.676,0,3.354-0.639,4.627-1.918l26.229-26.232c2.558-2.557,2.558-6.699,0-9.254
			C64.57,146.357,60.429,146.357,57.871,148.914z M153.539,69.051c1.674,0,3.348-0.64,4.627-1.92l26.229-26.232
			c2.559-2.555,2.559-6.701,0-9.256c-2.555-2.56-6.699-2.56-9.256,0L148.91,57.874c-2.559,2.555-2.559,6.704,0,9.259
			C150.185,68.411,151.863,69.051,153.539,69.051z M108.016,65.336c-23.531,0-42.679,19.148-42.679,42.679
			c0,23.535,19.147,42.682,42.679,42.682c23.535,0,42.679-19.146,42.679-42.682C150.695,84.484,131.55,65.336,108.016,65.336z
			 M108.016,137.603c-16.314,0-29.587-13.275-29.587-29.588c0-16.314,13.272-29.585,29.587-29.585
			c16.314,0,29.585,13.271,29.585,29.585S124.33,137.603,108.016,137.603z"/>
	</g>
</g>
</svg>
