<?xml version="1.0" encoding="utf-8"?>
<!-- Generator: Adobe Illustrator 16.0.0, SVG Export Plug-In . SVG Version: 6.00 Build 0)  -->
<!DOCTYPE svg PUBLIC "-//W3C//DTD SVG 1.1//EN" "http://www.w3.org/Graphics/SVG/1.1/DTD/svg11.dtd">
<svg version="1.1" id="Layer_1" xmlns="http://www.w3.org/2000/svg" xmlns:xlink="http://www.w3.org/1999/xlink" x="0px" y="0px"
	 width="1223.355px" height="425.785px" viewBox="-310.355 87.39 1223.355 425.785"
	 enable-background="new -310.355 87.39 1223.355 425.785" xml:space="preserve">
<g>
	<path fill="#FFFFFF" d="M913,96c-3.265,10.927-6.703,21.804-9.764,32.787c-14.761,52.979-29.411,105.989-44.112,158.985
		c-19.722,71.095-39.453,142.188-59.186,213.279c-0.131,0.471-0.333,0.918-0.604,1.652c-12.215,0-24.482,0-37.277,0
		c3.877-14.672,7.724-29.224,11.565-43.775c8.954-33.899,17.948-67.791,26.769-101.727c0.582-2.242,0.289-4.954-0.351-7.236
		c-23.392-83.521-46.874-167.017-70.337-250.518c-0.354-1.255-0.61-2.536-1.062-4.429c11.845,0,23.273-0.1,34.695,0.166
		c1.052,0.024,2.579,2.225,2.992,3.67c7.296,25.563,14.465,51.164,21.641,76.762c10.36,36.959,20.704,73.923,31.067,110.881
		c0.354,1.266,0.847,2.492,1.601,4.683c3.931-13.912,7.635-26.954,11.297-40.007c14.229-50.714,28.48-101.422,42.584-152.171
		c0.899-3.239,2.317-4.123,5.5-4.071C891.01,95.11,902.006,95,913,95C913,95.333,913,95.667,913,96z"/>
	<path fill="#FFFFFF" d="M25.995,87.39c1.365,1.5,2.94,2.857,4.063,4.521c24.875,36.824,49.698,73.684,74.534,110.533
		c13.115,19.459,26.234,38.915,39.357,58.368c0.729,1.081,1.515,2.126,3.115,4.364c0-57.391,0-113.513,0-169.903
		c12.618,0,24.534,0,36.794,0c0,135.8,0,271.5,0,407.466c-12.085,0-24.012,0-36.627,0c0-2.031,0-3.971,0-5.908
		c0-50.497,0.053-100.994-0.123-151.491c-0.012-3.244-1.13-6.9-2.857-9.658c-26.317-42.022-52.82-83.929-79.291-125.854
		c-1.02-1.614-2.15-3.156-4.004-5.862c0,100.406,0,199.451,0,298.767c-12.216,0-23.983,0-36.156,0c0-138.066,0-276.131,0-414.194
		C25.198,88.153,25.597,87.771,25.995,87.39z"/>
	<path fill="#FFFFFF" d="M386.021,89.407c12.076,5.378,23.454,9.628,34.062,15.316c34.839,18.686,62.676,44.848,81.744,79.73
		c12.042,22.026,18.735,45.673,20.395,70.809c1.835,27.815-1.351,54.802-12.07,80.675c-9.722,23.457-24.762,43.158-43.11,60.498
		c-6.635,6.269-6.562,6.319-1.925,14.389c16.901,29.406,33.794,58.817,50.684,88.23c0.57,0.994,1.067,2.03,1.856,3.538
		c-1.533,0.158-2.734,0.388-3.938,0.391c-11.162,0.026-22.326-0.104-33.483,0.092c-3.228,0.056-5.001-0.884-6.663-3.782
		c-14.143-24.667-28.485-49.218-42.782-73.795c-0.902-1.553-1.917-3.04-2.857-4.523c-4.259,0.754-5.497,2.984-5.467,6.994
		c0.177,22.822,0.086,45.646,0.085,68.471c0,1.973,0,3.943,0,6.235c-12.34,0-24.234,0-36.527,0
		C386.021,365.514,386.021,228.363,386.021,89.407z M422.838,386.354c31.577-17.492,65.07-62.236,63.936-117.785
		c-1.039-50.818-24.13-90.502-62.521-121.938c-0.471,0.204-0.942,0.408-1.414,0.612
		C422.838,226.894,422.838,306.544,422.838,386.354z"/>
	<path fill="#FFFFFF" d="M702.769,242.564c0,90.425,0,180.36,0,270.611c-11.252-1.785-21.384-5.975-30.992-11.224
		c-49.409-26.989-85.139-66.489-106.928-118.399c-14.085-33.557-18.474-68.751-14.618-104.702
		c6.894-64.288,35.359-117.165,86.232-157.499c18.405-14.592,38.597-25.967,61.562-31.855c1.438-0.369,2.914-0.601,4.967-1.017
		c0,12.686,0.061,25.108-0.113,37.528c-0.014,1.021-1.422,2.53-2.516,2.958c-54.64,21.318-86.381,63.16-102.04,117.599
		c-21.858,75.995,1.484,140.1,55.609,194.903c3.474,3.517,7.368,6.613,11.726,10.49c0-58.598,0-116.275,0-174.479
		c-11.392,0-22.816,0-34.671,0c0-11.883,0-23.248,0-34.915C654.858,242.564,678.607,242.564,702.769,242.564z"/>
	<path fill="#FFFFFF" d="M-112.547,502.832c-12.723,0-24.866,0-37.413,0c4.412-16.789,8.744-33.325,13.105-49.854
		c8.354-31.662,16.774-63.309,24.992-95.005c0.663-2.559,0.557-5.625-0.159-8.187c-23.328-83.394-46.775-166.754-70.197-250.121
		c-0.39-1.388-0.689-2.801-1.143-4.662c11.685,0,22.837-0.115,33.979,0.159c1.266,0.031,3.188,2.053,3.606,3.497
		c5.724,19.798,11.237,39.655,16.801,59.499c12.07,43.052,24.138,86.104,36.22,129.153c0.267,0.949,0.691,1.853,1.401,3.728
		c3.239-11.381,6.282-21.94,9.25-32.521c14.901-53.132,29.811-106.261,44.601-159.423c0.869-3.125,2.142-4.239,5.429-4.174
		C-21.428,95.132-10.774,95,0.681,95C-37.122,231.161-74.796,366.857-112.547,502.832z"/>
	<path fill="#FFFFFF" d="M229.791,95.206c37.211,0,73.994,0,111.093,0c0,11.459,0,22.719,0,34.63c-24.588,0-49.286,0-74.257,0
		c0,76.082,0,151.516,0,227.502c24.571,0,49.146,0,74.146,0c0,11.922,0,23.303,0,35.245c-24.622,0-49.215,0-74.112,0
		c0,25.308,0,50.056,0,75.254c27.393,0,54.644,0,82.312,0c0,11.811,0,23.18,0,34.858c-39.594,0-79.19,0-119.183,0
		C229.791,367.018,229.791,231.312,229.791,95.206z"/>
	<path fill="#FFFFFF" d="M-299.888,479.475c18.101-5.524,34.506-12.9,48.909-24.42c25.031-20.019,33.698-52.209,22.361-82.244
		c-7.31-19.365-18.767-36.273-30.257-53.201c-13.364-19.686-26.912-39.254-36.891-60.98c-10.742-23.39-16.471-47.847-14.032-73.649
		c2.2-23.273,12.694-42.861,29.004-59.337c16.289-16.454,36.012-27.724,57.656-37.277c4.641,10.348,9.23,20.581,13.526,30.159
		c-10.751,6.661-21.608,12.51-31.482,19.708c-15.5,11.299-26.718,25.94-30.254,45.396c-2.406,13.24-0.616,26.178,3.555,38.825
		c7.171,21.744,20.096,40.367,32.161,59.501c12.055,19.117,24.304,38.188,34.992,58.07c11.625,21.625,16.777,45.145,14.273,69.904
		c-3.226,31.9-18.805,56.694-44.136,75.695c-14.769,11.078-31.211,18.935-48.702,24.74c-2.928,0.973-4.359,0.729-5.821-2.229
		C-289.733,498.605-294.786,489.248-299.888,479.475z"/>
</g>
</svg>
