<?xml version="1.0" encoding="utf-8"?>
<!-- Generator: Adobe Illustrator 16.0.0, SVG Export Plug-In . SVG Version: 6.00 Build 0)  -->
<!DOCTYPE svg PUBLIC "-//W3C//DTD SVG 1.1//EN" "http://www.w3.org/Graphics/SVG/1.1/DTD/svg11.dtd">
<svg version="1.1" id="Layer_1" xmlns="http://www.w3.org/2000/svg" xmlns:xlink="http://www.w3.org/1999/xlink" x="0px" y="0px"
	 width="188.794px" height="216px" viewBox="0 0 188.794 216" enable-background="new 0 0 188.794 216" xml:space="preserve">
<path d="M185.809,153.43l-20.154-11.508l19.914-11.507c2.879-1.679,3.838-5.274,2.159-8.151c-1.68-2.877-5.278-3.836-8.157-2.157
	l-25.912,14.863l-47.266-27.569l46.785-26.85l26.393,15.343c0.959,0.479,1.919,0.719,2.879,0.719c2.159,0,4.078-0.959,5.278-3.116
	c1.679-2.877,0.72-6.473-2.159-8.151l-20.395-11.747l20.395-11.747c2.879-1.678,3.838-5.274,2.159-8.151
	c-1.68-2.877-5.278-3.835-8.157-2.157L159.417,63.05V40.275c0-3.356-2.639-5.994-5.998-5.994s-5.998,2.637-5.998,5.994v29.727
	l-47.266,27.33v-53.94l26.393-15.343c2.879-1.678,3.838-5.274,2.159-8.151c-1.68-2.877-5.278-3.836-8.157-2.158l-20.395,11.747
	V5.993c0-3.356-2.879-5.993-5.998-5.993c-3.119,0-5.998,2.637-5.998,5.993v23.254L68.246,17.74
	c-2.879-1.678-6.478-0.719-8.158,2.158c-1.68,2.876-0.72,6.473,2.159,8.151l25.912,15.103v54.66l-46.786-27.09V40.275
	c0-3.356-2.639-5.994-5.998-5.994s-5.998,2.637-5.998,5.994v23.494L8.984,52.022c-2.879-1.678-6.478-0.72-8.158,2.157
	c-1.679,2.877-0.72,6.473,2.16,8.151l20.153,11.507L3.465,85.345c-2.879,1.678-3.839,5.274-2.159,8.151
	c1.2,1.917,3.119,3.116,5.278,3.116c0.96,0,2.16-0.24,2.879-0.719L35.136,81.03l47.265,27.33L35.615,135.21L9.224,119.867
	c-2.879-1.678-6.478-0.719-8.157,2.158s-0.72,6.473,2.159,8.15l20.394,11.747L3.226,153.669c-2.879,1.679-3.839,5.274-2.159,8.151
	c1.2,1.918,3.119,3.116,5.278,3.116c0.96,0,2.159-0.239,2.879-0.719l20.154-11.508v22.774c0,3.357,2.639,5.994,5.998,5.994
	s5.998-2.637,5.998-5.994v-29.727l47.265-27.33v53.94l-26.392,15.343c-2.879,1.679-3.839,5.274-2.159,8.151
	c1.2,1.918,3.119,3.117,5.278,3.117c0.959,0,2.159-0.24,2.879-0.72l20.393-11.747v23.494c0,3.356,2.64,5.993,5.999,5.993
	c3.358,0,5.998-2.637,5.998-5.993v-23.254l19.914,11.507c0.959,0.479,1.919,0.72,2.879,0.72c2.159,0,4.078-0.959,5.278-3.117
	c1.679-2.877,0.72-6.473-2.159-8.151l-25.912-15.103v-54.42l46.785,26.851v30.445c0,3.357,2.639,5.994,5.998,5.994
	s5.998-2.637,5.998-5.994v-23.493l20.395,11.747c0.959,0.479,1.919,0.719,2.879,0.719c2.159,0,4.078-0.959,5.277-3.116
	C189.647,158.704,188.688,155.108,185.809,153.43z"/>
</svg>
